<?xml version="1.0" encoding="UTF-8" standalone="no"?>
<!-- Created with Inkscape (http://www.inkscape.org/) -->

<svg
   xmlns:dc="http://purl.org/dc/elements/1.1/"
   xmlns:cc="http://creativecommons.org/ns#"
   xmlns:rdf="http://www.w3.org/1999/02/22-rdf-syntax-ns#"
   xmlns:svg="http://www.w3.org/2000/svg"
   xmlns="http://www.w3.org/2000/svg"
   xmlns:sodipodi="http://sodipodi.sourceforge.net/DTD/sodipodi-0.dtd"
   xmlns:inkscape="http://www.inkscape.org/namespaces/inkscape"
   width="451.55554mm"
   height="264.9361mm"
   viewBox="0 0 1600 938.74994"
   id="svg2"
   version="1.1"
   inkscape:version="0.91 r13725"
   inkscape:export-filename="/Users/mariachapa/Google Drive/AnimationistGirl/Freelance 2017/Upwork/36 Emilio Sole/Revs/sketch2.png"
   inkscape:export-xdpi="90"
   inkscape:export-ydpi="90"
   sodipodi:docname="sketch2.svg">
  <defs
     id="defs4" />
  <sodipodi:namedview
     id="base"
     pagecolor="#ffffff"
     bordercolor="#666666"
     borderopacity="1.0"
     inkscape:pageopacity="0.0"
     inkscape:pageshadow="2"
     inkscape:zoom="0.48625001"
     inkscape:cx="225.28949"
     inkscape:cy="469.37497"
     inkscape:document-units="px"
     inkscape:current-layer="g3517"
     showgrid="false"
     fit-margin-top="0"
     fit-margin-left="0"
     fit-margin-right="0"
     fit-margin-bottom="0"
     inkscape:window-width="1316"
     inkscape:window-height="1073"
     inkscape:window-x="1226"
     inkscape:window-y="45"
     inkscape:window-maximized="0" />
  <metadata
     id="metadata7">
    <rdf:RDF>
      <cc:Work
         rdf:about="">
        <dc:format>image/svg+xml</dc:format>
        <dc:type
           rdf:resource="http://purl.org/dc/dcmitype/StillImage" />
        <dc:title />
      </cc:Work>
    </rdf:RDF>
  </metadata>
  <g
     style="display:inline"
     inkscape:label="no rails"
     id="g3517"
     inkscape:groupmode="layer">
    <path
       sodipodi:nodetypes="ssssscsscsssssccsscsssssscsssssssssccscccsscsssssssssssscccssccsscsccccsssssssssccsssccccccssssssssssscsscssssscssssssssssssssccccccccccccccccccccsssssssssssssssssscccccccccc"
       inkscape:connector-curvature="0"
       id="path3519"
       d="m 890.71258,651.05371 c -4.47258,-3.80268 -14.32477,-11.04659 -21.89376,-16.09758 -7.56898,-5.05098 -15.73223,-10.56343 -18.14054,-12.24988 -16.88509,-11.82395 -52.90196,-30.66541 -79.44307,-41.55889 -23.55794,-9.66909 -53.89981,-22.61602 -74.41264,-31.75207 -9.27482,-4.13084 -17.01696,-7.3571 -17.20449,-7.16948 -0.18766,0.18764 -1.47589,6.76751 -2.8627,14.62195 -1.38682,7.85445 -5.14329,25.9627 -8.34778,40.24056 -5.48645,24.44551 -7.21381,28.84278 -9.73071,24.77052 -0.83447,-1.3504 11.42303,-53.86698 16.3201,-69.92212 3.71231,-12.17069 4.37163,-11.05679 -9.47737,-16.01364 -5.16067,-1.84712 -18.95374,-7.00686 -30.65126,-11.4661 -11.69752,-4.45924 -31.40191,-11.04242 -43.78752,-14.62929 -30.3121,-8.77838 -54.10886,-16.6145 -82.44277,-27.14788 -23.51327,-8.74128 -47.02842,-16.54234 -47.5854,-15.78624 -0.35292,0.47916 -27.59552,69.53938 -28.6568,72.64544 -0.92304,2.70104 -3.32885,2.89299 -3.32885,0.2656 0,-3.65777 20.73802,-53.62593 28.89263,-69.61663 l 2.34989,-4.60805 -6.55099,-2.40576 c -6.59002,-2.4201 -13.27338,-4.60803 -67.22798,-22.00861 -35.71636,-11.51868 -56.78966,-15.98791 -69.4345,-14.72571 -14.42311,1.43969 -22.73423,7.50822 -44.80827,32.71778 -5.56039,6.35019 -5.45229,6.10896 1.4012,-3.12768 10.61948,-14.31209 19.74417,-23.20922 28.56936,-27.85691 7.07656,-3.7268 8.60387,-4.04491 19.39161,-4.03896 7.49968,0.004 16.68117,1.06174 25.53601,2.94141 20.87526,4.4314 101.75494,30.84177 161.32411,52.67865 32.2674,11.82858 68.6582,23.60263 93.20486,30.15592 8.35216,2.22977 61.29803,21.52588 76.94093,28.04106 4.81663,2.0061 21.14312,8.94982 36.28109,15.4305 15.13797,6.48066 38.47872,16.13454 51.86844,21.45304 13.3896,5.31851 29.99758,12.49391 36.90663,15.94534 13.56675,6.77738 42.3698,23.19135 49.46838,28.19049 2.40832,1.69606 9.76349,6.62818 16.34488,10.96028 19.20071,12.63862 31.07926,22.69289 30.30572,25.65121 -0.35906,1.37286 -0.72787,2.47127 -0.81958,2.4409 -0.0913,-0.0304 -3.82627,-3.16647 -8.29886,-6.96917 z m 6.49694,-47.79648 C 817.20276,537.48605 581.87559,457.24132 425.93934,411.56043 c 0,0 -82.84547,-23.91315 -116.00791,-34.26653 -14.28311,-4.67642 -15.86059,-4.57088 -23.85406,1.59598 -18.52838,14.29451 -36.85045,37.40655 -46.88255,59.13903 -2.73534,5.92549 -5.60868,11.16631 -6.38522,11.64626 -1.83345,1.13311 -1.84746,1.22906 1.1929,-8.13869 5.80898,-17.8984 16.98192,-34.3106 35.72361,-52.47519 12.80122,-12.40713 14.3907,-13.52343 27.35281,-19.21072 7.56899,-3.321 19.9546,-8.27283 27.52358,-11.00407 14.12836,-5.09818 57.33351,-16.30272 80.69415,-20.92672 67.64271,-13.38914 133.0983,-24.32051 168.89472,-28.20616 52.39689,-5.68763 90.33953,-5.08713 116.34969,1.84141 7.91303,2.10786 22.26908,5.50353 31.90234,7.54594 17.04786,3.61442 42.35817,10.20811 57.54931,14.99242 17.71781,5.58005 104.69748,25.04611 158.06171,35.56906 88.81398,17.5133 103.68808,21.16285 158.45948,36.55265 26.9534,7.57342 93.8801,30.03888 113.2221,38.00554 8.6011,3.54268 23.7451,9.49883 33.6533,13.23591 44.0792,18.50315 97.5181,40.99688 114.82,70.89312 9.9809,15.11663 27.5266,46.74499 26.4883,47.74844 -0.2404,0.23232 -1.4959,0.61668 -2.79,0.85412 -1.9213,0.35251 -4.5249,-3.81372 -14.1944,-22.71313 -6.5128,-12.72965 -16.4769,-24.97317 -17.6413,-27.20781 0,0 -30.0434,6.10293 -50.8843,12.28596 -21.594,4.87567 -38.4124,8.87933 -130.1115,30.97334 -112.5626,27.12089 -147.4264,35.25853 -215.80992,50.37272 -16.1701,3.57392 -29.60887,6.67256 -29.86384,6.88585 -0.25496,0.21329 1.18865,2.52495 3.208,5.13702 2.99644,3.87589 9.66553,14.17346 14.62153,22.57699 0.65694,1.11389 -0.19992,1.56384 -2.97818,1.56384 0,0 -21.12942,-36.83927 -41.04417,-53.56978 z m 94.21436,5.41907 c 25.45932,-5.90103 64.58662,-15.21209 86.94952,-20.69122 22.3629,-5.47914 55.8603,-13.63053 74.4388,-18.11421 18.5784,-4.48368 50.1054,-12.11338 70.06,-16.9549 19.9546,-4.84152 48.6667,-11.61833 63.8047,-15.05957 36.2449,-8.23937 59.4259,-14.80789 59.4259,-16.83876 0,-2.04388 -5.5872,-6.41234 -25.0892,-19.61641 -23.4469,-15.87504 -50.1907,-28.3424 -119.4096,-55.66629 -9.6333,-3.80268 -22.0189,-8.76796 -27.5236,-11.03394 -18.6116,-7.66135 -72.6519,-24.03273 -117.6008,-35.62683 -30.3306,-7.82346 -41.0089,-9.0149 -110.97639,-23.24897 -80.90501,-19.02822 -191.49738,-44.44455 -246.20464,-57.98671 -16.17011,-4.00539 -33.65071,-7.66358 -38.84579,-8.12932 -12.01717,-1.07729 -58.38265,1.2044 -90.01463,4.42973 -38.4886,3.92445 -135.94048,19.57921 -166.39257,26.72947 -41.8057,9.81613 -88.01229,22.86982 -97.90302,27.65833 -7.72403,5.19386 2.60497,3.55649 6.27901,5.50391 0,0 0.91328,-0.82496 29.07041,7.03283 0,0 65.35571,17.96595 91.51104,25.42104 38.28286,13.32088 432.75632,128.81139 487.10725,216.55559 0,0 50.63808,-9.56897 71.31361,-14.36377 z M 817.52487,447.01551 c -29.03613,-6.87233 -85.70031,-23.38198 -154.32348,-44.96357 -62.23183,-19.57152 -96.59765,-29.81092 -125.29111,-37.3308 -25.79448,-6.76012 -32.21961,-9.13126 -11.67125,-4.30718 23.90686,5.61252 68.22984,17.94551 101.35772,28.20299 70.30087,21.76746 134.40054,40.78711 164.09911,48.69146 30.08703,8.00771 38.01708,10.63093 31.45884,10.4064 -1.72023,-0.0589 -4.25365,-0.37358 -5.62983,-0.6993 z m 85.94164,-18.55307 C 854.64868,416.11801 793.36667,398.53738 698.7476,369.73249 c -32.98727,-10.04231 -63.6528,-19.18212 -68.14552,-20.31066 -4.49273,-1.12854 -7.57086,-2.25117 -6.84011,-2.49473 1.49603,-0.49869 23.70731,5.81456 104.31125,29.64902 87.0815,25.74985 131.52383,38.18681 170.77133,47.78951 19.9546,4.8823 36.81592,9.35947 37.46961,9.94926 2.62337,2.36703 -7.41711,0.57812 -32.84765,-5.85245 z m 48.5486,-27.96791 c -9.9773,-2.62982 -31.65212,-8.30312 -48.16627,-12.60736 -47.11362,-12.27965 -73.27591,-19.39944 -115.72416,-31.49311 -45.00131,-12.82101 -94.31707,-25.54717 -118.53107,-30.58744 -9.1128,-1.89688 -16.32736,-3.69016 -16.03248,-3.98507 0.93117,-0.93118 50.28558,9.63627 77.63977,16.62376 14.44988,3.69114 46.53988,12.33169 71.31111,19.20122 24.77122,6.86952 63.8985,17.35708 86.9495,23.30568 57.8871,14.93847 82.57075,22.03913 82.57075,23.75283 0,1.02487 -0.7649,0.86399 -20.01715,-4.21051 z m -447.88377,-43.9248 c -2.47663,-0.79314 -2.60686,-1.00166 -0.62554,-1.00166 1.37618,0 3.9096,0.45075 5.62982,1.00166 2.47663,0.79314 2.60686,1.00166 0.62554,1.00166 -1.37618,0 -3.9096,-0.45075 -5.62982,-1.00166 z m -7.8192,-2.07963 c 0.86011,-0.34706 2.26756,-0.34706 3.12768,0 0.86011,0.34706 0.15638,0.63102 -1.56384,0.63102 -1.72023,0 -2.42396,-0.28396 -1.56384,-0.63102 z m -6.17717,-1.27714 c 0.90315,-0.36139 1.9822,-0.31696 2.39793,0.0987 0.41573,0.41572 -0.32328,0.71141 -1.64203,0.65709 -1.4575,-0.06 -1.75388,-0.35648 -0.7559,-0.75585 z m 128.86041,-7.50643 c 0.90315,-0.3614 1.9822,-0.31696 2.39793,0.0987 0.41573,0.41572 -0.32327,0.71141 -1.64203,0.65709 -1.4575,-0.06 -1.75388,-0.35648 -0.7559,-0.75585 z m -5.00428,-1.25107 c 0.90314,-0.3614 1.98219,-0.31696 2.39793,0.0987 0.41573,0.41572 -0.32328,0.71141 -1.64204,0.65709 -1.4575,-0.06 -1.75387,-0.35648 -0.75589,-0.75585 z m -5.00429,-1.25107 c 0.90315,-0.3614 1.9822,-0.31696 2.39793,0.0987 0.41573,0.41572 -0.32328,0.71141 -1.64203,0.65709 -1.4575,-0.0601 -1.75388,-0.35649 -0.7559,-0.75585 z m -9.774,-1.64753 c -2.47662,-0.79314 -2.60686,-1.00165 -0.62554,-1.00165 1.37618,0 3.9096,0.45074 5.62983,1.00165 2.47662,0.79315 2.60685,1.00166 0.62553,1.00166 -1.37618,0 -3.9096,-0.45075 -5.62982,-1.00166 z m -11.25965,-2.50214 c -2.47662,-0.79314 -2.60686,-1.00166 -0.62554,-1.00166 1.37618,0 3.9096,0.45075 5.62983,1.00166 2.47662,0.79314 2.60686,1.00166 0.62553,1.00166 -1.37618,0 -3.9096,-0.45075 -5.62982,-1.00166 z m -7.8192,-2.07963 c 0.86011,-0.34706 2.26757,-0.34706 3.12768,0 0.86011,0.34706 0.15638,0.63103 -1.56384,0.63103 -1.72022,0 -2.42395,-0.28397 -1.56384,-0.63103 z m -6.25536,-1.25107 c 0.86011,-0.34706 2.26757,-0.34706 3.12768,0 0.86011,0.34706 0.15638,0.63102 -1.56384,0.63102 -1.72022,0 -2.42395,-0.28396 -1.56384,-0.63102 z m -6.17717,-1.27714 c 0.90315,-0.36139 1.9822,-0.31696 2.39793,0.0987 0.41573,0.41572 -0.32328,0.71141 -1.64203,0.65709 -1.4575,-0.06 -1.75388,-0.35648 -0.7559,-0.75585 z m -7.50643,-1.25107 c 0.90315,-0.3614 1.9822,-0.31696 2.39793,0.0987 0.41573,0.41572 -0.32328,0.71141 -1.64203,0.65709 -1.4575,-0.06 -1.75388,-0.35648 -0.7559,-0.75585 z"
       style="fill:#000000" />
  </g>
</svg>
