<?xml version="1.0" encoding="utf-8"?>
<!-- Generator: Adobe Illustrator 18.0.0, SVG Export Plug-In . SVG Version: 6.00 Build 0)  -->
<!DOCTYPE svg PUBLIC "-//W3C//DTD SVG 1.1//EN" "http://www.w3.org/Graphics/SVG/1.1/DTD/svg11.dtd" [
	<!ENTITY ns_extend "http://ns.adobe.com/Extensibility/1.0/">
	<!ENTITY ns_ai "http://ns.adobe.com/AdobeIllustrator/10.0/">
	<!ENTITY ns_graphs "http://ns.adobe.com/Graphs/1.0/">
	<!ENTITY ns_vars "http://ns.adobe.com/Variables/1.0/">
	<!ENTITY ns_imrep "http://ns.adobe.com/ImageReplacement/1.0/">
	<!ENTITY ns_sfw "http://ns.adobe.com/SaveForWeb/1.0/">
	<!ENTITY ns_custom "http://ns.adobe.com/GenericCustomNamespace/1.0/">
	<!ENTITY ns_adobe_xpath "http://ns.adobe.com/XPath/1.0/">
]>
<svg version="1.1"
	 id="svg2" xmlns:x="&ns_extend;" xmlns:i="&ns_ai;" xmlns:graph="&ns_graphs;" inkscape:export-filename="/Users/mariachapa/Google Drive/AnimationistGirl/Freelance 2017/Upwork/36 Emilio Sole/Revs/sketch2.png" sodipodi:docname="sketch2.svg" inkscape:export-ydpi="90" inkscape:export-xdpi="90" inkscape:version="0.91 r13725" xmlns:svg="http://www.w3.org/2000/svg" xmlns:inkscape="http://www.inkscape.org/namespaces/inkscape" xmlns:rdf="http://www.w3.org/1999/02/22-rdf-syntax-ns#" xmlns:dc="http://purl.org/dc/elements/1.1/" xmlns:sodipodi="http://sodipodi.sourceforge.net/DTD/sodipodi-0.dtd" xmlns:cc="http://creativecommons.org/ns#"
	 xmlns="http://www.w3.org/2000/svg" xmlns:xlink="http://www.w3.org/1999/xlink" x="0px" y="0px" viewBox="0 0 1280 751"
	 enable-background="new 0 0 1280 751" xml:space="preserve">
<metadata  id="metadata7">
	<rdf:RDF>
		<cc:Work  rdf:about="">
			<dc:format>image/svg+xml</dc:format>
			<dc:type  rdf:resource="http://purl.org/dc/dcmitype/StillImage"></dc:type>
			<dc:title></dc:title>
		</cc:Work>
	</rdf:RDF>
	<sfw  xmlns="&ns_sfw;">
		<slices></slices>
		<sliceSourceBounds  width="922.6" height="281.7" y="245.6" x="-148.8" bottomLeftOrigin="true"></sliceSourceBounds>
	</sfw>
</metadata>
<sodipodi:namedview  id="base" inkscape:document-units="px" inkscape:pageshadow="2" inkscape:window-height="1073" inkscape:pageopacity="0.0" inkscape:window-width="1316" fit-margin-bottom="0" inkscape:current-layer="g3517" inkscape:window-y="45" fit-margin-right="0" inkscape:window-maximized="0" inkscape:window-x="1226" showgrid="false" borderopacity="1.0" bordercolor="#666666" inkscape:cy="469.37497" inkscape:zoom="0.48625001" fit-margin-left="0" inkscape:cx="225.28949" pagecolor="#ffffff" fit-margin-top="0">
	</sodipodi:namedview>
<g id="g3517" inkscape:groupmode="layer" inkscape:label="no rails">
	
		<path id="path3519" inkscape:connector-curvature="0" sodipodi:nodetypes="ssssscsscsssssccsscsssssscsssssssssccscccsscsssssssssssscccssccsscsccccsssssssssccsssccccccssssssssssscsscssssscssssssssssssssccccccccccccccccccccsssssssssssssssssscccccccccc" fill="#FFFFFF" d="
		M712.6,520.8c-3.6-3-11.5-8.8-17.5-12.9c-6.1-4-12.6-8.5-14.5-9.8c-13.5-9.5-42.3-24.5-63.6-33.2c-18.8-7.7-43.1-18.1-59.5-25.4
		c-7.4-3.3-13.6-5.9-13.8-5.7c-0.2,0.2-1.2,5.4-2.3,11.7c-1.1,6.3-4.1,20.8-6.7,32.2c-4.4,19.6-5.8,23.1-7.8,19.8
		c-0.7-1.1,9.1-43.1,13.1-55.9c3-9.7,3.5-8.8-7.6-12.8c-4.1-1.5-15.2-5.6-24.5-9.2c-9.4-3.6-25.1-8.8-35-11.7
		c-24.2-7-43.3-13.3-66-21.7c-18.8-7-37.6-13.2-38.1-12.6c-0.3,0.4-22.1,55.6-22.9,58.1c-0.7,2.2-2.7,2.3-2.7,0.2
		c0-2.9,16.6-42.9,23.1-55.7l1.9-3.7l-5.2-1.9c-5.3-1.9-10.6-3.7-53.8-17.6c-28.6-9.2-45.4-12.8-55.5-11.8
		c-11.5,1.2-18.2,6-35.8,26.2c-4.4,5.1-4.4,4.9,1.1-2.5c8.5-11.4,15.8-18.6,22.9-22.3c5.7-3,6.9-3.2,15.5-3.2c6,0,13.3,0.8,20.4,2.4
		c16.7,3.5,81.4,24.7,129.1,42.1c25.8,9.5,54.9,18.9,74.6,24.1c6.7,1.8,49,17.2,61.6,22.4c3.9,1.6,16.9,7.2,29,12.3
		s30.8,12.9,41.5,17.2c10.7,4.3,24,10,29.5,12.8c10.9,5.4,33.9,18.6,39.6,22.6c1.9,1.4,7.8,5.3,13.1,8.8
		c15.4,10.1,24.9,18.2,24.2,20.5c-0.3,1.1-0.6,2-0.7,2C719.1,526.4,716.1,523.9,712.6,520.8L712.6,520.8z M717.8,482.6
		c-64-52.6-252.3-116.8-377-153.4c0,0-66.3-19.1-92.8-27.4c-11.4-3.7-12.7-3.7-19.1,1.3c-14.8,11.4-29.5,29.9-37.5,47.3
		c-2.2,4.7-4.5,8.9-5.1,9.3c-1.5,0.9-1.5,1,1-6.5c4.6-14.3,13.6-27.4,28.6-42c10.2-9.9,11.5-10.8,21.9-15.4c6.1-2.7,16-6.6,22-8.8
		c11.3-4.1,45.9-13,64.6-16.7c54.1-10.7,106.5-19.5,135.1-22.6c41.9-4.6,72.3-4.1,93.1,1.5c6.3,1.7,17.8,4.4,25.5,6
		c13.6,2.9,33.9,8.2,46,12c14.2,4.5,83.8,20,126.4,28.5c71.1,14,83,16.9,126.8,29.2c21.6,6.1,75.1,24,90.6,30.4
		c6.9,2.8,19,7.6,26.9,10.6c35.3,14.8,78,32.8,91.9,56.7c8,12.1,22,37.4,21.2,38.2c-0.2,0.2-1.2,0.5-2.2,0.7
		c-1.5,0.3-3.6-3.1-11.4-18.2c-5.2-10.2-13.2-20-14.1-21.8c0,0-24,4.9-40.7,9.8c-17.3,3.9-30.7,7.1-104.1,24.8
		c-90.1,21.7-117.9,28.2-172.6,40.3c-12.9,2.9-23.7,5.3-23.9,5.5s1,2,2.6,4.1c2.4,3.1,7.7,11.3,11.7,18.1c0.5,0.9-0.2,1.3-2.4,1.3
		C750.6,525.5,733.7,496,717.8,482.6L717.8,482.6z M793.1,486.9c20.4-4.7,51.7-12.2,69.6-16.6s44.7-10.9,59.6-14.5
		c14.9-3.6,40.1-9.7,56-13.6c16-3.9,38.9-9.3,51-12c29-6.6,47.5-11.8,47.5-13.5c0-1.6-4.5-5.1-20.1-15.7
		c-18.8-12.7-40.2-22.7-95.5-44.5c-7.7-3-17.6-7-22-8.8c-14.9-6.1-58.1-19.2-94.1-28.5c-24.3-6.3-32.8-7.2-88.8-18.6
		c-64.7-15.2-153.2-35.6-197-46.4c-12.9-3.2-26.9-6.1-31.1-6.5c-9.6-0.9-46.7,1-72,3.5c-30.8,3.1-108.8,15.7-133.1,21.4
		c-33.4,7.9-70.4,18.3-78.3,22.1c-6.2,4.2,2.1,2.8,5,4.4c0,0,0.7-0.7,23.3,5.6c0,0,52.3,14.4,73.2,20.3
		c30.6,10.7,346.2,103,389.7,173.2C736.1,498.4,776.6,490.8,793.1,486.9L793.1,486.9z M654,357.6c-23.2-5.5-68.6-18.7-123.5-36
		c-49.8-15.7-77.3-23.8-100.2-29.9c-20.6-5.4-25.8-7.3-9.3-3.4c19.1,4.5,54.6,14.4,81.1,22.6c56.2,17.4,107.5,32.6,131.3,39
		c24.1,6.4,30.4,8.5,25.2,8.3C657.1,358.1,655.1,357.9,654,357.6L654,357.6z M722.8,342.8c-39.1-9.9-88.1-23.9-163.8-47
		c-26.4-8-50.9-15.3-54.5-16.2c-3.6-0.9-6.1-1.8-5.5-2c1.2-0.4,19,4.7,83.4,23.7c69.7,20.6,105.2,30.5,136.6,38.2
		c16,3.9,29.5,7.5,30,8C751.2,349.3,743.1,347.9,722.8,342.8L722.8,342.8z M761.6,320.4c-8-2.1-25.3-6.6-38.5-10.1
		c-37.7-9.8-58.6-15.5-92.6-25.2c-36-10.3-75.5-20.4-94.8-24.5c-7.3-1.5-13.1-3-12.8-3.2c0.7-0.7,40.2,7.7,62.1,13.3
		c11.6,3,37.2,9.9,57,15.4c19.8,5.5,51.1,13.9,69.6,18.6c46.3,12,66.1,17.6,66.1,19C777.6,324.6,777,324.5,761.6,320.4L761.6,320.4z
		 M403.3,285.3c-2-0.6-2.1-0.8-0.5-0.8c1.1,0,3.1,0.4,4.5,0.8c2,0.6,2.1,0.8,0.5,0.8C406.7,286.1,404.7,285.7,403.3,285.3z
		 M397,283.6c0.7-0.3,1.8-0.3,2.5,0c0.7,0.3,0.1,0.5-1.3,0.5C396.9,284.1,396.4,283.9,397,283.6z M392.1,282.6
		c0.7-0.3,1.6-0.3,1.9,0.1c0.3,0.3-0.3,0.6-1.3,0.5C391.5,283.1,391.3,282.9,392.1,282.6L392.1,282.6z M495.2,276.6
		c0.7-0.3,1.6-0.3,1.9,0.1c0.3,0.3-0.3,0.6-1.3,0.5C494.6,277.1,494.4,276.9,495.2,276.6L495.2,276.6z M491.2,275.6
		c0.7-0.3,1.6-0.3,1.9,0.1c0.3,0.3-0.3,0.6-1.3,0.5C490.6,276.1,490.4,275.9,491.2,275.6L491.2,275.6z M487.2,274.6
		c0.7-0.3,1.6-0.3,1.9,0.1c0.3,0.3-0.3,0.6-1.3,0.5C486.6,275.1,486.4,274.9,487.2,274.6L487.2,274.6z M479.4,273.2
		c-2-0.6-2.1-0.8-0.5-0.8c1.1,0,3.1,0.4,4.5,0.8c2,0.6,2.1,0.8,0.5,0.8C482.8,274,480.7,273.7,479.4,273.2z M470.4,271.2
		c-2-0.6-2.1-0.8-0.5-0.8c1.1,0,3.1,0.4,4.5,0.8c2,0.6,2.1,0.8,0.5,0.8C473.8,272,471.7,271.7,470.4,271.2z M464.1,269.6
		c0.7-0.3,1.8-0.3,2.5,0c0.7,0.3,0.1,0.5-1.3,0.5C464,270.1,463.4,269.9,464.1,269.6z M459.1,268.6c0.7-0.3,1.8-0.3,2.5,0
		c0.7,0.3,0.1,0.5-1.3,0.5C459,269.1,458.4,268.9,459.1,268.6z M454.2,267.6c0.7-0.3,1.6-0.3,1.9,0.1c0.3,0.3-0.3,0.6-1.3,0.5
		C453.6,268.1,453.4,267.9,454.2,267.6L454.2,267.6z M448.2,266.6c0.7-0.3,1.6-0.3,1.9,0.1c0.3,0.3-0.3,0.6-1.3,0.5
		C447.6,267.1,447.4,266.9,448.2,266.6L448.2,266.6z"/>
</g>
</svg>
