<?xml version="1.0" encoding="utf-8"?>
<!-- Generator: Adobe Illustrator 18.0.0, SVG Export Plug-In . SVG Version: 6.00 Build 0)  -->
<!DOCTYPE svg PUBLIC "-//W3C//DTD SVG 1.1//EN" "http://www.w3.org/Graphics/SVG/1.1/DTD/svg11.dtd" [
	<!ENTITY ns_extend "http://ns.adobe.com/Extensibility/1.0/">
	<!ENTITY ns_ai "http://ns.adobe.com/AdobeIllustrator/10.0/">
	<!ENTITY ns_graphs "http://ns.adobe.com/Graphs/1.0/">
	<!ENTITY ns_vars "http://ns.adobe.com/Variables/1.0/">
	<!ENTITY ns_imrep "http://ns.adobe.com/ImageReplacement/1.0/">
	<!ENTITY ns_sfw "http://ns.adobe.com/SaveForWeb/1.0/">
	<!ENTITY ns_custom "http://ns.adobe.com/GenericCustomNamespace/1.0/">
	<!ENTITY ns_adobe_xpath "http://ns.adobe.com/XPath/1.0/">
]>
<svg version="1.1"
	 id="svg2" xmlns:x="&ns_extend;" xmlns:i="&ns_ai;" xmlns:graph="&ns_graphs;" inkscape:export-filename="/Users/mariachapa/Google Drive/AnimationistGirl/Freelance 2017/Upwork/36 Emilio Sole/Revs/sketch5R4.png" sodipodi:docname="sketch5CrossBars.svg" inkscape:export-ydpi="90" inkscape:export-xdpi="90" inkscape:version="0.91 r13725" xmlns:svg="http://www.w3.org/2000/svg" xmlns:inkscape="http://www.inkscape.org/namespaces/inkscape" xmlns:rdf="http://www.w3.org/1999/02/22-rdf-syntax-ns#" xmlns:dc="http://purl.org/dc/elements/1.1/" xmlns:sodipodi="http://sodipodi.sourceforge.net/DTD/sodipodi-0.dtd" xmlns:cc="http://creativecommons.org/ns#"
	 xmlns="http://www.w3.org/2000/svg" xmlns:xlink="http://www.w3.org/1999/xlink" x="0px" y="0px" viewBox="0 0 1280 751"
	 enable-background="new 0 0 1280 751" xml:space="preserve">
<metadata  id="metadata7">
	<rdf:RDF>
		<cc:Work  rdf:about="">
			<dc:format>image/svg+xml</dc:format>
			<dc:type  rdf:resource="http://purl.org/dc/dcmitype/StillImage"></dc:type>
			<dc:title></dc:title>
		</cc:Work>
	</rdf:RDF>
	<sfw  xmlns="&ns_sfw;">
		<slices></slices>
		<sliceSourceBounds  width="929.9" height="283.8" y="245.6" x="-156.6" bottomLeftOrigin="true"></sliceSourceBounds>
	</sfw>
</metadata>
<sodipodi:namedview  id="base" inkscape:document-units="px" inkscape:pageshadow="2" inkscape:window-height="1048" inkscape:pageopacity="0.0" inkscape:window-width="1463" fit-margin-bottom="0" inkscape:current-layer="layer5" inkscape:window-y="77" fit-margin-right="0" inkscape:window-maximized="0" inkscape:window-x="1033" showgrid="false" borderopacity="1.0" bordercolor="#666666" inkscape:cy="535.70343" inkscape:zoom="0.58715953" fit-margin-left="0" inkscape:cx="684.37564" pagecolor="#ffffff" fit-margin-top="0">
	</sodipodi:namedview>
<g id="layer3" inkscape:groupmode="layer" inkscape:label="cross bars 5" display="none">
	<path id="path9280" inkscape:connector-curvature="0" display="inline" d="M706.2,520.7c-8.8-7.4-38.6-27.2-52.8-35
		c-15-8.2-28.4-14.6-52.8-24.8c-10.9-4.6-28.9-12.2-40-17s-20.9-8.8-21.6-9c-1-0.2-2.5,5.2-5.8,21.5c-7,34.5-9.9,44.6-12,42.5
		c-0.8-0.8,3.5-20.5,9.2-42.5c2.6-9.8,4.7-19.1,4.8-20.8c0.1-3-0.1-3.1-14.1-8.5c-14.5-5.6-49.7-17.5-77-26
		c-8.4-2.6-29.1-9.7-46.1-15.7s-32.3-11.1-33.9-11.3c-1.7-0.2-3.5-0.9-4-1.5c-1.1-1.3-14.9-6-52.2-17.9
		c-35.5-11.3-43.9-13.3-57.2-13.3c-10.5,0-11.5,0.1-16.7,3c-3.1,1.7-9.6,7.1-14.6,12.2c-8.9,9-9,9-4.1,2.7
		c6.1-7.9,12.5-13.7,19.2-17.2c4.6-2.4,6.1-2.7,15.7-2.6c6.2,0,14,0.8,18.7,1.9c16.7,3.7,70,20.9,120.1,38.8
		c35.1,12.5,57.6,20,78.5,26.1c23.7,6.9,53.6,18,87.6,32.4c11.4,4.8,30.6,12.8,42.6,17.7c12,4.9,26.3,10.9,31.9,13.4
		c30.9,13.7,85.6,49.5,85.6,55.9C715.1,527.3,711.9,525.5,706.2,520.7L706.2,520.7z M741.5,518.9c-7.2-11.7-18.6-26.2-25.8-33
		c-22.4-21-80.9-51-159-81.7c-63.9-25.1-153.3-55.1-235.7-79c-10.9-3.2-34.3-10.1-52.2-15.4c-43.7-13.1-39.9-12.3-45.7-8.9
		c-6.4,3.7-20.7,18.4-27.9,28.4c-3.2,4.4-8.3,13-11.5,19c-3.2,6-5.9,10.8-6.1,10.6c-0.7-0.7,1.9-8.5,5.3-15.7
		c4.7-10,13.4-21.2,25.3-32.7c7.8-7.6,11.7-10.5,17.7-13.4c27.2-12.9,62.8-22.5,128-34.6c76.5-14.2,123.1-19.7,156-18.5
		c17.4,0.6,24.3,1.5,38.5,4.9c10.5,2.5,15.5,2,25.5-2.9c5.2-2.5,7-2.8,15.1-2.8c14.2,0.1,19.6,3.4,26,16.1l2.6,5.1l19.6,4.4
		c10.8,2.4,38.4,8.7,61.5,13.9c39,8.9,42.2,9.5,46.5,8.4c2.5-0.6,5.6-2.2,6.9-3.5s4-2.6,6.1-3c4.8-0.9,19.9,1.2,25.5,3.6
		c4.8,2.1,9.8,8.3,11.6,14.3c0.6,2.1,1.7,4.3,2.3,4.7c0.6,0.5,6.1,1.9,12.2,3.2c17.4,3.6,54,12.5,72.9,17.7
		c45.4,12.4,117,39.4,153.8,58c28,14.2,41.2,25.3,52.6,44.4c13.5,22.7,17.9,31.9,15.2,31.9c-1.6,0-4-3.5-9.7-14
		c-5.5-10.2-14.9-24.9-16.5-25.9c-0.9-0.5-17,3-42.3,9.3c-8.9,2.2-27.2,6.6-40.5,9.8c-22.5,5.4-40.5,9.7-92.7,22.2
		c-42.4,10.2-94.2,22.3-126.6,29.5c-39,8.7-41.8,9.4-41.4,10.4c0.2,0.4,3.4,5.3,7.2,11s6.8,10.5,6.8,10.9c0,0.3-0.6,0.6-1.3,0.6
		C746.6,526.2,744,522.9,741.5,518.9L741.5,518.9z M759.8,493.9c29-5.9,57.8-12.6,164.6-38.5c25.6-6.2,65.7-15.8,88.9-21.3
		c41.3-9.8,57.4-14.1,60.5-16.2c2-1.4-1.7-4.6-17.3-15.1c-21.1-14.2-35.9-21.3-87.9-42.3c-49.7-20.1-61.4-23.9-111.8-36.3
		c-19.7-4.9-40.6-10-46.6-11.5c-9.9-2.5-10.7-2.6-10.3-0.9c0.3,1,1.2,1.8,2,1.8c0.8,0,13,3,27,6.7c14,3.7,31.2,8,38.1,9.7
		c19,4.4,26.3,6.8,26.3,8.4c0,0.8-1.3,2.4-2.8,3.6c-2.3,1.8-3.7,2.1-7.3,1.7c-4.2-0.5-48.9-12.3-50.6-13.3c-0.6-0.4-9.9-3-35-9.8
		c-3.9-1.1-9.9-2.1-13.3-2.4c-3.4-0.2-7.9-1.2-10-2c-2.1-0.9-4.8-1.6-6.2-1.6c-1.3,0-2.4-0.4-2.4-0.9c0-0.5-7.9-2.9-17.6-5.3
		l-17.6-4.3l-8.9,2.4l-8.9,2.4l16.1,4.2c23.9,6.3,38.3,10.6,39.4,11.8c0.7,0.7,0.4,0.9-1,0.5c-1.1-0.3-11.8-3.1-23.8-6.2
		s-24.7-6.5-28.4-7.5l-6.6-1.8l-26.8,6.8c-14.8,3.8-26.5,6.9-26.1,6.9c0.4,0.1,7,1.9,14.7,4.1c7.7,2.2,26.7,7.2,42.4,11.2
		s28.8,7.7,29.4,8.2c1.4,1.4-2.8,0.5-29.4-6.2c-25.6-6.5-55.8-14.8-58.1-16.1c-1.2-0.6-60.6,13.3-61.8,14.5
		c-0.3,0.3,16.7,5.4,41.8,12.3c15.3,4.2,21.7,6.6,18,6.6c-1.9,0-18.5-4.3-42.6-11.2l-22.6-6.4l-9.8,2.3c-5.4,1.3-15.5,4.6-22.3,7.4
		c-10,4.1-12.8,5.7-13.9,7.9c-2.3,4.4-1.8,9.4,1.1,12.9c1.8,2.1,2.2,3.2,1.3,3.5c-0.9,0.4-0.8,0.5,0.2,0.6c0.8,0,4.9,1.5,9.1,3.2
		c4.2,1.7,11.2,4.6,15.7,6.4c19.4,7.9,33.6,14.2,35.2,15.6c2.2,1.9,2.3,4.6,0.2,6.7c-3,3-10,2-21.1-3.1
		c-15.6-7.2-51.5-21.6-53.8-21.6c-3.3,0-10.7-2.6-17.2-6c-10.8-5.6-85.6-31.5-132.2-45.7c-7.5-2.3-14.8-4.6-16.2-5
		c-1.4-0.5-7.1-2.1-12.7-3.6c-5.6-1.5-13.3-3.8-17.2-5.1c-3.9-1.3-16-4.7-26.8-7.6c-37.7-10-35.9-9.5-36.3-11.8
		c-0.4-3,3.4-5.4,8.5-5.4c4.2,0,23.6,3.9,42.8,8.6c5.7,1.4,11.9,2.8,13.7,3.1c1.8,0.3,5.3,1.2,7.8,2c5.9,1.9,16.5,4.5,18,4.5
		c0.6,0,1.4-0.9,1.8-2.1c1.1-3.4,12.5-16.1,15-16.5c1.2-0.2,5.7-1,9.8-1.7c9.9-1.6,17.8-3.8,14-3.9c-2.6-0.1-11.3-3-10.7-3.6
		c0.2-0.2,4.2,0.7,8.9,1.9c5.9,1.5,10,2,13.2,1.6c4.6-0.6,22.2-4.7,32.1-7.4c2.9-0.8,6.6-1.7,8.1-1.9s8.5-1.9,15.5-3.6
		c31.4-7.8,50.6-12.3,52.3-12.3c1.8,0,1.8-0.1,0.1-1.1c-1-0.6-2.2-0.8-2.8-0.4c-0.6,0.3-1.7-0.1-2.6-1c-1.9-1.9-2-1.9,4.3-0.1
		c3.6,1.1,5.9,1.2,7.5,0.6c1.3-0.5,1.8-1,1.1-1c-0.7,0-1.3-1-1.3-2.1c0-3.3,4.4-4.4,12.4-3.1c16.5,2.7,13.7,0.4-4-3.4
		c-9.7-2-15.3-2.6-25.6-2.6c-49.9,0-150.8,14.1-213.8,29.9c-35.3,8.8-61.8,17.2-61.8,19.5c0,0.4,7,2.4,15.5,4.5
		c8.5,2.1,23.4,6,33.2,8.8s26.6,7.5,37.5,10.5c41.1,11.5,124.6,39,185.4,61c92.6,33.5,165.1,67.4,199.8,93.5
		c9.2,6.9,24.1,21.5,24.1,23.5C730.3,499.6,734.1,499.1,759.8,493.9L759.8,493.9z M602.6,405.2c1.6-2,0.7-3.3-3.8-5.2
		c-34.8-14.8-59.6-24.7-61.8-24.7c-3.2,0-7.9,2.9-6.6,4.1c0.5,0.4,8.6,3.9,18.1,7.6c9.5,3.8,23.6,9.7,31.4,13.3
		C594.4,406.8,600.3,408.1,602.6,405.2L602.6,405.2z M526.2,377.3c0.3-0.6,3.1-2.2,6.1-3.7l5.5-2.7v-6.5c0-9.3,1.6-11.1,13.6-15.5
		c5.3-1.9,9.7-4,9.7-4.5c0-2.8-3.3-5.5-6.6-5.5c-5.6,0-18.3,4.5-23.7,8.5c-6.5,4.8-14.1,13.2-17.3,19.1l-2.5,4.6l2.5,2.1
		C518.4,377.4,524.8,379.5,526.2,377.3L526.2,377.3z M508.9,368.2c0.9-1.6,1.5-3.2,1.5-3.5c0-2.3-110.5-40.7-120.2-41.8
		c-5.1-0.6-12.6,1.7-12.6,3.8c0,0.5,7.4,3.2,16.5,6c22.2,7,78.8,26.1,97.5,32.8c8.4,3,15.3,5.5,15.4,5.6S508.1,369.9,508.9,368.2
		L508.9,368.2z M512.5,361.2c0-1.6,8.3-10.3,14-14.6c7.3-5.5,23-10.3,31-9.5c3,0.3,6.6,0,8.7-0.7l3.5-1.3l-12.2-3.8
		c-6.7-2.1-25.8-8-42.6-13.2c-29.3-9.1-34.7-10.7-58.5-17.9c-6-1.8-10.7-3.5-10.5-3.7c0.6-0.6,25.2,6.5,76.6,22.2
		c25.4,7.8,47.7,14.3,49.6,14.7c2.5,0.4,11.6-1.4,30.4-6.1c14.8-3.7,27.7-7,28.8-7.5c1.4-0.6-1.1-1.7-9.6-4.2
		c-6.3-1.9-20.4-6.1-31.3-9.3c-22.5-6.8-23.6-7.2-43.3-13.1c-7.9-2.4-14.2-4.5-14-4.8c0.2-0.2,13.1,3.3,28.6,7.9
		c39.5,11.6,63.7,18.8,70.2,20.6l5.5,1.6l21.8-5.6c12-3.1,23.6-6.1,25.9-6.7l4.1-1.1l-8.1-2.3c-4.5-1.3-12.7-3.5-18.2-5
		c-5.6-1.5-20.4-5.7-32.9-9.2c-38.8-10.9-62-17.1-73.5-19.7c-4.5-1-10.2-2.4-12.7-3c-4.4-1.1-7-0.6-58.7,12.4
		c-29.8,7.5-53.5,13.9-52.7,14.3c0.8,0.4,0.3,0.4-1.1,0.2c-2.2-0.4-13.2,1.9-21.8,4.6c-1.7,0.5-6.3,1.9-10.4,3c-7,2-7.4,2.2-8.5,6
		c-1.3,4.3-0.6,9.7,1.6,12.5c0.9,1.1,14.8,6.4,37.2,13.9c19.7,6.6,46.1,15.9,58.6,20.6C512.8,362.6,512.5,362.5,512.5,361.2
		L512.5,361.2z M438,294.8c-2.2-0.7-3.1-1.3-2-1.4c1.1,0,3.6,0.6,5.6,1.3C446.2,296.5,443.4,296.5,438,294.8L438,294.8z
		 M525.7,286.6c-2-0.8-2.9-1.4-2-1.4c0.8,0,3.1,0.6,5.1,1.4c2,0.8,2.9,1.4,2,1.4S527.6,287.4,525.7,286.6z M514,283.1
		c-1.3-0.6-1.5-0.9-0.5-0.9c0.8,0,2.2,0.4,3,0.9C518.4,284.3,516.8,284.3,514,283.1L514,283.1z M613.7,331.3
		c27.1-6.9,69.3-17.6,93.9-23.8c43.8-11,51.2-13.2,51.2-15.2c0-2.1-2.3-2-13.3,1c-6.3,1.7-13.3,3.5-15.6,4
		c-2.2,0.5-15.7,3.8-29.9,7.5c-14.2,3.6-51.1,13-82,20.9c-30.9,7.9-56.3,14.4-56.5,14.6c-0.6,0.6,1,3.6,2,3.6
		C563.9,343.9,586.6,338.2,613.7,331.3L613.7,331.3z M886.3,340.7c2.6-0.9,3-1.3,1.8-2c-0.8-0.5-14.5-4.2-30.3-8.4
		c-15.8-4.1-32.1-8.5-36.3-9.7c-15.6-4.4-29.3-7.4-30.8-6.8c-2.1,0.8-2,2.7,0,2.7c0.9,0,4.9,0.9,8.9,2c4,1.1,10.9,2.9,15.4,4
		c4.5,1.1,10.8,3,14.2,4.1c3.3,1.1,16.3,4.8,28.9,8.2c12.5,3.4,23,6.3,23.2,6.6C881.9,342.1,882.7,341.9,886.3,340.7L886.3,340.7z
		 M380.2,321.5c3.7-1.7,7.3-2.8,7.8-2.4c0.7,0.5,0.8-0.4,0.2-2.8c-1.4-5.6-0.9-9.6,1.6-13.2c1.9-2.7,3.8-3.8,9.8-5.7
		c8.2-2.6,9.1-3.3,7.6-6c-0.9-1.7-1.6-1.8-10.9-0.6c-5.5,0.7-10.1,1.3-10.3,1.3c-0.2,0,0,0.5,0.3,1c0.3,0.6-0.9,0.7-3,0.4
		c-3.2-0.5-4-0.2-7.4,3.4c-5.6,5.9-11.4,14.4-13,18.9c-0.8,2.2-1.3,4.1-1.1,4.3c0.7,0.7,9.4,4.4,10.5,4.4
		C372.9,324.6,376.5,323.2,380.2,321.5L380.2,321.5z M359,316.9c0.9-2,1.4-3.8,1.3-4c-0.7-0.6-50.4-12.7-64.5-15.7
		c-11.9-2.5-16.5-3.1-19.2-2.4c-1.9,0.5-3.7,1.4-3.9,2c-0.2,0.6,13.4,4.8,32.9,10c18.3,4.9,37.1,10,41.8,11.3s8.9,2.4,9.4,2.4
		C357.1,320.5,358.2,318.9,359,316.9L359,316.9z M786.3,313.5c1.4-1.1,3.7-2.5,5.2-3c3.4-1.3,3.4-3.9,0-10.2
		c-4.5-8.3-11.4-11.9-26.2-13.7c-2.8-0.3-6.2-0.2-7.6,0.4c-1.8,0.7-2,1-0.7,1.1c1,0,2.6,1,3.5,2.1c1.4,1.6,3,2,8.1,2
		c5.8,0,13.4,2,13.4,3.6c0,0.4-1.5,0.3-3.3-0.1c-2.9-0.6-3.1-0.5-2,0.8c0.7,0.9,1.2,3.2,1,5.2c-0.2,3-0.9,4.1-3.6,5.6
		c-5.2,3.1-4.7,3.8,4.3,6.9C782.9,315.8,783.5,315.7,786.3,313.5L786.3,313.5z M768.5,308.9c0.2-0.6-4-2.1-9.5-3.4
		c-5.4-1.3-11-2.9-12.4-3.5c-1.9-0.9-3.6-0.9-7.1-0.1c-4.8,1.2-4.4,1.6,2.5,2.9c6.9,1.3,8.4,1.6,15.7,3.5
		C765.9,310.4,768,310.5,768.5,308.9L768.5,308.9z M772.9,304.3c0-0.5-2.6-1.4-5.8-2c-3.2-0.7-7.9-1.8-10.4-2.4s-5.7-0.9-7.1-0.5
		l-2.5,0.7l3,0.7c1.7,0.4,6.9,1.7,11.7,2.9C770.1,305.9,772.9,306,772.9,304.3L772.9,304.3z M704.5,301.4l7.1-1.9l-4.1-1.1
		c-4.7-1.3-53-12.5-77-17.9c-8.9-2-17.9-4.1-20-4.7c-2.1-0.6-5.5-1.3-7.6-1.5c-6.4-0.8-15.8-2.7-17.5-3.6c-0.9-0.4-7.8-2.2-15.4-3.8
		c-7.6-1.7-14.7-3.5-15.9-4.2c-2.1-1.1-9.2-0.4-9.2,0.9c0,0.4,10.1,3.3,22.5,6.4c27.3,6.9,51.1,13.2,91.9,24.4
		c17,4.7,32.5,8.5,34.4,8.6C695.8,303.3,700.6,302.5,704.5,301.4L704.5,301.4z M775.9,300c0-4.1-1.6-5.3-6.8-5.2
		c-2.7,0-6.6,0.7-8.7,1.5l-3.8,1.4l8.9,2.2c4.9,1.2,9.2,2.2,9.7,2.3S775.9,301.3,775.9,300L775.9,300z M721.2,297.3
		c2.4-0.7,2.3-0.8-1.5-1.9c-2.2-0.6-12.9-3.2-23.8-5.9c-10.9-2.6-29.8-7.2-42-10.1s-25.8-6.1-30.1-7.1s-8.1-2.1-8.4-2.6
		c-0.9-1.4-5.8-1-8,0.6c-1.1,0.8-1.8,1.6-1.5,1.8c0.4,0.3,10.1,2.6,46.5,10.9c4.7,1.1,20.9,4.9,36,8.5
		C717.1,298.5,717.2,298.5,721.2,297.3L721.2,297.3z M453.7,284.1c19.2-5,54.1-13.9,77.5-19.8c46.8-11.8,49.1-12.5,49.1-14.4
		c0-1.8-1.7-1.7-8.7,0.8c-3.3,1.1-9.9,2.9-14.6,4c-30.1,6.6-144.7,35.2-146.2,36.5c-0.4,0.4-0.5,1.4-0.2,2.3
		C411.4,295.2,407.6,296,453.7,284.1L453.7,284.1z M733.4,294.3c3.2-1,2.4-1.2-10.1-4c-5.3-1.2-16.9-3.7-25.8-5.6
		c-51.6-11.2-77.9-16.7-78.3-16.4c-0.5,0.5,0.8,0.9,11.9,3.5c4.7,1.1,15.7,3.7,24.3,5.8c8.6,2.1,28.2,6.8,43.6,10.6
		C727.9,295.3,729.2,295.5,733.4,294.3z M604.9,268.9c2.3-1.7,5.1-3,6.1-3c3,0,3.4-2.8,1-7.6c-2.6-5.4-7.2-8.9-14.3-11
		c-5.2-1.5-14.3-2.2-14.3-1.1c0,0.3,0.9,1.5,2.1,2.6c1.5,1.5,3.7,2.2,8,2.4c5.5,0.3,11.2,2.7,11.2,4.7c0,1.5-2.2,2.2-3.3,1.1
		c-1.8-1.8-3.4-1.3-4.7,1.6c-0.7,1.5-3.1,4.3-5.3,6.2c-2.2,1.9-3.7,3.7-3.4,4.1c0.6,0.6,8.8,2.8,11.4,3.1
		C600.1,271.9,602.6,270.6,604.9,268.9z M587,265c-0.3-0.3-5.7-1.8-11.9-3.4c-8.6-2.2-12.3-2.7-15-2.1c-3.4,0.8-3.4,0.9-1.4,2
		c3.9,2.1,26.1,6.2,27.5,5C587,266,587.3,265.3,587,265L587,265z M591.4,261.9c1.2-0.8-2.1-1.8-16.6-5.2c-2.2-0.5-5.9,0-5.2,0.8
		c0.6,0.6,16.1,4.6,19.9,5.2C589.8,262.8,590.6,262.4,591.4,261.9z M595,257.2c0.9-2.5,0.8-3.2-1-3.9c-1.7-0.6-16,1.4-15.2,2.1
		c0.8,0.8,10.2,3.1,12.9,3.2C593.3,258.7,594.6,258.1,595,257.2L595,257.2z M540.4,255.8c1.6-0.6,1-0.9-2.6-1.5
		c-4.9-0.7-8.4,0-7.5,1.5C531,256.9,537.5,256.9,540.4,255.8L540.4,255.8z M336.2,432.1c0-1.8,5.3-15.6,11.6-30.3
		c9.5-22.1,11.7-26.8,12.2-26.3c0.3,0.3-3.7,10.9-8.8,23.7c-5.1,12.8-10.1,25.6-11.2,28.5C338.3,432.4,336.2,434.8,336.2,432.1z"/>
</g>
<g id="layer4" inkscape:groupmode="layer" inkscape:label="cross bars 6" display="none">
	
		<path id="path9348" inkscape:connector-curvature="0" sodipodi:nodetypes="ssssssssssssssssssssssssssssssssssssscsssssssssscsssssssccssssssssssscsscscssssssscssssssssssccssssssscsssssssssssssssssssssssssscsscsssssscsssccscssscssssssccsssscssssssscsssssssssssssccssssssssssssssssssscssssssscsssssssssscsssssssssscscccccsssssscssssscsssssssssssssscssssscssscssssscsscsssscssscsssssscsscscssssssssssscssssssssccsssssscssssssssssssscssssscsssssccscssssssssccsssssssscsscscssssssssssssssssssscssssssssssss" display="inline" d="
		M706.8,520.9c-8.8-7.4-38.7-27.2-52.8-35c-15-8.3-28.4-14.6-52.8-24.8c-10.9-4.6-28.9-12.2-40.1-17c-11.2-4.8-20.9-8.9-21.7-9
		c-1-0.2-2.5,5.2-5.8,21.5c-7,34.5-9.9,44.7-12,42.5c-0.8-0.8,3.5-20.6,9.2-42.5c2.6-9.8,4.7-19.1,4.8-20.8c0.1-3-0.1-3.1-14.1-8.5
		c-14.5-5.6-49.8-17.5-77.1-26c-8.4-2.6-29.1-9.7-46.2-15.7c-17-6-32.3-11.1-34-11.3c-1.7-0.2-3.5-0.9-4-1.5
		c-1.1-1.3-14.9-6-52.2-17.9c-35.6-11.4-44-13.3-57.3-13.3c-10.5,0-11.5,0.1-16.7,3c-3.1,1.7-9.6,7.1-14.6,12.2c-8.9,9-9,9-4.1,2.7
		c6.1-8,12.5-13.7,19.2-17.2c4.6-2.4,6.1-2.7,15.7-2.6c6.2,0,14.1,0.8,18.8,1.9c16.7,3.7,70,20.9,120.2,38.8
		c35.2,12.6,57.6,20,78.6,26.2c23.8,7,53.7,18,87.7,32.5c11.4,4.8,30.6,12.8,42.6,17.7c12,4.9,26.4,11,32,13.4
		c30.9,13.7,85.7,49.5,85.7,56C715.8,527.5,712.5,525.7,706.8,520.9z M742.2,519.1c-7.2-11.7-18.6-26.3-25.9-33
		c-22.4-21-81-51.1-159.2-81.8c-64-25.2-153.5-55.2-236-79.1c-10.9-3.2-34.4-10.1-52.2-15.5c-43.7-13.1-39.9-12.3-45.7-8.9
		c-6.4,3.7-20.7,18.4-28,28.5c-3.2,4.4-8.3,13-11.5,19c-3.2,6-6,10.8-6.2,10.6c-0.7-0.7,1.9-8.5,5.3-15.7
		c4.7-10,13.4-21.2,25.3-32.8c11.2-10.9,15.5-13.3,39.1-22.1c28.9-10.8,87.1-23.5,163.6-35.7c64.5-10.2,109.5-11.6,137.1-4.1
		c2.3,0.6,9.1,2,15.1,3.1c10.2,1.8,11.6,1.9,23.1,0.5c6.7-0.8,12.7-1.9,13.3-2.4c3-2.4,13.9-1.7,25.1,1.5c3.1,0.9,7.9,6.8,9.8,12
		l1.9,5.1l10,2.3c5.5,1.3,29.2,6.6,52.6,11.9s43.5,10.1,44.6,10.6c1.1,0.5,4.8,1.6,8.1,2.3c7.9,1.7,23.5,0.1,29.4-3.1
		c2.3-1.2,5.8-2.2,8.1-2.1c6.2,0.1,19.1,2.6,22.7,4.5c3.9,2,8.9,8.6,10.5,14c0.7,2.2,1.7,4.2,2.3,4.4c0.6,0.2,10.2,2.6,21.4,5.4
		c33.2,8.1,53.3,13.9,80.6,23.1c40.2,13.5,84.9,31.5,110.8,44.7c28.1,14.2,41.3,25.4,52.7,44.5c13.6,22.7,17.9,31.9,15.2,31.9
		c-1.6,0-4-3.5-9.7-14c-5.6-10.2-14.9-24.9-16.6-25.9c-0.9-0.5-17,3-42.3,9.3c-8.9,2.2-27.2,6.6-40.6,9.8
		c-22.5,5.4-40.5,9.7-92.8,22.3c-42.5,10.2-94.3,22.3-126.8,29.5c-39,8.7-41.8,9.4-41.4,10.4c0.2,0.4,3.4,5.3,7.2,11
		c3.8,5.7,6.8,10.6,6.8,10.9c0,0.3-0.6,0.6-1.3,0.6C747.3,526.4,744.7,523.1,742.2,519.1L742.2,519.1z M760.4,494
		c29.1-5.9,57.8-12.6,164.8-38.6c25.7-6.2,65.7-15.8,89-21.4c41.4-9.8,57.5-14.1,60.6-16.2c1.3-0.9,0.9-1.6-2-4.1
		c-5.4-4.7-25.9-18.3-35.7-23.6c-22.4-12.2-96.2-42.3-130.2-53.1c-17.8-5.6-79.5-20.8-81.8-20.1c-1.1,0.4-1.8,0.9-1.6,1.1
		c0.6,0.6,27.8,7.8,43.8,11.6c19.5,4.6,26.9,6.9,26.9,8.5c0,0.8-1.3,2.4-2.8,3.6c-2.3,1.8-3.7,2.1-7.4,1.7
		c-4.8-0.6-35.4-8.7-54.3-14.4c-6.1-1.8-16-4.4-21.8-5.6c-5.9-1.2-12.5-2.9-14.7-3.7c-4.6-1.7-42.3-11.2-46.2-11.7
		c-3.2-0.4-20.1,2.2-20.7,3.1c-0.2,0.4,1.9,1.3,4.8,2.1c13.8,3.5,36.8,10.4,37.7,11.4c0.7,0.7,0.4,0.9-1,0.5
		c-4.4-1.2-46.8-12.2-48.9-12.6c-2.6-0.5-12.7,1.4-36.3,6.9c-19.3,4.5-20.3,4.8-19.6,5.5c0.8,0.8,20.4,6.2,50.5,13.8
		c15.3,3.9,28.3,7.5,28.9,8.1c0.6,0.6-0.3,0.7-2.5,0.3c-7.5-1.4-36.3-8.7-57.6-14.6c-12.2-3.4-23.6-6.1-25.2-6.1
		c-2.7,0-17.6,2.8-36.9,7.1c-4.7,1-12.7,2.7-17.6,3.7c-5.3,1-8.4,2.1-7.6,2.5c1.5,0.8,13.7,4.4,39.9,11.6
		c15.4,4.2,21.7,6.6,17.9,6.6c-2,0-15.9-3.7-41.2-10.9c-15.9-4.5-24.2-6.4-26.4-6c-11.2,2-19,4.1-23.4,6.2
		c-2.8,1.3-8.2,3.7-11.9,5.2c-4,1.6-7.4,3.6-8,4.9c-0.6,1.2-1.4,5.2-1.8,9c-0.6,6.6-0.5,6.8,1.9,7.8c8,3,17.2,6.7,28.9,11.6
		c33.8,14,35,14.6,35,18c0,3.1-2.9,5-7.8,5c-3.4,0-7.6-1.3-15.9-5.2c-19-8.7-52.6-21.9-57.5-22.5c-2.6-0.3-7.8-2.3-11.7-4.3
		c-13-6.8-76.8-28.8-143.4-49.4c-3.6-1.1-9.6-2.6-13.2-3.3c-3.6-0.7-10.3-2.7-14.8-4.4c-4.5-1.7-18.6-5.9-31.4-9.3
		c-12.8-3.5-26.9-7.3-31.4-8.5c-6.6-1.8-8.2-2.6-8.4-4.4c-0.4-3,3.4-5.4,8.5-5.4c4.6,0,24.5,4.1,46.4,9.5l14,3.5l1.4-2.7
		c0.8-1.5,4.1-5.5,7.3-9c5.1-5.4,6.5-6.3,9.5-6.4c1.9,0,7-0.9,11.1-2c4.2-1.1,10.3-2,13.7-2c3.3,0,9.1-0.7,12.7-1.5
		c3.6-0.8,13-2.6,20.8-4.1c40.1-7.3,55.3-9.8,70.4-11.6c20.4-2.5,46.6-6.2,29.8-8.4c-0.5-0.1,0.5-0.6,1.4-0.4c0.8,0.2,3.3,1,6.1,1.3
		c5.2,0.5,5.2,0.5,4.7-2.1c-0.8-4.1,3.2-5.2,13.6-3.6c4.6,0.7,12.2,2.5,12.2,2.5l6.4-0.5c3.9-0.7,4.8-0.2,2.2-0.5
		c-1.7-0.1-4.3-0.8-4.9-0.7c-0.6,0.1-7.3-1.3-14.7-3c-10.6-2.5-16.7-3.3-27.8-3.7c-44.7-1.6-152.1,13-218.5,29.6
		c-35.3,8.8-61.9,17.2-61.9,19.6c0,0.4,7,2.4,15.5,4.5c8.5,2.1,23.5,6,33.2,8.8c9.8,2.7,26.7,7.5,37.5,10.5
		c41.1,11.6,124.7,39.1,185.6,61.1c92.7,33.5,165.3,67.4,200.1,93.6C716,481.4,731,496,731,498C731,499.7,734.7,499.2,760.4,494
		L760.4,494z M603.2,405.2c1.1-1.3,1-1.8-0.1-2.9c-0.8-0.7-12.4-5.9-25.8-11.5c-38.1-15.9-40.1-16.7-43.7-16
		c-2.9,0.5-6.4,3.1-5.4,3.9c0.2,0.2,8.8,3.6,19.2,7.7s25.2,10.3,33,13.8C595.1,406.9,600.8,408.1,603.2,405.2L603.2,405.2z
		 M527.1,375.8c1.3-1.4,3.8-3,5.6-3.6c3-1,3.3-1.5,4.4-7.8c1.6-9.6,3.3-11.3,14.8-15.5c5.4-2,9.8-4.2,9.8-4.9c0-0.7-0.9-2.2-2.1-3.4
		c-2.6-2.6-6.7-2.3-17.9,1.1c-6.5,2-7.2,2.5-6.1,3.9c1.1,1.4,1,1.5-0.7,0.8c-3.5-1.5-8.3-1.8-10.4-0.7c-1.8,1-9.3,14.4-9.3,16.7
		c0,0.5-0.9,2-2,3.4c-3.1,3.9-2.5,5.6,3.3,9.1C522.6,379,524,379.1,527.1,375.8z M509.6,366.9c1.1-2.7,1-2.9-2.6-4.4
		c-8.3-3.5-62.2-22.7-70.7-25.3c-5-1.5-18-5.6-28.9-9.1c-25.5-8.3-43.7-13.7-45.7-13.7c-2,0-6.4,4.6-5.6,5.9c0.3,0.5,3,1.7,5.9,2.6
		c39.2,11.8,94.8,30.1,130.1,42.7c8.4,3,15.5,5.2,15.8,4.8C508.2,370,509,368.5,509.6,366.9L509.6,366.9z M517.4,352.5
		c4-8,5.3-9,13.8-10.3c2.5-0.4,8.2-1.8,12.6-3.1s10.6-2.4,13.7-2.4c6,0,10.2-0.8,10.2-1.9c0-0.4-16.8-5.9-37.3-12.2
		c-39.3-12.2-43-13.3-68.5-20.9c-8.8-2.6-15.8-5-15.5-5.2c0.7-0.7,25.3,6.5,76.7,22.2c26.4,8.1,48.1,14.2,50.7,14.3
		c2.5,0.1,13-1.8,23.3-4.2c29.7-6.9,31.7-7.4,36.4-8c4.5-0.6,4.4-0.6-7.1-4c-38-11.3-59.6-17.8-61.8-18.6c-1.4-0.5-9-2.8-17-5.2
		c-7.9-2.4-14.3-4.5-14-4.7c0.2-0.2,13.1,3.3,28.7,7.9c15.5,4.6,37.6,11,49,14.4s22.5,6.7,24.7,7.4c3.4,1.3,4.9,1.2,12.7-0.5
		c17.9-3.8,20-4.4,21-5.1c0.6-0.4,4.7-1.3,9.1-2c4.5-0.6,10.8-1.7,14.2-2.4l6.1-1.3l-4.2-0.7c-2.3-0.4-8-1.8-12.7-3.1
		c-4.7-1.3-13.1-3.6-18.7-5.2s-18.8-5.2-29.4-8.2c-34.8-9.8-44.9-12.5-83.2-22.4c-10.9-2.8-21-2.3-44.1,2.2
		c-7,1.4-17.9,3.4-24.3,4.5c-6.4,1.1-19.9,3.6-29.9,5.4c-10,1.9-23.2,4.2-29.1,5.2c-6.9,1.1-10.6,2.2-10.2,2.8c0.4,0.6,0,0.8-1,0.4
		c-2.3-0.9-21.9,2.2-25,3.9c-1.4,0.8-6.1,2.6-10.5,4.2c-7.5,2.6-8.1,3-9.8,7c-1,2.3-2,5.6-2.2,7.2c-0.3,2.9-0.3,2.9,11.8,6.3
		c28.1,7.8,102.8,33,132.4,44.6C512.2,362.2,513,361.4,517.4,352.5L517.4,352.5z M438.8,295c-2-0.5-5.3-1.4-7.5-2
		c-2.1-0.6-3.7-1.2-3.4-1.5c0.5-0.5,16.1,3.4,16.9,4.2C445.5,296.4,442.7,296.1,438.8,295z M416.3,288.4c0.7-0.3,1.6-0.3,1.9,0.1
		c0.3,0.3-0.3,0.6-1.3,0.5C415.8,288.9,415.5,288.7,416.3,288.4L416.3,288.4z M526.1,286.5c-2-0.8-2.9-1.4-2-1.4
		c0.8,0,3.1,0.6,5.1,1.4s2.9,1.4,2,1.4C530.3,287.9,528,287.3,526.1,286.5z M514.4,283c-1.3-0.6-1.5-0.9-0.5-0.9
		c0.8,0,2.2,0.4,3,0.9C518.8,284.2,517.2,284.2,514.4,283L514.4,283z M576.9,340.4c7.5-1.9,27.5-6.3,44.5-9.7
		c17-3.5,31.2-6.6,31.4-6.9c0.3-0.4,1.2-0.7,2-0.8c2-0.2,17.1-3.4,35.5-7.3c25.6-5.5,35.9-7.5,54.8-10.3c3.1-0.5,9.5-1.5,14.2-2.4
		c4.7-0.9,12.1-1.9,16.4-2.2c8.6-0.8,11.5-1.8,9.1-3.4c-0.8-0.5-2.8-0.7-4.6-0.5c-1.7,0.2-10.9,1.4-20.4,2.5
		c-9.5,1.2-19.3,2.5-21.8,3.1c-2.5,0.5-8.9,1.6-14.2,2.4c-20.7,3.3-58.8,10.9-65.9,13.2c-2.5,0.8-8.7,2.1-13.7,2.9
		c-5,0.8-10.5,1.9-12.2,2.5c-3.8,1.4-52.6,12.1-60.9,13.4c-10.8,1.6-10.6,1.6-9.3,4.4c0.6,1.4,1.2,2.5,1.3,2.5
		C563.3,343.8,569.5,342.3,576.9,340.4L576.9,340.4z M887.2,340.7c2.6-0.9,3-1.3,1.8-2c-0.8-0.5-14.7-4.3-30.8-8.6
		c-16.1-4.2-31.5-8.4-34.3-9.2c-6.3-1.8-10.4-2-11.8-0.6c-0.7,0.7,0.9,1.5,5.4,2.6c3.5,0.9,9.2,2.5,12.5,3.7
		c3.3,1.2,16.4,4.9,28.9,8.2c12.5,3.4,23,6.3,23.2,6.6C882.7,342,883.5,341.9,887.2,340.7L887.2,340.7z M359.7,312.4
		c2.1-0.9,3.1-2,3.1-3.4c0-3,3.4-9.9,5.7-11.9c1.1-0.9,5.3-2.7,9.5-4c4.2-1.3,7.8-2.5,8-2.6c0.2-0.1,0-1.1-0.3-2.3
		c-1.1-3.5-4-4.4-10-3.2c-9.3,2-12.9,3.2-12.4,4c0.3,0.5-1.4,0.6-3.8,0.4c-5.1-0.6-7.3,1.1-11.5,8.6c-1.5,2.7-4,6.9-5.5,9.4
		c-4.6,7.4-4.4,7.9,3.1,10.5l6.6,2.2l2.2-3.1C355.6,315.1,358,313.1,359.7,312.4L359.7,312.4z M811.1,318c2.5-0.8,5.8-1.7,7.4-2.1
		c2.2-0.4,2.8-1.1,2.8-3.2c0-3.7-5.4-11.7-10-14.9c-6-4.1-21.5-6.9-27-4.8c-1.8,0.7-1.8,0.8,0.7,1.5c1.5,0.4,3,1.5,3.3,2.6
		c0.4,1.3,1.5,1.9,3.4,1.8c6.7-0.2,12,0.5,13.8,1.9c1.1,0.8,1.6,1.8,1.3,2.2c-0.4,0.4-1.2,0.2-1.9-0.5c-1.9-1.9-2.6-1.4-3.3,2.4
		c-0.4,2-2.3,5.4-4.3,7.6l-3.6,4l2.4,0.9c1.3,0.5,3.1,1.1,3.9,1.5C802.7,319.8,806.5,319.5,811.1,318L811.1,318z M791.5,313.8
		c0.7-2.2-32.1-9.2-36.1-7.7c-1.9,0.7,1.2,1.7,15.2,5.1C789,315.4,790.9,315.7,791.5,313.8z M337.1,310.9c1.3-4.1,1.9-3.7-15.4-8
		c-24.1-5.9-41.4-9.1-45-8.1c-1.9,0.5-3.7,1.4-3.9,2c-0.3,0.9,57.7,17.3,62.2,17.6C335.6,314.4,336.5,312.8,337.1,310.9L337.1,310.9
		z M796.6,309c-0.7-2.2-25.8-6.7-28.5-5c-0.6,0.3,4.9,1.9,12,3.5c7.2,1.6,13.2,3.1,13.5,3.3C794.5,311.6,797,310.1,796.6,309
		L796.6,309z M799.2,304.3c0.9-3.4-1.5-4.3-8-3.1c-3.2,0.6-6.1,1.1-6.4,1.2c-0.5,0.1,10.6,3.3,13.3,3.8
		C798.4,306.3,798.9,305.4,799.2,304.3z M715,304.1c7.6-1.2,7.8-1.2,4.9-2.5c-1.7-0.7-18.9-5-38.3-9.5c-52.8-12.3-55.9-13-65.2-14.7
		c-4.7-0.9-15.9-3.4-24.9-5.5c-41.4-10-42.2-10.1-44.9-8.4c-0.8,0.5,7.4,3,21.3,6.5c24.4,6.2,43.4,11.1,58.6,15.3
		c50.1,13.8,73.2,19.8,76.6,19.8C705.3,305.3,710.7,304.8,715,304.1L715,304.1z M736.6,300.3c2.8-0.6,2.5-0.8-3-2
		c-5.7-1.3-19.5-4.6-78.8-18.9c-22.6-5.5-29.2-6.3-29.2-3.6c0,0.5,5.1,2.1,11.4,3.6c6.3,1.5,13.2,3.1,15.5,3.6
		c2.2,0.5,17.8,4.2,34.5,8.1c16.7,3.9,32.5,7.8,35,8.6C726.7,301.2,731.6,301.4,736.6,300.3L736.6,300.3z M752,297.7
		c0.1-0.1-12.2-3.1-27.4-6.5c-55.7-12.8-86.2-19.5-86.7-19c-0.7,0.7,7,2.7,34.2,9.2c13.1,3.1,34.8,8.4,48.2,11.7
		c17,4.2,25.4,5.8,27.9,5.4C750.2,298.2,751.9,297.8,752,297.7L752,297.7z M395.2,287.5c3.1-0.9,10.8-2.4,17.2-3.4
		c6.4-1,16.9-2.8,23.3-4c6.4-1.2,17.4-3.1,24.3-4.2c21.7-3.6,39.9-6.8,44.9-8c5.9-1.4,30.2-5,38.7-5.7c0,0,18.1-2.6,26.5-3.9
		c5.6-0.8,15.3-1.8,21.6-2.2c10.6-0.7,13.7-1.6,9.8-3.1c-0.9-0.3-7.8,0.2-15.5,1.1s-20.6,2.3-28.9,3.1c-14.7,1.4-27.6,3.1-38.8,5.1
		c-16.4,3-33.4,5.9-48.2,8.1c-9.8,1.5-20.8,3.3-24.6,4.1s-8.8,1.6-11.2,1.9c-2.4,0.3-9.8,1.6-16.5,3c-6.7,1.3-16.5,3-21.8,3.7
		c-5.3,0.7-9.8,1.4-10,1.5c-0.8,0.6,1.1,4.5,2.2,4.4C389.1,289,392.2,288.3,395.2,287.5L395.2,287.5z M623.9,273.5
		c1.7-1.3,4.6-2.7,6.4-3.1c4.2-0.9,4.7-2.6,2.2-7.3c-3-5.8-8.2-10-14.9-11.9c-5.5-1.6-14.4-2.3-14.4-1.1c0,1.6,4.9,5,7.5,5.2
		c6.2,0.6,9.6,1.5,10.3,2.6c0.5,0.8,0.1,0.9-1,0.5c-1.3-0.5-2.1,0.3-3.2,3c-0.8,2-3.4,5.3-5.8,7.4l-4.3,3.8l6.6,1.5
		c3.6,0.8,6.8,1.6,7,1.7C620.5,275.8,622.1,274.8,623.9,273.5L623.9,273.5z M605.5,270.3c-0.1-0.5-4.2-2-9.1-3.3s-12.6-3.3-17-4.4
		c-6.1-1.6-9.5-1.9-13.7-1.4c-5.2,0.7-5.4,0.8-2.5,1.6c1.7,0.5,6.9,1.6,11.7,2.5c4.7,0.9,9.5,2,10.7,2.5
		C592,270.8,606,272.6,605.5,270.3L605.5,270.3z M610.5,266.4c1.5-1.1-0.5-1.8-13.3-4.7c-9-2-15.6-3-16.4-2.5
		c-0.9,0.6,0.3,1.3,3.7,2.1c2.8,0.7,9,2.4,13.7,3.8C608.3,268.1,608.3,268.1,610.5,266.4L610.5,266.4z M614.3,261.7
		c2.4-4.4,1.6-5-6.8-4.6c-4.3,0.2-9.2,0.4-10.8,0.4c-1.6,0-2.6,0.4-2.3,0.8c0.5,0.5,13.8,4.4,18.1,5.2
		C612.9,263.6,613.7,262.8,614.3,261.7z M544.8,256.6c3.6-0.2,3.3-0.3-3-1.6c-7-1.4-12.8-1.1-11.1,0.6c1,0.9,6,1.8,8.5,1.4
		C540.1,256.9,542.6,256.7,544.8,256.6z M336.4,432.1c0-1.8,5.3-15.6,11.7-30.4c9.6-22.1,11.7-26.8,12.2-26.3
		c0.3,0.3-3.7,10.9-8.8,23.7c-5.1,12.8-10.1,25.6-11.2,28.6C338.5,432.5,336.4,434.9,336.4,432.1L336.4,432.1z"/>
</g>
<g id="layer5" inkscape:groupmode="layer" inkscape:label="cross bars 7">
	<path id="path9416" inkscape:connector-curvature="0" fill="#FFFFFF" d="M707.7,520.1c-8.8-7.4-38.7-27.2-52.9-35
		c-15-8.3-28.5-14.6-52.9-24.9c-10.9-4.6-28.9-12.3-40.1-17.1c-11.2-4.8-20.9-8.9-21.7-9c-1-0.2-2.5,5.2-5.8,21.5
		c-7,34.5-9.9,44.7-12.1,42.5c-0.8-0.8,3.5-20.6,9.2-42.5c2.6-9.8,4.7-19.1,4.8-20.8c0.1-3-0.1-3.1-14.1-8.5
		c-14.5-5.6-49.8-17.5-77.1-26c-8.4-2.6-29.2-9.7-46.2-15.7s-32.3-11.1-34-11.3c-1.7-0.2-3.5-0.9-4-1.5c-1.1-1.3-14.9-6-52.3-17.9
		c-35.6-11.4-44-13.3-57.3-13.4c-10.5,0-11.5,0.1-16.7,3c-3.1,1.7-9.6,7.1-14.6,12.2c-8.9,9-9,9-4.1,2.7c6.1-8,12.5-13.7,19.2-17.2
		c4.6-2.4,6.1-2.7,15.7-2.6c6.2,0,14.1,0.8,18.8,1.9c16.7,3.7,70.1,20.9,120.3,38.9c35.2,12.6,57.7,20,78.7,26.2
		c23.8,7,53.7,18,87.8,32.5c11.4,4.9,30.6,12.8,42.6,17.7c12,4.9,26.4,11,32,13.4c30.9,13.7,85.8,49.6,85.8,56
		C716.6,526.7,713.4,524.9,707.7,520.1L707.7,520.1z M743.1,518.3c-7.2-11.7-18.6-26.3-25.9-33.1c-22.4-21-81-51.1-159.3-81.9
		c-64-25.2-153.6-55.2-236.1-79.2c-10.9-3.2-34.4-10.1-52.3-15.5c-43.7-13.1-39.9-12.3-45.8-8.9c-6.4,3.7-20.8,18.4-28,28.5
		c-3.2,4.4-8.3,13-11.5,19c-3.2,6-6,10.8-6.2,10.6c-0.7-0.7,1.9-8.5,5.3-15.7c4.7-10,13.4-21.2,25.4-32.8
		c11.2-10.9,15.5-13.3,39.1-22.2c28.9-10.8,87.1-23.5,163.7-35.7c64.5-10.2,109.6-11.6,137.2-4.1c2.3,0.6,9.1,2,15.1,3.1
		c10.3,1.8,11.6,1.9,23.1,0.5c6.7-0.8,12.7-1.9,13.3-2.4c3-2.4,13.9-1.7,25.1,1.5c3.1,0.9,7.9,6.8,9.9,12l1.9,5.1l14.6,3.3
		c37.3,8.4,94.9,21.8,105.9,24.7c11.5,3,12.6,3.2,19.3,2c3.9-0.6,9.5-2.2,12.5-3.4c5.1-2.1,5.9-2.1,15.1-1
		c5.4,0.7,11.7,2.1,14.1,3.2c4.7,2.1,9.7,8,11.6,13.8c1.3,3.9-0.1,3.3,22.8,8.9c62.5,15.3,138.4,42.4,185.5,66.3
		c28.1,14.2,41.3,25.4,52.7,44.5c13.6,22.7,17.9,31.9,15.2,31.9c-1.6,0-4-3.5-9.7-14c-5.6-10.2-15-24.9-16.6-25.9
		c-0.9-0.5-17,3-42.4,9.3c-8.9,2.2-27.2,6.7-40.6,9.8c-22.5,5.4-40.5,9.7-92.9,22.3c-42.5,10.2-94.4,22.3-126.9,29.6
		c-39.1,8.7-41.9,9.4-41.4,10.4c0.2,0.4,3.4,5.3,7.2,11c3.8,5.7,6.9,10.6,6.9,10.9c0,0.3-0.6,0.6-1.3,0.6S745.6,522.3,743.1,518.3
		L743.1,518.3z M761.4,493.2c29.1-5.9,57.9-12.6,164.9-38.6c25.7-6.2,65.8-15.9,89.1-21.4c41.4-9.8,57.5-14.1,60.6-16.2
		c2-1.4-1.7-4.6-17.3-15.1c-21.1-14.2-36-21.3-88-42.4C922.3,340,910.2,336,866.4,325c-16.7-4.2-31.3-7.8-32.3-8.2
		c-1.6-0.5-1.7-0.2-0.9,1.3c1.1,1.9,11.6,5.1,35.2,10.6c19.5,4.6,26.9,6.9,26.9,8.5c0,0.8-1.3,2.4-2.8,3.6c-2.3,1.8-3.7,2.1-7.4,1.7
		c-4.9-0.6-35.6-8.7-54.8-14.5c-6.4-1.9-12.5-3.3-13.4-3.1c-2.7,0.7-15.1-2.4-18-4.5c-1.4-1-10.3-3.7-19.8-6l-17.3-4.2l-9.9,1.7
		c-5.4,1-9.9,2-9.9,2.4c0,0.3,5.2,2.1,11.6,3.9c13.1,3.7,17.3,5.2,16.7,5.8c-0.2,0.2-8.4-1.6-18.2-4.2l-17.7-4.6l-30.2,5.4
		c-16.6,3-30.2,5.7-30.2,6.1c0,0.7-1.1,0.4,38.1,10.5c16.7,4.3,30.9,8.3,31.5,8.8c0.7,0.7,0.2,0.8-1.5,0.5
		c-10.7-2.3-32.6-7.7-51.8-12.9l-22.9-6.2l-33.4,5.8c-18.4,3.2-33.6,6-33.8,6.2c-0.2,0.2-0.2,0.6,0,0.8c0.4,0.4,33,9.6,47.6,13.5
		c5.5,1.5,8.9,3.4,6.1,3.4c-1.8,0-7.9-1.6-37.5-9.9l-23.8-6.7l-13.8,2.6c-15.7,2.9-33.9,9.8-35.8,13.4c-0.6,1.2-1.4,5.2-1.8,8.9
		c-0.6,6.6-0.5,6.8,1.9,7.8c8,3,17.3,6.7,29,11.6c33.8,14,35,14.6,35,18.1c0,3.1-2.9,5-7.8,5c-3.4,0-7.6-1.3-15.9-5.2
		c-19.1-8.8-52.6-21.9-57.6-22.6c-2.6-0.3-7.8-2.3-11.7-4.3c-13-6.8-76.8-28.8-143.5-49.4c-3.6-1.1-9.6-2.6-13.2-3.3
		c-3.6-0.7-10.3-2.7-14.8-4.4c-4.5-1.7-18.7-5.9-31.5-9.3c-12.8-3.5-26.9-7.3-31.4-8.5c-6.6-1.8-8.2-2.6-8.4-4.4
		c-0.4-3,3.4-5.4,8.5-5.4c4.6,0,24.5,4.1,46.4,9.5l14,3.5l1.4-2.7c0.8-1.5,4.1-5.5,7.3-9c5.1-5.4,6.5-6.3,9.5-6.4
		c1.9,0,7-0.9,11.1-2c4.2-1.1,10.4-2,13.7-2c3.3,0,9.1-0.7,12.7-1.5s13-2.7,20.8-4.1c40.1-7.3,55.3-9.8,70.4-11.6
		c20.2-2.5,33.6-6.2,29.8-8.4c-0.4-0.2-0.1-0.2,0.8,0c0.8,0.2,3.9,0.7,6.7,1c5.2,0.6,5.2,0.5,4.7-2.1c-0.8-4,3.2-5.2,12.9-3.7
		c4.2,0.6,9,1.6,10.7,2.1c1.8,0.5,5.2,0.6,8.1,0.1c4-0.7,4.4-0.9,2-1.1c-1.7-0.1-3.6-0.2-4.2-0.1c-0.6,0.1-7.3-1.3-14.7-3
		c-10.6-2.5-16.7-3.3-27.8-3.7c-44.7-1.6-152.3,13-218.7,29.6c-35.4,8.9-61.9,17.3-61.9,19.6c0,0.4,7,2.4,15.5,4.5
		c8.5,2.1,23.5,6,33.2,8.8c9.8,2.7,26.7,7.5,37.6,10.6c41.1,11.6,124.8,39.1,185.8,61.1c92.8,33.5,165.4,67.5,200.2,93.7
		c9.2,6.9,24.1,21.5,24.1,23.6C731.9,498.9,735.6,498.4,761.4,493.2L761.4,493.2z M604,404.3c1.1-1.3,1-1.8-0.1-2.9
		c-0.8-0.7-12.4-5.9-25.8-11.5c-38.1-15.9-40.1-16.7-43.8-16c-2.9,0.5-6.4,3.2-5.4,3.9c0.2,0.2,8.8,3.6,19.2,7.7s25.2,10.3,33,13.9
		C595.8,406,601.5,407.3,604,404.3L604,404.3z M527.8,374.9c1.3-1.4,3.8-3,5.6-3.6c3-1,3.3-1.5,4.4-7.8c1.6-9.1,3.4-11.2,13-14.9
		c11.5-4.5,12.1-4.9,10.7-7.5c-2.2-4.1-6.2-4.1-19.4-0.1c-6.2,1.9-6.9,2.4-5.8,3.8c1.1,1.4,1,1.5-0.7,0.8c-3.5-1.5-8.3-1.8-10.4-0.7
		c-1.8,1-9.3,14.5-9.3,16.7c0,0.5-0.9,2-2,3.4c-3.1,3.9-2.5,5.6,3.3,9.1C523.4,378.1,524.8,378.2,527.8,374.9L527.8,374.9z
		 M510.4,366c1.1-2.7,1-2.9-2.6-4.4c-8.3-3.5-62.2-22.8-70.8-25.3c-5-1.5-18-5.6-28.9-9.1c-25.6-8.3-43.7-13.7-45.8-13.7
		c-2,0-6.4,4.6-5.6,5.9c0.3,0.5,3,1.7,5.9,2.6c39.2,11.8,94.9,30.1,130.2,42.7c8.4,3,15.5,5.2,15.8,4.8
		C508.9,369.1,509.7,367.6,510.4,366z M518.1,351.6c4-8,5.3-9,13.8-10.3c2.5-0.4,8.1-1.8,12.4-3.1c4.8-1.4,10.5-2.4,14.7-2.4
		c3.8,0,8.2-0.4,9.7-0.8c2.4-0.7-3.3-2.7-36-12.9c-40.8-12.6-44.3-13.7-70.1-21.4c-8.8-2.6-15.8-5-15.6-5.2
		c0.7-0.7,24.4,6.2,74.7,21.5c24.3,7.4,46.9,14.2,50.2,15.1l6.1,1.6l34.5-6.4l34.5-6.4l-5.6-1.3c-5.8-1.4-33.6-9.4-56.3-16.4
		c-7.3-2.2-15.3-4.6-17.8-5.4c-24.4-7.3-33.4-10.1-33.1-10.5c0.2-0.2,13.1,3.3,28.7,7.9c15.5,4.6,36.5,10.8,46.5,13.7
		c24.5,7.2,39,11,42.1,10.9c2.9-0.1,53.5-9.2,55.8-10c1.7-0.6-3.8-2.8-11.2-4.5c-2.5-0.6-8.7-2.2-13.7-3.5
		c-25.3-6.9-36.9-10.1-51.3-14.2c-28.8-8.2-41.6-11.6-79.7-21.4c-10.9-2.8-21-2.3-44.2,2.2c-7,1.4-17.9,3.4-24.4,4.5
		c-6.4,1.1-19.9,3.6-29.9,5.4c-10,1.9-23.2,4.2-29.2,5.2c-6.9,1.1-10.6,2.2-10.2,2.8c0.4,0.6,0,0.8-1,0.4
		c-2.3-0.9-21.9,2.2-25.1,3.9c-1.4,0.8-6.2,2.6-10.5,4.2c-7.5,2.6-8.1,3-9.8,7c-1,2.4-2,5.6-2.2,7.2c-0.3,2.9-0.3,2.9,11.8,6.3
		c28.1,7.8,102.9,33,132.5,44.6C512.9,361.3,513.7,360.5,518.1,351.6L518.1,351.6z M439.5,294.1c-2-0.5-5.3-1.4-7.5-2
		c-2.1-0.6-3.7-1.2-3.4-1.5c0.5-0.5,16.1,3.4,16.9,4.2C446.2,295.5,443.4,295.1,439.5,294.1L439.5,294.1z M417,287.4
		c0.7-0.3,1.6-0.3,1.9,0.1c0.3,0.3-0.3,0.6-1.3,0.5C416.4,288,416.2,287.8,417,287.4L417,287.4z M526.8,285.6c-2-0.8-2.9-1.4-2-1.4
		s3.1,0.6,5.1,1.4c2,0.8,2.9,1.4,2,1.4S528.8,286.3,526.8,285.6z M515.1,282c-1.3-0.6-1.5-0.9-0.5-0.9c0.8,0,2.2,0.4,3,0.9
		C519.5,283.2,517.9,283.2,515.1,282z M588,338.9c1-0.6,3.6-1,5.7-1s18.5-2.8,36.3-6.2c17.8-3.4,35.1-6.6,38.4-7.1
		c3.3-0.5,18.7-3.2,34-6.1c15.4-2.9,32-5.9,37-6.6s12.3-2.1,16.2-2.9c3.9-0.8,10.3-2,14.2-2.6c3.9-0.6,9.6-1.8,12.7-2.6
		s6.7-1.5,8-1.7c3.5-0.4,3.8-2.6,0.6-3.8c-2-0.8-4.6-0.6-10,0.6c-4,0.9-9.8,2-12.8,2.5c-3.1,0.5-8.1,1.3-11.2,1.9
		c-7.4,1.4-25.1,4.5-40.1,7.2c-6.7,1.2-23.4,4.2-37,6.7c-19.1,3.5-88.2,15.8-114.4,20.5c-3.5,0.6-3.9,1.4-2.3,4.3
		c1,1.8,1.4,1.8,11.9-0.1C581.3,340.8,587,339.4,588,338.9L588,338.9z M888.1,339.8c2.6-0.9,3-1.3,1.8-2
		c-1.2-0.7-52.1-14.4-62.4-16.8c-1.2-0.3-3.5-0.2-5.1,0.2l-2.8,0.7l4.1,1.5c7.1,2.6,12.7,4.3,36,10.6c12.6,3.4,23,6.4,23.3,6.6
		C883.7,341.1,884.5,341,888.1,339.8z M817.3,320.7c3-1.1,6.9-2.2,8.7-2.6c2.7-0.5,3.3-1.1,3.3-3.3c0-3.7-5.4-11.7-10-14.9
		c-5.7-3.9-22.7-7.1-26.2-4.9c-1.7,1.1,3.9,5.8,7.1,5.9c8.4,0.2,11.5,0.7,13.3,2c1.1,0.8,1.7,1.8,1.3,2.1s-1.4,0.1-2.2-0.6
		c-1.8-1.5-1.7-1.7-3.4,3.6c-0.7,2.2-2.7,5.5-4.3,7.2c-2.6,2.7-2.8,3.3-1.5,4.4c1.3,1.1,5.7,2.8,7.9,3
		C811.6,322.6,814.4,321.8,817.3,320.7L817.3,320.7z M360.3,311.5c2.1-0.9,3.1-2,3.1-3.4c0-3,3.4-10,5.7-11.9c1.1-0.9,5.3-2.7,9.5-4
		c4.2-1.3,7.8-2.5,8-2.6s0-1.1-0.3-2.3c-1.1-3.5-4-4.4-10-3.2c-9.4,2-12.9,3.2-12.4,4c0.3,0.5-1.4,0.6-3.8,0.4
		c-5.1-0.6-7.3,1.1-11.5,8.6c-1.5,2.7-4,6.9-5.5,9.4c-4.6,7.4-4.4,7.9,3.1,10.5l6.6,2.2l2.2-3.1
		C356.2,314.2,358.6,312.2,360.3,311.5L360.3,311.5z M800.8,315.1c1-1.2,0.6-1.6-2.2-2.1c-1.8-0.4-7.7-1.7-13-3.1
		c-7-1.8-10.6-2.2-13.2-1.6l-3.6,0.8l4.1,1.1c2.2,0.6,7,1.9,10.7,2.8c3.6,0.9,8,2,9.6,2.5C797.8,316.8,799.5,316.7,800.8,315.1
		L800.8,315.1z M337.7,310c1.3-4.1,1.9-3.7-15.5-8c-24.1-5.9-41.4-9.1-45-8.1c-1.9,0.5-3.7,1.4-3.9,2c-0.3,0.9,57.8,17.3,62.2,17.6
		C336.2,313.5,337.2,311.9,337.7,310z M804.9,312.1c0-0.2,0.3-1.1,0.6-1.9c0.4-1.1-0.4-1.6-3.3-2c-2.1-0.3-5.9-1-8.4-1.7
		c-2.6-0.7-6.1-0.9-8.1-0.5c-3.5,0.7-3.4,0.8,3.6,2.5c3.9,1,8.5,2.2,10.2,2.8C802.7,312.4,804.9,312.7,804.9,312.1L804.9,312.1z
		 M727.8,306.3c4.2-0.7,8-1.6,8.5-2c0.5-0.4-1.8-1.1-5-1.5c-3.2-0.4-8.4-1.5-11.5-2.5c-3.1-1-19.8-5.1-37.1-9.1
		c-48.6-11.3-56.2-13-65.5-14.7c-4.7-0.9-15.9-3.4-24.9-5.5c-41.4-10-42.2-10.1-45-8.4c-0.8,0.5,7.4,3,21.3,6.5
		c21.6,5.4,44.8,11.5,60.2,15.7c49.6,13.7,87.8,23.5,89.8,23C719.5,307.7,723.6,307,727.8,306.3L727.8,306.3z M807.4,305.7
		c0.9-2.3-1.3-3.6-4.9-2.9c-1.6,0.3-3.9,0.6-5.1,0.6c-1.4,0-0.6,0.7,2.4,2C805.6,307.8,806.6,307.8,807.4,305.7z M748,302.7
		c2.2-0.6,2.1-0.8-1.6-2c-2.2-0.7-13.8-3.7-25.7-6.6s-32.1-7.7-44.6-10.7c-12.6-3-27.8-6.7-33.8-8.1c-10.2-2.4-15.9-2.6-15.9-0.5
		c0,0.5,5.1,2.1,11.4,3.6s13.2,3.1,15.5,3.6s17.8,4.2,34.5,8.1c16.7,3.9,35.2,8.5,41.1,10.1C739.8,303.3,743.8,303.8,748,302.7
		L748,302.7z M762.6,300.3c1.1,0,1.8-0.2,1.5-0.6c-1.4-1.4-124.5-29.4-125.3-28.5c-0.6,0.6,7.5,2.9,24.1,6.7
		c30.2,7,87.9,21.4,89.8,22.3c1.1,0.5,3.3,0.8,4.9,0.5S761.5,300.3,762.6,300.3L762.6,300.3z M395.9,286.6
		c3.1-0.9,10.8-2.4,17.3-3.4c6.4-1,16.9-2.8,23.3-4c6.4-1.2,17.4-3.1,24.4-4.2c21.8-3.6,39.9-6.9,45-8c5-1.1,28.7-4.8,36.4-5.6
		c9.4-1,30-3.8,34.3-4.7c2.5-0.5,9.7-1.2,16-1.6c10.6-0.6,13.7-1.6,9.8-3.1c-0.9-0.3-6.5-0.1-12.4,0.6c-19.2,2.1-37.9,4.2-50.9,5.9
		c-12.6,1.6-14,1.8-19.8,2.9c-14.7,2.7-33.4,5.9-48.2,8.1c-9.8,1.5-20.9,3.3-24.6,4.1c-3.8,0.8-8.8,1.6-11.2,1.9
		c-2.4,0.3-9.8,1.6-16.5,3c-6.7,1.3-16.5,3-21.8,3.7c-5.3,0.7-9.8,1.4-10,1.5c-0.8,0.6,1.1,4.5,2.2,4.5
		C389.8,288.1,392.8,287.4,395.9,286.6L395.9,286.6z M624.7,272.5c1.7-1.3,4.6-2.7,6.4-3.1c4.2-0.9,4.7-2.6,2.2-7.3
		c-3-5.9-8.3-10-14.9-11.9c-5.5-1.6-14.4-2.3-14.4-1.1c0,1.6,4.9,5,7.5,5.2c6.2,0.6,9.7,1.5,10.3,2.6c0.5,0.8,0.1,0.9-1,0.5
		c-1.3-0.5-2.1,0.3-3.2,3c-0.8,2-3.5,5.3-5.8,7.4l-4.3,3.8l6.6,1.5c3.6,0.8,6.8,1.6,7,1.7S623,273.8,624.7,272.5L624.7,272.5z
		 M606.3,269.4c-0.1-0.5-4.2-2-9.1-3.3c-4.9-1.3-12.6-3.3-17.1-4.4c-6.1-1.6-9.5-1.9-13.7-1.4c-5.2,0.7-5.4,0.8-2.5,1.6
		c1.7,0.5,6.9,1.6,11.7,2.5c4.7,0.9,9.5,2,10.7,2.5C592.8,269.9,606.8,271.6,606.3,269.4z M611.3,265.4c1.5-1.1-0.5-1.8-13.4-4.7
		c-9-2-15.6-3-16.4-2.5c-0.9,0.6,0.3,1.3,3.7,2.1c2.8,0.7,9,2.4,13.7,3.8C609.1,267.1,609.1,267.1,611.3,265.4z M615.1,260.8
		c2.4-4.5,1.6-5-6.8-4.6c-4.3,0.2-9.2,0.4-10.8,0.4c-1.6,0-2.6,0.4-2.3,0.8c0.5,0.5,13.8,4.4,18.1,5.2
		C613.7,262.7,614.5,261.9,615.1,260.8z M545.6,255.6c3.6-0.2,3.3-0.3-3-1.6c-7-1.4-12.8-1.1-11.1,0.6c1,0.9,6,1.8,8.5,1.4
		C540.9,255.9,543.4,255.7,545.6,255.6z M337,431.3c0-1.8,5.3-15.6,11.7-30.4c9.6-22.2,11.7-26.8,12.2-26.3
		c0.3,0.3-3.7,10.9-8.8,23.7c-5.1,12.8-10.1,25.7-11.2,28.6C339.1,431.6,337,434,337,431.3z"/>
</g>
</svg>
