<?xml version="1.0" encoding="UTF-8" standalone="no"?>
<!-- Created with Inkscape (http://www.inkscape.org/) -->

<svg
   xmlns:dc="http://purl.org/dc/elements/1.1/"
   xmlns:cc="http://creativecommons.org/ns#"
   xmlns:rdf="http://www.w3.org/1999/02/22-rdf-syntax-ns#"
   xmlns:svg="http://www.w3.org/2000/svg"
   xmlns="http://www.w3.org/2000/svg"
   xmlns:sodipodi="http://sodipodi.sourceforge.net/DTD/sodipodi-0.dtd"
   xmlns:inkscape="http://www.inkscape.org/namespaces/inkscape"
   width="451.55554mm"
   height="264.9361mm"
   viewBox="0 0 1600 938.74994"
   id="svg2"
   version="1.1"
   inkscape:version="0.91 r13725"
   inkscape:export-filename="/Users/mariachapa/Google Drive/AnimationistGirl/Freelance 2017/Upwork/36 Emilio Sole/Revs/sketch3.png"
   inkscape:export-xdpi="90"
   inkscape:export-ydpi="90"
   sodipodi:docname="cross-bars-side-rails.svg">
  <defs
     id="defs4" />
  <sodipodi:namedview
     id="base"
     pagecolor="#ffffff"
     bordercolor="#666666"
     borderopacity="1.0"
     inkscape:pageopacity="0.0"
     inkscape:pageshadow="2"
     inkscape:zoom="0.51312502"
     inkscape:cx="543.00707"
     inkscape:cy="469.37497"
     inkscape:document-units="px"
     inkscape:current-layer="layer1"
     showgrid="false"
     fit-margin-top="0"
     fit-margin-left="0"
     fit-margin-right="0"
     fit-margin-bottom="0"
     inkscape:window-width="1320"
     inkscape:window-height="831"
     inkscape:window-x="1093"
     inkscape:window-y="100"
     inkscape:window-maximized="0" />
  <metadata
     id="metadata7">
    <rdf:RDF>
      <cc:Work
         rdf:about="">
        <dc:format>image/svg+xml</dc:format>
        <dc:type
           rdf:resource="http://purl.org/dc/dcmitype/StillImage" />
        <dc:title />
      </cc:Work>
    </rdf:RDF>
  </metadata>
  <g
     inkscape:groupmode="layer"
     id="layer1"
     inkscape:label="cross bars 1">
    <path
       style="fill:#000000"
       d="m 888.65258,649.567 c -40.6507,-31.22209 -75.40924,-50.75351 -134.88619,-75.79484 -17.38107,-7.31788 -41.53529,-17.67166 -53.67604,-23.00838 -12.14077,-5.33674 -22.31516,-9.46209 -22.60981,-9.16747 -0.29462,0.29464 -2.82383,11.90649 -5.62046,25.80412 -7.31988,36.37574 -12.11532,55.14371 -14.08983,55.14371 -2.69841,0 -2.02686,-3.57866 9.25192,-49.30224 6.83736,-27.71835 7.67856,-32.37666 6.11244,-33.84887 -2.31845,-2.17941 -55.49596,-21.94449 -75.54259,-28.07777 -41.11024,-12.57766 -62.05806,-19.40504 -88.24797,-28.76199 -30.69571,-10.96676 -50.67245,-17.63535 -52.79784,-17.62485 -0.72746,0.004 -5.8682,11.58691 -11.42385,25.74073 -20.27538,51.65444 -19.90149,50.81455 -21.78301,48.93303 -0.93277,-0.93274 13.15901,-36.51209 23.60567,-59.60026 6.54238,-14.45933 7.16557,-16.51619 5.30371,-17.50487 -2.41635,-1.28312 -80.20332,-26.60838 -93.63237,-30.48407 -18.07797,-5.21739 -33.16219,-7.94669 -44.19286,-7.99613 -15.1672,-0.068 -21.91032,3.25313 -36.82032,18.13473 -6.10504,6.09343 -10.47265,9.90659 -9.7058,8.47369 3.04372,-5.68723 21.01961,-22.23526 27.72898,-25.52641 12.25211,-6.01 33.10298,-4.40126 65.5323,5.05612 29.23033,8.52445 89.77833,28.77851 144.91077,48.47443 35.22368,12.58355 57.53688,19.87828 88.34473,28.88202 18.42127,5.38372 71.14669,24.92627 97.87833,36.27838 10.13739,4.30505 37.40509,15.74815 60.59488,25.42912 23.18978,9.68095 46.75418,19.91003 52.36534,22.73125 40.05148,20.1375 97.27219,58.98648 95.35459,64.73932 -0.35265,1.05795 -4.59382,-1.46888 -11.95472,-7.1225 z m 46.73057,5.70917 c -0.70449,-0.87391 -3.56937,-6.16506 -6.36641,-11.75811 -7.1601,-14.31758 -13.95462,-22.80988 -34.81542,-43.51494 -23.26178,-23.08814 -29.69814,-28.08783 -60.63798,-47.10299 -38.50078,-23.662 -55.10303,-31.86814 -68.81547,-34.01399 -8.31356,-1.301 -75.76218,-24.38708 -74.61149,-25.53776 0.91013,-0.91014 40.83248,11.00402 53.86341,16.07464 23.6816,9.21502 29.59938,9.68156 25.58349,2.017 -3.31128,-6.31981 -29.6364,-34.08964 -37.24966,-39.29391 -8.02495,-5.48569 -30.32488,-16.1056 -33.84094,-16.1161 -1.13423,-0.004 -6.47212,-1.44569 -11.86197,-3.20511 -5.38986,-1.75942 -11.61204,-3.44636 -13.8271,-3.74875 -4.72254,-0.64469 -16.86309,-4.27158 -44.06848,-13.16506 -10.83653,-3.54248 -42.58343,-13.67346 -70.54866,-22.51328 -61.3132,-19.38115 -98.61068,-31.84484 -120.75899,-40.35406 -14.89952,-5.72426 -48.22611,-17.69572 -54.65933,-19.63449 -1.39825,-0.4214 -3.68632,-1.46772 -5.08458,-2.32517 -3.26775,-2.00387 -26.35427,-6.5315 -39.08636,-7.66546 -9.31413,-0.82956 -10.2822,-0.66429 -17.79606,3.03788 -7.87826,3.88173 -26.37772,18.34621 -26.37772,20.62441 0,1.2932 0.86551,1.53675 15.88934,4.47121 5.59304,1.09243 16.42184,3.45964 24.06399,5.26044 17.8129,4.19747 30.44114,3.7312 39.28297,-1.45047 7.0757,-4.14662 8.13013,-4.01231 35.80252,4.56089 l 228.49669,74.79166 c 28.38173,6.94589 37.66529,13.14996 42.00061,28.06847 1.2569,4.32516 1.94509,8.20411 1.52929,8.61989 -0.41578,0.41578 -2.65372,-1.31554 -4.97319,-3.84738 -3.85172,-4.20437 -6.84869,-5.44725 -34.57911,-14.34027 -32.71663,-10.49209 -133.94172,-43.97694 -215.94938,-71.43518 -50.70342,-16.9768 -50.89198,-17.02804 -67.29663,-18.28901 -23.23599,-1.78607 -38.73718,-4.31716 -53.7399,-8.77483 -7.14394,-2.12263 -14.66648,-3.85934 -16.71674,-3.85934 -5.37711,0 -17.41508,9.52732 -30.36962,24.03572 -12.47738,13.97401 -19.06865,23.69196 -27.668,40.79278 -3.33988,6.64175 -6.31142,11.38422 -6.60343,10.53884 -0.95909,-2.77663 8.07616,-22.77773 15.28652,-33.83943 8.2415,-12.64357 27.90911,-32.64466 40.16286,-40.84383 4.61444,-3.08761 11.59484,-8.65175 15.512,-12.36477 8.35327,-7.91798 24.91796,-18.05657 33.05859,-20.23385 4.84942,-1.29702 8.00062,-1.12802 20.65101,1.1075 l 14.92837,2.63807 15.50815,-3.81787 c 8.52948,-2.09981 18.36823,-4.30449 21.86387,-4.89928 3.49566,-0.59476 19.79812,-3.67405 36.2277,-6.84286 96.20381,-18.55497 148.56568,-25.08564 201.44495,-25.12457 27.14581,-0.02 30.82634,-0.26963 33.68539,-2.28469 5.01262,-3.53293 15.51687,-8.54343 19.89317,-9.489 6.05631,-1.30857 30.52758,2.35393 55.20343,8.26207 12.19792,2.92053 26.75416,6.37 32.34721,7.66546 5.59306,1.29548 15.03132,3.5127 20.97393,4.92719 11.02147,2.62339 21.56374,5.09082 46.39687,10.85925 7.69045,1.78639 33.43117,7.5403 57.20163,12.78645 59.60892,13.15575 115.25041,26.35826 141.86171,33.66069 12.3055,3.3768 29.9393,7.88789 39.1862,10.02464 9.2468,2.13675 21.0769,5.31658 26.2891,7.06629 18.8254,6.31944 40.0507,18.83156 56.8636,33.52045 5.4838,4.79115 11.8273,8.88689 17.1604,11.0797 4.6533,1.91335 13.0367,5.43961 18.6297,7.83614 5.5931,2.39654 19.0354,7.66884 29.8719,11.7162 38.9375,14.5429 63.804,25.86367 90.2515,41.08804 30.7139,17.68034 40.7251,29.05944 60.8026,69.11196 6.1777,12.32345 7.3591,15.5897 5.8486,16.16932 -2.9014,1.11335 -5.2537,-2.44462 -18.6243,-28.16875 -6.8051,-13.09255 -13.1017,-23.72983 -13.9927,-23.63838 -0.891,0.0914 -7.3638,1.89293 -14.384,4.00333 -7.0202,2.11039 -34.763,9.02815 -61.6507,15.37281 -26.8875,6.34465 -63.1869,15.05377 -80.6651,19.3536 -17.4783,4.29984 -34.9248,8.53815 -38.77,9.41848 -11.5889,2.65315 -71.8173,16.96376 -91.5227,21.74631 -22.2641,5.40357 -38.4554,9.11266 -94.06485,21.54838 -46.52873,10.40503 -52.11703,11.77016 -52.11703,12.7313 0,0.35419 2.77589,4.76528 6.16866,9.8024 5.90006,8.75964 10.35625,16.50197 10.35625,17.99332 0,1.37378 -4.79782,0.66828 -6.05418,-0.89024 z m 63.56584,-47.96078 c 70.85031,-16.71573 90.68761,-21.45791 135.70271,-32.4403 10.1374,-2.47324 27.8699,-6.78142 39.4055,-9.57374 11.5358,-2.79233 30.4122,-7.36398 41.9479,-10.15925 11.5357,-2.79525 38.9925,-9.3341 61.015,-14.5308 56.3691,-13.30143 71.8375,-17.50809 74.783,-20.3372 2.042,-1.96154 -3.0906,-6.44476 -20.7592,-18.13234 -28.807,-19.05558 -57.3823,-32.63664 -118.2167,-56.1852 -11.1861,-4.33006 -24.9145,-9.79101 -30.5075,-12.13546 -21.8674,-9.16622 -81.1704,-27.36607 -128.8809,-39.55309 l -22.1045,-5.64631 -29.1023,5.10026 c -16.0064,2.80515 -29.76436,5.10027 -30.57333,5.10027 -0.80899,0 -0.36141,0.81126 0.9946,1.8028 3.84532,2.81176 1.20213,3.81368 -4.27718,1.62128 -4.68414,-1.87422 -6.28175,-1.74892 -30.24249,2.37199 -13.91339,2.3929 -32.60332,5.60117 -41.53316,7.12949 -8.92984,1.52831 -15.79404,3.15927 -15.25377,3.62434 0.54028,0.46506 12.99465,3.88591 27.6764,7.6019 25.25255,6.39148 29.95584,7.96671 28.40806,9.5145 -0.36236,0.36236 -15.19665,-3.12619 -32.96508,-7.75231 l -32.30625,-8.41115 -16.52491,2.56915 c -36.83289,5.72649 -73.02126,12.27796 -72.13061,13.05838 0.5205,0.45607 8.84869,3.04478 18.50708,5.75265 18.33438,5.14034 21.052,6.18812 19.66009,7.58005 -0.462,0.462 -11.2691,-2.19186 -24.01575,-5.89745 l -23.17575,-6.73747 -41.09373,6.90482 c -22.60156,3.79764 -41.09373,7.34063 -41.09373,7.8733 0,0.53266 0.61511,0.96847 1.36694,0.96847 3.27103,0 28.07541,10.61802 36.93825,15.81217 13.82736,8.10364 38.77192,34.70737 45.71745,48.75829 2.5029,5.06343 3.82624,5.99712 18.12923,12.79135 18.27947,8.68316 54.02348,29.12672 70.04996,40.06463 14.17869,9.67682 40.94014,35.41322 50.96919,49.01692 4.1482,5.62676 7.68166,10.23398 7.85216,10.23828 0.17048,0.004 34.20544,-7.98914 75.63332,-17.76322 z M 673.20437,479.22229 c -0.064,-2.91505 -6.20194,-11.2181 -8.90612,-12.04754 -6.60262,-2.02519 -61.85557,-20.38464 -96.57819,-32.09102 -19.92523,-6.71758 -47.66801,-15.64558 -61.65063,-19.83999 -13.98261,-4.19442 -40.86739,-12.72044 -59.74392,-18.94673 -53.2834,-17.57515 -63.9133,-20.59452 -66.89196,-19.00039 -6.86562,3.67436 -3.95932,4.8245 101.85983,40.30972 134.78682,45.19921 186.9673,62.3869 189.70739,62.48758 1.22348,0.045 2.2151,-0.34728 2.2036,-0.87163 z m 39.79553,-39.03312 c 28.6188,-4.89544 68.28778,-11.68462 96.23813,-16.47075 10.13739,-1.7359 33.87607,-5.78313 52.7526,-8.99387 61.54155,-10.46765 92.21929,-15.69936 127.11471,-21.67782 18.87656,-3.23403 36.29836,-6.21167 38.71506,-6.61698 3.4084,-0.57163 3.8583,-0.92483 2.0057,-1.57468 -1.3135,-0.46077 -5.0069,-0.41499 -8.2074,0.1017 -6.083,0.98207 -62.15322,10.5889 -88.44383,15.15359 -8.38957,1.45664 -28.41014,4.88559 -44.49015,7.61985 -37.06826,6.30319 -67.54694,11.5135 -96.60719,16.51494 -12.58435,2.16585 -32.60492,5.59587 -44.49014,7.62229 -75.20614,12.82254 -73.26134,12.44562 -65.09502,12.61571 2.64994,0.0552 16.37832,-1.8771 30.50753,-4.294 z m -33.41888,-0.0164 c 28.95278,-4.88803 72.51265,-12.32026 89.61587,-15.29037 10.48696,-1.82114 32.22358,-5.54638 48.30359,-8.27831 45.95254,-7.80716 72.18618,-12.29458 92.79374,-15.87289 10.48697,-1.82097 30.50753,-5.25542 44.49015,-7.63212 13.98262,-2.37671 33.83959,-5.77938 44.12662,-7.56149 10.28711,-1.78212 19.39161,-3.24022 20.23241,-3.24022 3.4609,0 -0.7519,-1.88221 -8.7722,-3.91929 l -8.5543,-2.17278 -56.56613,9.33857 c -31.11133,5.13621 -91.74505,15.14503 -134.7416,22.24182 -42.99655,7.0968 -97.9101,16.18547 -122.03013,20.19705 l -43.85457,7.29376 6.9913,2.11603 c 6.46261,1.95599 15.02419,4.29363 16.52492,4.51192 0.34957,0.0508 5.49772,-0.7284 11.44033,-1.73168 z m -0.67636,-13.44673 c 21.69549,-3.52948 40.49325,-6.8331 41.77281,-7.34138 1.59901,-0.6352 -5.75405,-3.44422 -23.51623,-8.98365 C 639.1653,392.31403 576.52079,373.0028 564.98486,369.65546 l -12.2688,-3.56001 -40.13395,5.95031 c -22.07367,3.27269 -40.42656,6.24296 -40.78421,6.60061 -0.35767,0.35766 17.50341,6.51903 39.69126,13.69195 22.18787,7.1729 59.2181,19.23042 82.28942,26.79448 23.07133,7.56405 42.78753,13.8108 43.8138,13.88166 1.02626,0.0708 19.61679,-2.75894 41.31228,-6.28841 z m 487.52574,-3.66914 c 0,-2.25896 -24.8278,-19.86733 -36.2277,-25.69334 -13.8583,-7.08243 -24.0682,-10.42731 -57.2016,-18.73989 -13.9826,-3.50799 -30.5711,-7.87605 -36.8633,-9.70681 -13.4121,-3.90234 -56.55828,-15.0311 -71.18425,-18.36063 -5.59305,-1.27323 -29.61773,-6.64305 -53.38818,-11.93292 -23.77045,-5.28989 -57.80542,-13.08147 -75.63326,-17.31465 -17.82784,-4.23316 -42.99654,-10.21179 -55.93047,-13.28581 -47.7732,-11.35434 -61.73772,-13.84744 -78.2106,-13.96297 -15.27184,-0.10716 -15.29689,-0.10232 -22.56286,4.29258 -4.00073,2.41989 -7.27405,5.0191 -7.27405,5.77601 0,0.75692 8.72325,3.48814 19.38499,6.06938 38.1545,9.23729 40.88248,9.5474 53.96886,6.135 5.56168,-1.45027 7.45836,-1.17378 32.78694,4.77953 5.59305,1.31461 32.47781,7.61958 59.74392,14.01104 27.2661,6.39148 51.86279,12.17139 54.65932,12.84427 8.14612,1.96005 29.72504,6.85787 81.33378,18.46051 55.73016,12.52921 71.79386,16.90975 83.27986,22.71026 4.5443,2.29494 14.2686,5.94683 21.6094,8.11532 61.3147,18.11232 79.6762,23.67234 83.1072,25.16561 4.8553,2.11322 4.602,2.07813 4.602,0.63751 z M 777.45935,410.37786 c 49.08115,-8.23471 46.47289,-6.76238 22.88064,-12.91581 -15.98216,-4.16855 -123.32731,-37.17183 -122.75737,-37.74178 0.50022,-0.50022 8.68714,1.8042 56.02215,15.76891 52.13768,15.38158 84.47537,24.47159 89.89682,25.26964 4.48498,0.6602 16.60796,-0.8377 47.98474,-5.92894 23.09098,-3.74679 41.9841,-7.15178 41.98469,-7.56666 5.9e-4,-0.41488 -10.72424,-3.49571 -23.83294,-6.84631 -13.1087,-3.35059 -37.27639,-9.76282 -53.70597,-14.24942 -16.42957,-4.4866 -43.57904,-11.87142 -60.33215,-16.41072 -16.75311,-4.5393 -30.71983,-8.51291 -31.03718,-8.83026 -2.43514,-2.43515 6.4206,-0.24949 99.63179,24.58975 31.46089,8.38381 62.06576,16.49673 68.01085,18.0287 l 10.80921,2.78539 24.14734,-4.03215 c 13.28101,-2.21769 24.27896,-4.16245 24.43986,-4.32169 0.25856,-0.25588 -45.54547,-10.87136 -107.70448,-24.96144 -11.53566,-2.61487 -35.25123,-8.03788 -52.70128,-12.05111 -28.15314,-6.4748 -32.77941,-7.21724 -41.06633,-6.59051 -14.50692,1.09716 -211.31629,30.63748 -210.30166,31.56545 0.49537,0.45308 8.33689,2.92719 17.42559,5.49802 17.89832,5.06272 55.50521,16.55734 83.89571,25.64289 9.78783,3.13231 27.80635,8.4816 40.04113,11.88731 12.2348,3.40572 23.67512,6.77024 25.42295,7.47672 1.74783,0.70648 4.03589,1.28616 5.08458,1.28817 1.04871,0.003 21.64129,-3.30735 45.76131,-7.35415 z M 670.68298,358.14559 c -2.32362,-1.50163 -0.31663,-1.50163 3.17788,0 1.6763,0.72033 1.8928,1.11626 0.63557,1.16233 -1.0487,0.0384 -2.76475,-0.4846 -3.81345,-1.16233 z M 501.26634,370.8902 c 18.72171,-2.77827 39.75963,-5.90827 46.75094,-6.95556 54.07537,-8.10038 202.21939,-29.82651 207.83256,-30.47979 13.84639,-1.61147 29.23639,-4.83618 29.23639,-6.12597 0,-0.83898 -2.41953,-1.03444 -6.67353,-0.53914 -21.96447,2.55736 -318.32019,47.16119 -319.31216,48.05895 -2.28767,2.0704 8.12925,1.09246 42.1658,-3.95849 z m 489.04568,3.88452 c 0.3966,-0.64176 -3.4307,-2.09614 -8.50521,-3.23196 -5.07451,-1.13581 -12.65848,-2.88242 -16.85326,-3.88135 -4.19478,-0.99893 -19.06721,-4.42467 -33.04982,-7.61276 -42.95295,-9.79343 -65.33226,-15.04498 -105.91346,-24.85377 -20.25182,-4.895 -27.42067,-5.66779 -35.18388,-3.79274 -2.60235,0.62855 -3.20789,1.16452 -1.90672,1.68764 1.0487,0.4216 26.78943,6.30764 57.20163,13.08007 30.41218,6.77242 72.45538,16.1879 93.4293,20.92326 36.67502,8.28024 49.23706,10.18048 50.78142,7.68161 z m -392.72,-24.28811 c 172.29802,-25.49844 173.51159,-25.68536 173.51159,-26.72383 0,-0.44265 -3.07921,-1.49392 -6.84268,-2.33615 -7.72449,-1.72867 -6.84304,-1.81795 -68.155,6.90462 -58.25727,8.288 -254.40406,37.37326 -258.04288,38.26343 -2.93045,0.71686 -2.68654,0.99717 3.13316,3.60058 3.47108,1.55276 7.18918,2.62107 8.26246,2.37403 1.07328,-0.24704 67.7333,-10.18425 148.13335,-22.08268 z m -44.852,-3.7952 c 65.91733,-9.79542 131.004,-19.52019 144.63706,-21.6106 13.63304,-2.09041 25.61679,-3.80025 26.63053,-3.79964 1.19656,7e-4 1.40862,-0.43345 0.60448,-1.23759 -0.68128,-0.68128 -12.37902,-3.50558 -25.99496,-6.27623 -13.61596,-2.77065 -29.3324,-6.01634 -34.92546,-7.21265 -9.19444,-1.96662 -13.17782,-2.03243 -41.55782,-0.68649 -48.17158,2.28458 -87.60435,6.90933 -152.32946,17.86548 -45.2664,7.66234 -51.03953,8.73294 -73.68919,13.6655 -11.53566,2.51219 -22.26097,4.84242 -23.834,5.17828 -6.1121,1.30501 -6.2565,1.24055 32.09646,14.32916 11.88522,4.05605 23.16272,7.42412 25.06109,7.48463 1.89836,0.0605 57.38393,-7.90443 123.30127,-17.69985 z"
       id="path3466"
       inkscape:connector-curvature="0"
       sodipodi:nodetypes="ssscsssssscscsssssssssssssssssssssssscsssssssssssssccscsssssssssssssscsssssssssssssscsssscsscssssssssssssssscsssscsssssscssscssssscsssssssscscsssssscccsssscssssssccsssssssscssscscsccsscsssscccsssssssssssssssssssssssssssssssssscscssscsssscssscsssssssscssssscsscsssssssssscssssssssss" />
  </g>
</svg>
