<?xml version="1.0" encoding="UTF-8" standalone="no"?>
<!-- Created with Inkscape (http://www.inkscape.org/) -->

<svg
   xmlns:dc="http://purl.org/dc/elements/1.1/"
   xmlns:cc="http://creativecommons.org/ns#"
   xmlns:rdf="http://www.w3.org/1999/02/22-rdf-syntax-ns#"
   xmlns:svg="http://www.w3.org/2000/svg"
   xmlns="http://www.w3.org/2000/svg"
   xmlns:sodipodi="http://sodipodi.sourceforge.net/DTD/sodipodi-0.dtd"
   xmlns:inkscape="http://www.inkscape.org/namespaces/inkscape"
   width="451.55554mm"
   height="264.9361mm"
   viewBox="0 0 1600 938.74994"
   id="svg2"
   version="1.1"
   inkscape:version="0.91 r13725"
   inkscape:export-filename="/Users/mariachapa/Google Drive/AnimationistGirl/Freelance 2017/Upwork/36 Emilio Sole/Revs/sketch5R4.png"
   inkscape:export-xdpi="90"
   inkscape:export-ydpi="90"
   sodipodi:docname="sketch5CrossBars.svg">
  <defs
     id="defs4" />
  <sodipodi:namedview
     id="base"
     pagecolor="#ffffff"
     bordercolor="#666666"
     borderopacity="1.0"
     inkscape:pageopacity="0.0"
     inkscape:pageshadow="2"
     inkscape:zoom="0.58715953"
     inkscape:cx="684.37564"
     inkscape:cy="535.70343"
     inkscape:document-units="px"
     inkscape:current-layer="layer5"
     showgrid="false"
     fit-margin-top="0"
     fit-margin-left="0"
     fit-margin-right="0"
     fit-margin-bottom="0"
     inkscape:window-width="1463"
     inkscape:window-height="1048"
     inkscape:window-x="1033"
     inkscape:window-y="77"
     inkscape:window-maximized="0" />
  <metadata
     id="metadata7">
    <rdf:RDF>
      <cc:Work
         rdf:about="">
        <dc:format>image/svg+xml</dc:format>
        <dc:type
           rdf:resource="http://purl.org/dc/dcmitype/StillImage" />
        <dc:title />
      </cc:Work>
    </rdf:RDF>
  </metadata>
  <g
     inkscape:groupmode="layer"
     id="layer3"
     inkscape:label="cross bars 5"
     style="display:none">
    <path
       style="fill:#000000"
       d="m 882.73719,650.8557 c -10.94252,-9.23079 -48.29024,-33.97067 -65.95833,-43.69208 -18.74143,-10.31194 -35.51008,-18.19756 -65.95543,-31.0162 -13.58285,-5.71889 -36.09428,-15.29421 -50.02541,-21.27851 -13.93113,-5.98429 -26.10137,-11.06115 -27.04499,-11.28192 -1.27948,-0.29936 -3.11481,6.52096 -7.21926,26.82763 -8.70481,43.06687 -12.3133,55.79516 -15.04391,53.06456 -1.00571,-1.0057 4.35594,-25.668 11.53637,-53.06456 3.19482,-12.18974 5.87659,-23.8696 5.95946,-25.95523 0.14835,-3.73372 -0.12222,-3.89707 -17.57986,-10.61474 -18.09271,-6.96201 -62.1282,-21.81558 -96.25146,-32.46646 -10.44835,-3.26125 -36.39021,-12.10135 -57.64858,-19.64469 -21.25836,-7.54334 -40.35035,-13.89983 -42.42663,-14.12553 -2.07627,-0.2257 -4.34495,-1.06831 -5.04151,-1.87247 -1.36975,-1.58133 -18.624,-7.49814 -65.22303,-22.36621 -44.41898,-14.1725 -54.88928,-16.61001 -71.55535,-16.65828 -13.12873,-0.038 -14.33128,0.1785 -20.87824,3.75906 -3.83821,2.09913 -12.01201,8.9002 -18.26513,15.1976 -11.16499,11.24407 -11.23373,11.28888 -5.08433,3.31409 7.66106,-9.93516 15.63148,-17.08371 23.96423,-21.49315 5.7359,-3.03525 7.58483,-3.34151 19.63023,-3.25146 7.71081,0.0576 17.55474,1.04382 23.42963,2.34721 20.89452,4.63565 87.45843,26.13873 150.07629,48.48128 43.92912,15.67426 71.97048,25.00918 98.15115,32.67435 29.65612,8.68272 67.04883,22.51613 109.54935,40.52772 14.27941,6.05157 38.21562,16.01677 53.19158,22.14491 14.97597,6.12813 32.92813,13.67284 39.8937,16.766 38.61292,17.14673 107.01642,61.82952 107.01642,69.9057 0,2.06458 -4.0109,-0.16658 -11.19696,-6.22862 z m 44.18018,-2.22398 C 917.91507,634.04148 903.67264,615.84824 894.63438,607.39333 866.63825,581.2043 793.52261,543.614 695.91736,505.22855 c -79.90578,-31.4247 -191.6494,-68.89062 -294.63867,-98.78779 -13.58285,-3.94302 -42.93322,-12.62651 -65.22303,-19.29663 -54.58682,-16.33486 -49.81362,-15.40529 -57.11926,-11.1239 -7.95993,4.66483 -25.9027,22.94012 -34.89861,35.54537 -3.94053,5.52157 -10.41717,16.19558 -14.39252,23.72003 -3.97535,7.52445 -7.43226,13.47646 -7.68203,13.22669 -0.90716,-0.90716 2.39062,-10.65347 6.6392,-19.62161 5.91316,-12.48185 16.70912,-26.44174 31.64417,-40.918 9.79528,-9.49438 14.56942,-13.09051 22.15568,-16.68883 34.00284,-16.12832 78.46624,-28.13897 160.03656,-43.2298 95.64696,-17.69507 153.89633,-24.61414 195.03584,-23.16711 21.80488,0.76698 30.37603,1.8577 48.07116,6.11727 13.15331,3.16626 19.32834,2.47019 31.91982,-3.59816 6.5126,-3.13867 8.76906,-3.55266 18.90586,-3.46856 17.79462,0.14762 24.46256,4.28392 32.50399,20.16332 l 3.21379,6.3463 24.51157,5.45855 c 13.48128,3.00221 48.05341,10.83205 76.82677,17.39965 48.78176,11.13455 52.70375,11.84332 58.06496,10.49336 3.16211,-0.79625 7.05472,-2.75303 8.65009,-4.3484 1.59537,-1.59535 5.04332,-3.30261 7.662,-3.79389 6.06017,-1.13688 24.93052,1.55823 31.84492,4.54816 5.97405,2.58329 12.28232,10.35503 14.55081,17.92655 0.80357,2.68209 2.08119,5.35175 2.83917,5.93258 0.7578,0.58083 7.647,2.3652 15.3092,3.96529 21.7218,4.53618 67.4759,15.61631 91.1856,22.08213 56.7772,15.4836 146.2929,49.26307 192.205,72.53012 35.0596,17.76733 51.5118,31.66041 65.7383,55.51278 16.9209,28.36998 22.3908,39.8594 18.9759,39.8594 -1.9607,0 -4.9509,-4.3167 -12.1382,-17.5224 -6.9338,-12.73965 -18.6636,-31.06754 -20.6813,-32.31455 -1.0941,-0.67615 -21.2034,3.73927 -52.8633,11.60719 -11.1449,2.76966 -33.9413,8.29785 -50.6587,12.28487 -28.0809,6.69717 -50.584,12.09556 -115.8816,27.79934 -53.0217,12.75148 -117.7742,27.83666 -158.30836,36.88057 -48.74072,10.87493 -52.2325,11.74938 -51.68944,12.94436 0.21961,0.48344 4.24583,6.65556 8.94708,13.71582 4.70125,7.06026 8.54777,13.18679 8.54777,13.61452 0,0.42772 -0.71239,0.7728 -1.58309,0.76683 -0.87069,-0.006 -4.12285,-4.12717 -7.22709,-9.15825 z m 22.81299,-31.26408 c 36.31213,-7.31782 72.21324,-15.7268 205.72914,-48.18723 32.0416,-7.78996 82.0708,-19.78913 111.1761,-26.66483 51.6669,-12.20556 71.7814,-17.59213 75.6277,-20.25274 2.5093,-1.73584 -2.1231,-5.78112 -21.6174,-18.8772 -26.3482,-17.70049 -44.8914,-26.6268 -109.8395,-52.87452 -62.1428,-25.11404 -76.7656,-29.86219 -139.7626,-45.38221 -24.6201,-6.06543 -50.8053,-12.55436 -58.1892,-14.41983 -12.322,-3.113 -13.3767,-3.2058 -12.8335,-1.12899 0.3254,1.24452 1.4464,2.26275 2.4913,2.26275 1.0447,0 16.2233,3.7754 33.7302,8.38976 17.507,4.61437 38.9546,10.05993 47.6615,12.10122 23.7,5.5563 32.9282,8.49872 32.9282,10.49917 0,0.96478 -1.5673,2.99365 -3.4828,4.50858 -2.8128,2.22464 -4.5789,2.62316 -9.1819,2.07188 -5.2042,-0.62328 -61.1556,-15.33421 -63.2536,-16.63081 -0.7925,-0.48978 -12.3624,-3.72026 -43.7628,-12.21906 -4.87592,-1.31971 -12.37607,-2.65289 -16.66698,-2.96264 -4.29092,-0.30976 -9.91707,-1.44708 -12.50269,-2.5274 -2.58561,-1.08032 -6.05624,-1.96423 -7.71252,-1.96423 -1.65641,0 -3.01153,-0.50855 -3.01153,-1.13011 0,-0.62156 -9.88629,-3.57553 -21.9694,-6.56438 l -21.96952,-5.43428 -11.13857,2.99334 -11.13858,2.99334 20.12669,5.29641 c 29.88544,7.86441 47.83089,13.23082 49.25554,14.72933 0.87272,0.91797 0.47898,1.11145 -1.26646,0.62228 -1.39312,-0.39044 -14.786,-3.88455 -29.76197,-7.76467 -14.97596,-3.88012 -30.93344,-8.09161 -35.46106,-9.35886 l -8.23203,-2.30409 -33.56136,8.54253 c -18.45875,4.6984 -33.16268,8.59537 -32.67522,8.65995 0.48721,0.0646 8.75103,2.36758 18.36376,5.11777 9.61274,2.75021 33.4351,9.06189 52.93868,14.02594 19.50359,4.96407 36.01312,9.56351 36.68802,10.22098 1.76583,1.72052 -3.56016,0.59455 -36.68802,-7.75642 -31.99943,-8.06651 -69.73671,-18.52304 -72.56865,-20.10788 -1.45125,-0.8122 -75.68848,16.63913 -77.1962,18.14695 -0.42402,0.42397 20.93393,6.6924 52.24693,15.3342 19.06691,5.26208 27.1034,8.19573 22.45167,8.19573 -2.41769,0 -23.07794,-5.4326 -53.20717,-13.99077 l -28.2227,-8.01661 -12.30436,2.9263 c -6.76729,1.60945 -19.31698,5.79523 -27.88815,9.30172 -12.50894,5.11742 -15.94503,7.07368 -17.41391,9.91419 -2.8307,5.47393 -2.3011,11.77562 1.35475,16.12033 2.25419,2.67897 2.71676,3.9733 1.58308,4.42982 -1.11831,0.45035 -1.02837,0.67646 0.29805,0.74931 1.04484,0.0574 6.17403,1.86426 11.3982,4.01529 5.22417,2.15103 14.05778,5.76996 19.63023,8.04206 24.29753,9.90703 41.95549,17.71888 44.0097,19.46986 2.75077,2.34466 2.84284,5.75497 0.22619,8.37166 -3.78762,3.78755 -12.46368,2.50167 -26.37176,-3.90855 -19.53566,-9.00398 -64.34179,-27.02768 -67.22798,-27.04312 -4.09374,-0.0219 -13.34525,-3.25797 -21.55827,-7.5408 -13.45225,-7.01492 -107.0455,-39.3383 -165.27388,-57.07899 -9.40352,-2.86501 -18.52208,-5.68806 -20.26347,-6.27343 -1.74139,-0.58537 -8.86526,-2.59039 -15.83083,-4.45559 -6.96557,-1.86522 -16.65403,-4.71321 -21.52993,-6.32889 -4.8759,-1.61568 -19.97851,-5.89618 -33.56136,-9.51222 -47.1129,-12.54242 -44.92238,-11.82863 -45.34824,-14.77699 -0.53733,-3.72009 4.20858,-6.7349 10.60208,-6.7349 5.27145,0 29.55945,4.87108 53.44887,10.71946 7.15199,1.75088 14.84577,3.50506 17.09729,3.89818 2.25153,0.39311 6.65829,1.52121 9.79279,2.50686 7.37675,2.31965 20.66159,5.67189 22.47753,5.67189 0.77805,0 1.79149,-1.18732 2.25208,-2.6385 1.35891,-4.28153 15.65194,-20.08729 18.69601,-20.67471 1.54022,-0.29723 7.07473,-1.22979 12.29891,-2.07237 12.39368,-1.99892 22.30952,-4.79714 17.43955,-4.9214 -3.26946,-0.0835 -14.16555,-3.79887 -13.37608,-4.56111 0.20304,-0.19603 5.2134,0.88078 11.13413,2.39292 7.3738,1.88323 12.56029,2.50519 16.46406,1.97435 5.706,-0.77591 27.75163,-5.88348 40.16661,-9.30586 3.63288,-1.00148 8.19216,-2.08703 10.13173,-2.41236 1.93957,-0.32533 10.65036,-2.35276 19.35732,-4.50541 39.19592,-9.69057 63.21012,-15.33541 65.39071,-15.37092 2.21992,-0.0361 2.22846,-0.11816 0.1389,-1.33501 -1.22449,-0.71307 -2.79612,-0.94436 -3.4925,-0.51397 -0.69637,0.43039 -2.15734,-0.10866 -3.24659,-1.19792 -2.42226,-2.42226 -2.47804,-2.42152 5.43464,-0.0717 4.4628,1.3253 7.33963,1.5434 9.41175,0.71351 1.64138,-0.65738 2.27193,-1.23136 1.40123,-1.27551 -0.87069,-0.0442 -1.58308,-1.23421 -1.58308,-2.64456 0,-4.11421 5.50319,-5.49715 15.44156,-3.88043 20.58141,3.3481 17.15542,0.47413 -5.01491,-4.20685 -12.13162,-2.56147 -19.12953,-3.2796 -31.95838,-3.2796 -62.36218,0 -188.50084,17.62392 -267.22264,37.33598 -44.11517,11.04652 -77.25865,21.53057 -77.25252,24.43679 0.001,0.50453 8.69219,3.05065 19.31362,5.65804 10.62142,2.60739 29.2851,7.54211 41.47484,10.96603 12.18974,3.42393 33.27641,9.35113 46.85926,13.17157 51.32143,14.43513 155.73678,48.7951 231.76337,76.2664 115.76706,41.83103 206.32993,84.20143 249.78683,116.8644 11.45556,8.61013 30.10226,26.81465 30.10226,29.3883 0,2.12768 4.71113,1.49066 36.79921,-4.97592 z M 753.31039,506.51353 c 2.04117,-2.45954 0.81586,-4.12509 -4.7899,-6.51085 -43.49468,-18.51094 -74.4749,-30.90538 -77.24878,-30.90538 -3.97479,0 -9.83984,3.60416 -8.25779,5.07453 0.58111,0.5401 10.74504,4.8356 22.5865,9.54555 11.84146,4.70994 29.50867,12.16504 39.26045,16.56689 18.1548,8.19486 25.48599,9.80008 28.44952,6.22926 z m -95.5744,-34.8798 c 0.42931,-0.69463 3.88241,-2.78179 7.67355,-4.63813 l 6.89298,-3.37517 0,-8.14764 c 0,-11.66503 1.9839,-13.92618 16.97766,-19.35036 6.66801,-2.41224 12.12981,-4.97147 12.13736,-5.68717 0.0365,-3.46519 -4.08465,-6.93075 -8.24189,-6.93075 -7.03616,0 -22.81275,5.68107 -29.58782,10.65443 -8.10597,5.95034 -17.66688,16.53004 -21.60809,23.91064 l -3.09376,5.79359 3.09376,2.68413 c 5.98905,5.19608 14.0752,7.80645 15.75625,5.08643 z m -21.56029,-11.3388 c 1.06272,-2.05508 1.93223,-4.04212 1.93223,-4.41564 0,-2.8542 -138.15179,-50.90461 -150.18906,-52.23709 -6.34301,-0.70215 -15.71806,2.11902 -15.71806,4.72992 0,0.57368 9.26104,3.97589 20.58008,7.56047 27.73834,8.78433 98.44398,32.595 121.89741,41.04992 10.44835,3.7666 19.12483,6.89349 19.28109,6.94865 0.15625,0.0551 1.1536,-1.58115 2.21631,-3.63623 z m 4.46516,-8.74985 c 0,-2.05197 10.39555,-12.89793 17.54555,-18.30576 9.14402,-6.91599 28.75048,-12.93284 38.74539,-11.89025 3.7212,0.38816 8.25415,-0.004 10.83179,-0.93517 l 4.43263,-1.60266 -15.1976,-4.7082 c -8.35868,-2.5895 -32.2949,-10.01036 -53.19159,-16.4908 -36.63174,-11.36012 -43.41429,-13.43462 -73.13557,-22.36902 -7.4864,-2.25046 -13.3704,-4.33299 -13.07555,-4.62784 0.80239,-0.80239 31.4601,8.07554 95.70962,27.71581 31.69332,9.68826 59.61891,17.93585 62.05685,18.328 3.10853,0.50002 14.45797,-1.78259 37.99399,-7.64134 18.45875,-4.59488 34.6352,-8.79994 35.94764,-9.34458 1.75418,-0.72789 -1.43339,-2.10424 -12.03144,-5.19502 -7.92972,-2.31265 -25.53095,-7.57103 -39.1138,-11.68531 -28.07523,-8.50408 -29.51374,-8.93828 -54.14139,-16.34205 -9.92591,-2.98401 -17.80058,-5.672 -17.49928,-5.9733 0.30129,-0.30131 16.40124,4.12716 35.77763,9.84102 49.34863,14.55232 79.64821,23.44815 87.756,25.76485 l 6.9334,1.9811 27.26119,-7.00047 c 14.9937,-3.85026 29.54084,-7.59154 32.32707,-8.31396 l 5.06586,-1.31349 -10.13173,-2.84711 c -5.57245,-1.56593 -15.83083,-4.40404 -22.7964,-6.30693 -6.96556,-1.90291 -25.48763,-7.06358 -41.16016,-11.46819 -48.49528,-13.6291 -77.54103,-21.43028 -91.81881,-24.66091 -5.57245,-1.26088 -12.69632,-2.96644 -15.83083,-3.79017 -5.44246,-1.43022 -8.74504,-0.73133 -73.34036,15.52018 -37.2027,9.35981 -66.83802,17.3869 -65.85626,17.83797 0.98175,0.45106 0.376,0.54906 -1.34613,0.21778 -2.77099,-0.53307 -16.51837,2.34341 -27.26406,5.70468 -2.08967,0.65365 -7.91407,2.35033 -12.94311,3.77038 -8.78642,2.48103 -9.20108,2.77343 -10.61221,7.48336 -1.60628,5.36128 -0.77424,12.08596 1.93784,15.66184 1.08264,1.42746 18.5227,7.94096 46.50272,17.36782 24.62373,8.29606 57.59339,19.90324 73.26591,25.79372 30.71424,11.54388 30.3952,11.44076 30.3952,9.82402 z m -93.08529,-83.09641 c -2.78623,-0.91826 -3.92605,-1.68597 -2.53293,-1.70601 1.39311,-0.02 4.52762,0.73171 6.96556,1.67055 5.7053,2.19711 2.21108,2.22506 -4.43263,0.0355 z m 109.54935,-10.16719 c -2.43794,-0.93884 -3.57776,-1.70699 -2.53293,-1.70699 1.04484,0 3.89439,0.76815 6.33233,1.70699 2.43795,0.93885 3.57777,1.707 2.53294,1.707 -1.04484,0 -3.89439,-0.76815 -6.33234,-1.707 z m -14.56436,-4.43263 c -1.67014,-0.71768 -1.88584,-1.11215 -0.63323,-1.15806 1.04483,-0.0383 2.75456,0.48283 3.7994,1.15806 2.31506,1.4961 0.31546,1.4961 -3.16617,0 z m 124.5671,60.24898 c 33.88191,-8.65647 86.6795,-22.06194 117.32799,-29.78994 54.70046,-13.79268 63.95656,-16.53748 63.95656,-18.9656 0,-2.66918 -2.85829,-2.4485 -16.64504,1.28519 -7.91086,2.14238 -16.66303,4.37768 -19.44926,4.96733 -2.78622,0.58964 -19.59856,4.78511 -37.36076,9.32327 -17.76219,4.53815 -63.90564,16.28982 -102.54098,26.11481 -38.63546,9.825 -70.42129,18.03877 -70.63534,18.25283 -0.79256,0.79254 1.25196,4.55112 2.47562,4.55112 0.69727,0 28.98931,-7.08256 62.87121,-15.73901 z m 340.82714,11.76106 c 3.237,-1.12843 3.7233,-1.68104 2.2199,-2.52244 -1.0589,-0.5926 -18.0843,-5.31039 -37.8342,-10.48396 -19.7499,-5.1736 -40.1832,-10.60442 -45.4074,-12.06852 -19.5176,-5.46987 -36.62998,-9.24954 -38.5469,-8.51395 -2.57916,0.9897 -2.55864,3.37222 0.0291,3.37222 1.10499,0 6.0917,1.12416 11.08157,2.49813 4.98993,1.37398 13.63193,3.63768 19.20433,5.03045 5.5725,1.39276 13.5512,3.70358 17.7306,5.13515 4.1793,1.43156 20.4187,6.05124 36.0875,10.26595 15.6688,4.2147 28.7292,7.90359 29.0231,8.19754 0.8155,0.81549 1.9049,0.6608 6.4125,-0.91057 z M 475.24979,401.93567 c 4.65586,-2.11106 9.06996,-3.46455 9.8091,-3.00772 0.92166,0.56962 1.01311,-0.51244 0.29105,-3.44388 -1.71639,-6.96835 -1.11531,-12.06232 1.95142,-16.53793 2.32035,-3.38632 4.72192,-4.78954 12.24167,-7.15266 10.25434,-3.22249 11.37011,-4.10427 9.5342,-7.53471 -1.15489,-2.15793 -2.03885,-2.20682 -13.67308,-0.75617 -6.84111,0.85301 -12.61449,1.59447 -12.82973,1.64769 -0.21525,0.0532 -0.06,0.6329 0.34499,1.28821 0.43719,0.70736 -1.08845,0.89532 -3.75496,0.4626 -4.01307,-0.65123 -4.99379,-0.19708 -9.21026,4.26508 -6.98155,7.38838 -14.27862,17.99868 -16.28052,23.67267 -0.96986,2.74884 -1.59386,5.16741 -1.38669,5.37459 0.89322,0.89321 11.80988,5.50743 13.08971,5.53272 0.77435,0.0153 5.21726,-1.69942 9.8731,-3.81049 z m -26.47897,-5.85465 c 1.06332,-2.5449 1.78336,-4.77208 1.60007,-4.94931 -0.81473,-0.78779 -63.03115,-15.8964 -80.67204,-19.59035 -14.91854,-3.1239 -20.59482,-3.82911 -23.96667,-2.97754 -2.43006,0.61373 -4.61534,1.71965 -4.85618,2.45762 -0.25693,0.78723 16.71385,5.95215 41.06397,12.49748 22.82604,6.13565 46.34612,12.46884 52.26685,14.07377 5.92073,1.60492 11.18475,2.96246 11.69782,3.01672 0.51307,0.0543 1.80285,-1.98349 2.86618,-4.52839 z m 534.12944,-4.21286 c 1.75329,-1.37918 4.67972,-3.0748 6.50305,-3.76804 4.26761,-1.62253 4.27027,-4.92469 0.0127,-12.75142 -5.63615,-10.3556 -14.24192,-14.8393 -32.79147,-17.0848 -3.48393,-0.42174 -7.75825,-0.199 -9.4985,0.49496 -2.23456,0.89104 -2.50938,1.28535 -0.93541,1.34204 1.22568,0.0442 3.20454,1.2201 4.39742,2.61321 1.74342,2.03618 3.73595,2.53294 10.15997,2.53294 7.30245,0 16.77524,2.52341 16.77524,4.46864 0,0.43916 -1.84106,0.39412 -4.09119,-0.10006 -3.57638,-0.78551 -3.88907,-0.655 -2.48468,1.03723 0.88361,1.06469 1.46758,4.00131 1.29749,6.52582 -0.24848,3.68947 -1.12766,5.07293 -4.48101,7.05146 -6.48013,3.82344 -5.88033,4.79056 5.32676,8.58862 5.55307,1.88192 6.30333,1.80922 9.81182,-0.95056 z m -22.24409,-5.78675 c 0.24898,-0.74794 -4.96443,-2.60629 -11.92657,-4.25128 -6.80283,-1.60736 -13.7936,-3.60146 -15.53499,-4.43134 -2.39527,-1.1415 -4.5537,-1.16252 -8.86526,-0.0864 -5.9467,1.48434 -5.4529,2.05282 3.16616,3.64493 8.57069,1.58315 10.53422,2.02082 19.63023,4.3756 10.27789,2.66074 12.84653,2.80282 13.53043,0.74845 z m 5.46657,-5.68143 c 0,-0.57208 -3.27698,-1.72325 -7.28218,-2.55814 -4.0052,-0.8349 -9.84678,-2.20531 -12.98128,-3.04536 -3.13451,-0.84004 -7.12388,-1.11782 -8.86527,-0.61726 l -3.16616,0.9101 3.7994,0.9042 c 2.08966,0.49732 8.64363,2.15007 14.56436,3.67278 10.46519,2.69148 13.93113,2.87401 13.93113,0.73368 z m -85.48649,-3.59845 8.86527,-2.3188 -5.06587,-1.38193 c -5.82283,-1.58842 -66.269,-15.61452 -96.25145,-22.33447 -11.14491,-2.4979 -22.41925,-5.1343 -25.05413,-5.85868 -2.63501,-0.7244 -6.90934,-1.58069 -9.4985,-1.90288 -8.01661,-0.99757 -19.80703,-3.40001 -21.9048,-4.4634 -1.09968,-0.55742 -9.75876,-2.71825 -19.24253,-4.80184 -9.48375,-2.08359 -18.42296,-4.41976 -19.86492,-5.19148 -2.67327,-1.43069 -11.45153,-0.52734 -11.45153,1.17844 0,0.5088 12.68049,4.11199 28.17888,8.00709 34.14861,8.58236 63.87308,16.48253 114.93182,30.54664 21.24498,5.85193 40.62192,10.68491 43.05986,10.73998 2.43795,0.0551 8.42201,-0.94333 13.2979,-2.21867 z m 89.26651,-1.73937 c -0.0355,-5.13692 -1.9824,-6.63494 -8.47646,-6.52018 -3.33764,0.059 -8.22633,0.909 -10.86349,1.88893 l -4.7951,1.7817 11.12743,2.70406 c 6.11995,1.48724 11.55473,2.76954 12.07715,2.84955 0.52242,0.08 0.94111,-1.1368 0.93047,-2.70406 z m -68.36981,-3.41173 c 2.98911,-0.89021 2.88298,-1.02084 -1.8997,-2.33621 -2.78623,-0.76631 -16.17911,-4.0584 -29.76196,-7.31577 -13.58286,-3.25737 -37.23412,-8.93889 -52.55836,-12.62559 -15.32425,-3.68669 -32.2811,-7.6649 -37.68182,-8.84046 -5.40072,-1.17556 -10.13616,-2.64964 -10.52307,-3.27573 -1.08624,-1.75768 -7.23836,-1.27062 -9.96012,0.78854 -1.3422,1.01549 -2.19707,2.04578 -1.8997,2.28955 0.47188,0.38675 12.63895,3.24156 58.16501,13.6476 5.92073,1.35332 26.15253,6.11208 44.95956,10.57502 36.04211,8.55285 36.17915,8.57647 41.16016,7.09305 z M 567.1858,355.15721 c 24.0312,-6.20534 67.62931,-17.32577 96.88469,-24.71205 58.54253,-14.78058 61.42361,-15.6254 61.42361,-18.01089 0,-2.26342 -2.17553,-2.0722 -10.8833,0.95662 -4.11424,1.43106 -12.32468,3.65666 -18.24541,4.94579 -37.60814,8.18851 -180.9277,43.94049 -182.72931,45.583 -0.54525,0.4971 -0.65998,1.7674 -0.25496,2.82289 0.87724,2.28603 -3.88893,3.31229 53.80468,-11.58536 z m 349.54475,12.67086 c 3.9477,-1.20431 3.05763,-1.55353 -12.66467,-4.9692 -6.61729,-1.4376 -21.14999,-4.59932 -32.29489,-7.02604 -64.44542,-14.03249 -97.36861,-20.91928 -97.82504,-20.46282 -0.62171,0.62177 0.94503,1.08464 14.87148,4.39341 5.92073,1.40669 19.59857,4.65707 30.3952,7.22304 10.79662,2.56598 35.30275,8.52254 54.45806,13.23679 36.18497,8.90538 37.8391,9.19751 43.05986,7.60482 z M 756.09029,336.11832 c 2.88476,-2.08967 6.31713,-3.7994 7.62755,-3.7994 3.70644,0 4.19238,-3.55649 1.29964,-9.51056 -3.29408,-6.78032 -9.00584,-11.18126 -17.90669,-13.79714 -6.46417,-1.89979 -17.81729,-2.78446 -17.81729,-1.3884 0,0.34828 1.18288,1.81608 2.62855,3.26177 1.92377,1.92373 4.595,2.73511 9.96241,3.02602 6.85589,0.3716 14.00484,3.33971 14.00484,5.81455 0,1.89742 -2.72721,2.77429 -4.163,1.33851 -2.29269,-2.29265 -4.19429,-1.63186 -5.86665,2.03853 -0.86411,1.89638 -3.83233,5.38357 -6.59614,7.74933 -2.76394,2.36574 -4.66921,4.66106 -4.23393,5.10069 0.76368,0.77148 10.96292,3.50748 14.22179,3.81505 0.87665,0.0827 3.95416,-1.55928 6.83892,-3.64895 z m -22.31691,-4.80761 c -0.35601,-0.35599 -7.06625,-2.27883 -14.91163,-4.27297 -10.73841,-2.7295 -15.36,-3.3679 -18.69696,-2.58271 -4.21487,0.99177 -4.29967,1.11567 -1.72616,2.52174 4.8508,2.6503 32.58537,7.7201 34.3683,6.28242 0.88754,-0.71566 1.32245,-1.59249 0.96645,-1.94848 z m 5.49076,-3.93132 c 1.5423,-0.97695 -2.58321,-2.26331 -20.73559,-6.46545 -2.71234,-0.62789 -7.33935,0.0566 -6.46624,0.95663 0.68765,0.70883 20.13672,5.81219 24.82999,6.5153 0.34828,0.0522 1.41566,-0.40074 2.37184,-1.00648 z m 4.45822,-5.92902 c 1.17756,-3.06852 0.94313,-3.99113 -1.22518,-4.82321 -2.08144,-0.7987 -19.98928,1.72957 -19.03183,2.68695 0.98493,0.98491 12.71254,3.9103 16.14099,4.02629 1.96416,0.0665 3.6649,-0.71452 4.11602,-1.89003 z m -68.25826,-1.69455 c 1.99,-0.77673 1.29526,-1.17177 -3.26291,-1.85531 -6.09677,-0.91426 -10.49553,-0.0234 -9.31515,1.88644 0.84439,1.36627 9.04997,1.34597 12.57806,-0.0312 z M 420.27569,540.09491 c 0,-2.27605 6.61533,-19.50915 14.55546,-37.91731 11.92838,-27.65446 14.62284,-33.45288 15.25256,-32.82317 0.31459,0.31459 -4.61015,13.63584 -10.94388,29.60278 -6.33372,15.96693 -12.64026,32.02281 -14.01453,35.67973 -2.20108,5.85707 -4.84961,8.83784 -4.84961,5.45797 z"
       id="path9280"
       inkscape:connector-curvature="0" />
  </g>
  <g
     inkscape:groupmode="layer"
     id="layer4"
     inkscape:label="cross bars 6"
     style="display:none">
    <path
       style="fill:#000000"
       d="m 883.49015,651.0739 c -10.95491,-9.24131 -48.34523,-34.00938 -66.0335,-43.74186 -18.76274,-10.32369 -35.55047,-18.21829 -66.03049,-31.05154 -13.59833,-5.72541 -36.13542,-15.31164 -50.08243,-21.30275 -13.947,-5.99112 -26.1311,-11.07375 -27.07579,-11.29478 -1.28095,-0.2997 -3.11837,6.52839 -7.2275,26.8582 -8.71471,43.11593 -12.32732,55.85872 -15.06105,53.12501 -1.00685,-1.00684 4.36091,-25.69724 11.54952,-53.12501 3.19846,-12.20363 5.88329,-23.89679 5.96624,-25.9848 0.14853,-3.73798 -0.12234,-3.90151 -17.59988,-10.62683 -18.11332,-6.96995 -62.19899,-21.84044 -96.36112,-32.50345 -10.46025,-3.26497 -36.43166,-12.11515 -57.71426,-19.66708 -21.28258,-7.55193 -40.39631,-13.91566 -42.47497,-14.14162 -2.07863,-0.22596 -4.3499,-1.06953 -5.04725,-1.8746 -1.3713,-1.58314 -18.64522,-7.50669 -65.29733,-22.3917 -44.4696,-14.18864 -54.95182,-16.62894 -71.63689,-16.67726 -13.14368,-0.038 -14.3476,0.1787 -20.90201,3.76336 -3.8426,2.10152 -12.02571,8.91032 -18.28595,15.21491 -11.17771,11.25687 -11.24653,11.30173 -5.09012,3.31786 7.66979,-9.94649 15.64928,-17.10318 23.99153,-21.51764 5.74244,-3.03871 7.59348,-3.34531 19.65259,-3.25517 7.71959,0.0577 17.57475,1.04501 23.45633,2.34989 20.91832,4.64094 87.55807,26.16852 150.24727,48.53651 43.97917,15.69212 72.05248,25.03768 98.26298,32.71159 29.68991,8.69261 67.12521,22.54178 109.67417,40.57388 14.29568,6.05846 38.25916,16.03503 53.25219,22.17015 14.99303,6.13511 32.96565,13.68841 39.93915,16.7851 38.65694,17.16627 107.13834,61.89996 107.13834,69.98534 0,2.06694 -4.01547,-0.16677 -11.20977,-6.23571 z m 44.23055,-2.22651 C 918.70813,634.24052 904.44952,616.02655 895.40091,607.56201 867.37285,581.34314 794.17401,543.71002 696.45752,505.28083 616.4607,473.82032 504.58977,436.31172 401.48316,406.38049 c -13.59834,-3.94751 -42.98213,-12.6409 -65.29734,-19.31862 -54.64901,-16.35346 -49.87037,-15.42284 -57.18433,-11.13656 -7.96901,4.67013 -25.93221,22.96625 -34.93838,35.58586 -3.94502,5.52786 -10.42903,16.21403 -14.40891,23.74706 -3.97988,7.53302 -7.44073,13.49181 -7.69078,13.24175 -0.9082,-0.90819 2.39334,-10.6656 6.64675,-19.64396 5.9199,-12.49607 16.72816,-26.47186 31.68023,-40.96461 14.00184,-13.57172 19.40517,-16.6316 48.8627,-27.67082 36.12016,-13.53604 108.85484,-29.38276 204.54004,-44.5632 80.57939,-12.7839 136.92285,-14.48057 171.3708,-5.16046 2.90107,0.7849 11.40817,2.53317 18.90467,3.88504 12.80712,2.30954 14.55099,2.34392 28.8849,0.56936 8.3902,-1.03874 15.85875,-2.37239 16.5968,-2.96369 3.75239,-3.00629 17.37364,-2.1706 31.35772,1.92388 3.836,1.12315 9.88414,8.48947 12.31027,14.99324 l 2.38314,6.38854 12.51289,2.84931 c 6.8821,1.56712 36.47638,8.28725 65.76509,14.93364 29.28871,6.64638 54.39331,12.63486 55.78801,13.30774 1.3947,0.67289 5.95918,1.96459 10.14327,2.87045 9.92478,2.14873 29.32074,0.0715 36.72048,-3.93255 2.84843,-1.5413 7.23941,-2.69871 10.14328,-2.67362 7.7837,0.0672 23.84754,3.21571 28.38894,5.56418 4.9295,2.54915 11.0943,10.79721 13.1176,17.55052 0.8238,2.74946 2.1029,5.2305 2.8424,5.51341 0.7396,0.28291 12.7559,3.30312 26.7029,6.71159 41.4954,10.14093 66.6277,17.32647 100.7989,28.81924 50.2761,16.90942 106.0659,39.40466 138.5378,55.86057 35.0996,17.78758 51.5706,31.69648 65.8132,55.57604 16.9402,28.4023 22.4164,39.90481 18.9976,39.90481 -1.9629,0 -4.9566,-4.32163 -12.1521,-17.54237 -6.9416,-12.75416 -18.6848,-31.10293 -20.7048,-32.35136 -1.0953,-0.67693 -21.2277,3.74352 -52.9236,11.62042 -11.1575,2.77281 -33.98,8.30729 -50.7164,12.29886 -28.1128,6.7048 -50.6417,12.10934 -116.0136,27.83102 -53.0821,12.766 -117.9085,27.86836 -158.48881,36.92257 -48.79622,10.88733 -52.29207,11.76277 -51.7484,12.95912 0.21993,0.48399 4.25075,6.66314 8.95736,13.73144 4.70662,7.06831 8.55748,13.20182 8.55748,13.63003 0,0.42821 -0.71319,0.77368 -1.58488,0.7677 -0.87169,-0.006 -4.12759,-4.13186 -7.23535,-9.16867 z m 22.83901,-31.29971 c 36.35351,-7.32615 72.29549,-15.74472 205.96359,-48.24213 32.0781,-7.79883 82.1643,-19.81167 111.3028,-26.6952 51.7257,-12.21948 71.8631,-17.61218 75.7138,-20.27581 1.5953,-1.10352 1.1865,-1.93862 -2.5358,-5.18009 -6.7255,-5.8568 -32.4032,-22.8252 -44.6081,-29.47815 -28.0002,-15.26285 -120.2964,-52.88649 -162.6952,-66.32095 -22.2543,-7.05155 -99.4287,-25.98896 -102.2552,-25.09187 -1.3961,0.4431 -2.28,1.06399 -1.9642,1.37977 0.7936,0.79364 34.7969,9.78237 54.771,14.47867 24.4266,5.74316 33.5996,8.65605 33.5996,10.66948 0,0.96588 -1.569,2.99706 -3.4867,4.51372 -2.8168,2.2277 -4.5831,2.62602 -9.1924,2.07292 -6.0083,-0.72097 -44.2129,-10.8265 -67.8332,-17.9426 -7.6708,-2.31101 -19.9378,-5.45611 -27.26,-6.98907 -7.3222,-1.53297 -15.59531,-3.61567 -18.38471,-4.62824 -5.74187,-2.08431 -52.90353,-14.00248 -57.71758,-14.58575 -4.02163,-0.48724 -25.16251,2.70021 -25.90785,3.90617 -0.31019,0.50189 2.40299,1.65843 6.02928,2.5701 17.21488,4.3279 46.03281,13.01211 47.16633,14.21344 0.8777,0.93024 0.4875,1.12507 -1.26791,0.63307 -5.45861,-1.52985 -58.48451,-15.19026 -61.09289,-15.73862 -3.2628,-0.68591 -15.83119,1.71669 -45.41151,8.68094 -24.07532,5.66817 -25.33889,6.02344 -24.47972,6.88262 0.97152,0.97152 25.56206,7.69589 63.15096,17.26887 19.17714,4.88395 35.42024,9.41845 36.0958,10.07667 0.77252,0.75269 -0.40369,0.88668 -3.16977,0.3611 -9.3445,-1.77554 -45.36987,-10.87941 -71.97997,-18.18985 -15.31161,-4.20647 -29.47715,-7.65849 -31.47902,-7.67115 -3.43738,-0.0217 -22.03195,3.56245 -46.11471,8.88882 -5.92747,1.31098 -15.82485,3.36488 -21.99418,4.56424 -6.60608,1.28427 -10.515,2.57006 -9.50932,3.12797 1.8846,1.04551 17.14395,5.49189 49.8882,14.53678 19.19341,5.30176 27.13187,8.21041 22.40839,8.21041 -2.44345,0 -19.93048,-4.60926 -51.46513,-13.56525 -19.82646,-5.63083 -30.29846,-8.02978 -32.96564,-7.55184 -14.03679,2.51515 -23.75854,5.07524 -29.26711,7.70709 -3.48675,1.66587 -10.20659,4.57576 -14.93299,6.46643 -5.02012,2.00816 -9.19549,4.56191 -10.04128,6.1415 -0.7963,1.48716 -1.79938,6.53663 -2.22906,11.22104 -0.75814,8.26509 -0.68613,8.55298 2.43381,9.73007 10.00097,3.77311 21.54854,8.38677 36.1807,14.45545 42.20549,17.50469 43.74289,18.2975 43.74289,22.55738 0,3.93112 -3.6159,6.23359 -9.78947,6.23359 -4.29573,0 -9.46314,-1.68093 -19.87901,-6.46658 -23.80085,-10.93548 -65.74027,-27.37073 -71.89312,-28.17354 -3.20893,-0.41868 -9.77037,-2.81342 -14.58097,-5.32162 -16.27112,-8.48366 -95.99107,-35.9434 -179.28033,-61.75357 -4.53277,-1.40464 -11.95005,-3.2868 -16.48282,-4.18258 -4.53278,-0.89578 -12.83728,-3.34906 -18.45445,-5.45172 -5.61717,-2.10268 -23.3045,-7.35469 -39.30519,-11.67117 -16.00069,-4.31648 -33.65664,-9.08654 -39.23543,-10.60018 -8.30647,-2.25368 -10.21375,-3.23989 -10.5324,-5.44604 -0.53794,-3.72433 4.21337,-6.74257 10.61416,-6.74257 5.71025,0 30.5796,5.0796 57.97664,11.8418 l 17.48528,4.31577 1.72913,-3.32413 c 0.95102,-1.82827 5.07696,-6.89012 9.16871,-11.24856 6.34061,-6.75385 8.09099,-7.92764 11.84936,-7.94617 2.42538,-0.0114 8.68897,-1.14328 13.9191,-2.51408 5.23013,-1.3708 12.93267,-2.52217 17.11678,-2.55863 4.1841,-0.0365 11.31609,-0.90525 15.84887,-1.93067 4.53277,-1.02542 16.22924,-3.31206 25.99214,-5.0814 50.15098,-9.08897 69.07312,-12.24095 87.95126,-14.54387 25.45288,-3.10497 58.24893,-7.80312 37.25479,-10.43947 -0.59457,-0.0747 0.65758,-0.74467 1.70362,-0.45261 1.04602,0.29182 4.07947,1.29358 7.66093,1.67416 6.46703,0.68722 6.50741,0.66925 5.87919,-2.61711 -0.982,-5.13696 3.98487,-6.45269 17.03154,-4.51168 5.73245,0.85285 15.25542,3.14827 15.25542,3.14827 l 7.94034,-0.65931 c 4.84116,-0.86142 6.03251,-0.30935 2.80507,-0.57148 -2.09204,-0.16991 -5.35603,-0.98371 -6.14936,-0.88852 -0.79333,0.0952 -9.06644,-1.61274 -18.38469,-3.79543 -13.20698,-3.09358 -20.86751,-4.10658 -34.74627,-4.59471 -55.86552,-1.96491 -190.17948,16.2369 -273.1812,37.02066 -44.16543,11.0591 -77.34667,21.55509 -77.34053,24.46462 10e-4,0.50512 8.70209,3.05413 19.33561,5.6645 10.63354,2.61035 29.31847,7.5507 41.5221,10.97852 12.20363,3.42783 33.31431,9.36178 46.91265,13.18657 51.37989,14.45158 155.91421,48.8507 232.02743,76.35329 115.89899,41.87869 206.56497,84.29737 250.07143,116.99755 11.46855,8.61994 30.13654,26.8452 30.13654,29.42178 0,2.13011 4.71649,1.49236 36.84115,-4.98159 z M 754.01478,506.44811 c 1.33702,-1.61099 1.30784,-2.2664 -0.16172,-3.6338 -0.98612,-0.91758 -15.48637,-7.402 -32.22278,-14.40982 -47.57739,-19.92147 -50.09799,-20.84328 -54.65639,-19.98811 -3.58758,0.67304 -8.02342,3.93723 -6.70091,4.931 0.2737,0.20569 11.053,4.55749 23.95398,9.6707 12.90097,5.11321 31.44415,12.90318 41.20705,17.31104 18.38344,8.29993 25.50532,9.8247 28.58077,6.11899 z m -95.18057,-36.66894 c 1.6188,-1.72315 4.74153,-3.72645 6.9394,-4.45182 3.71592,-1.22636 4.09775,-1.91205 5.44524,-9.77871 2.0486,-11.95963 4.06847,-14.07592 18.47498,-19.35683 6.73195,-2.46769 12.2498,-5.19992 12.26189,-6.0716 0.0127,-0.87169 -1.18585,-2.79271 -2.66205,-4.26891 -3.23194,-3.23195 -8.39077,-2.912 -22.39932,1.38916 -8.10885,2.48975 -9.03617,3.0795 -7.60746,4.83832 1.41037,1.73625 1.28935,1.8612 -0.9088,0.93841 -4.43196,-1.86057 -10.40314,-2.23548 -13.04927,-0.81932 -2.24618,1.20212 -11.67497,18.05923 -11.67497,20.87292 0,0.58119 -1.14111,2.5074 -2.53581,4.28047 -3.86993,4.91981 -3.12495,6.98236 4.1207,11.40882 8.06585,4.92752 9.80146,5.05762 13.59547,1.01909 z m -21.79007,-11.12625 c 1.41078,-3.32052 1.26025,-3.57369 -3.24594,-5.4591 -10.36265,-4.3358 -77.70619,-28.41805 -88.40732,-31.61471 -6.27615,-1.87484 -22.5371,-7.00928 -36.13542,-11.40992 -31.92125,-10.3302 -54.63246,-17.14039 -57.1519,-17.13756 -2.50533,0.002 -8.02958,5.74561 -7.05064,7.32958 0.3996,0.64655 3.74009,2.08313 7.42332,3.19238 49.00585,14.75885 118.56184,37.57667 162.64965,53.35716 10.46026,3.74407 19.3382,6.45118 19.72876,6.01579 0.39057,-0.43539 1.37583,-2.35852 2.18949,-4.27362 z m 9.69604,-17.98691 c 4.94684,-10.01163 6.56447,-11.2202 17.20023,-12.85074 3.13808,-0.4811 10.22797,-2.22757 15.75533,-3.88106 5.52735,-1.65349 13.2299,-3.01413 17.11678,-3.02366 7.48771,-0.0184 12.77263,-1.00165 12.77263,-2.37649 0,-0.45658 -20.96806,-7.32927 -46.59568,-15.27268 -49.11561,-15.22361 -53.7528,-16.64105 -85.61162,-26.16874 -10.99853,-3.28922 -19.74202,-6.23569 -19.42999,-6.54772 0.852,-0.85201 31.65484,8.08344 95.84927,27.80447 32.93886,10.1191 60.13778,17.80437 63.39548,17.91293 3.13807,0.10458 16.26093,-2.26715 29.16191,-5.2705 37.14328,-8.64697 39.62218,-9.19032 45.52612,-9.97883 5.56346,-0.74304 5.52608,-0.76436 -8.87536,-5.06127 -47.53533,-14.18299 -74.4433,-22.26765 -77.22386,-23.20239 -1.74338,-0.58608 -11.30023,-3.48892 -21.23745,-6.45075 -9.93721,-2.96186 -17.82086,-5.63198 -17.5192,-5.93363 0.30163,-0.30164 16.41992,4.13453 35.81838,9.85815 19.39848,5.72361 46.96642,13.79948 61.2621,17.94633 14.29568,4.14685 28.17787,8.3364 30.84929,9.31012 4.29366,1.56498 6.13236,1.49657 15.84887,-0.58969 22.34006,-4.79672 24.96542,-5.44141 26.21236,-6.43686 0.7005,-0.55921 5.83554,-1.66268 11.41119,-2.45218 5.57565,-0.78949 13.56089,-2.15484 17.745,-3.03413 l 7.60746,-1.59868 -5.18752,-0.85549 c -2.85313,-0.47053 -9.98512,-2.20847 -15.84886,-3.86211 -5.86376,-1.65362 -16.36696,-4.56219 -23.34045,-6.46347 -6.9735,-1.90128 -23.51972,-6.51365 -36.76938,-10.24968 -43.50924,-12.26845 -56.07233,-15.6453 -103.96857,-27.94594 -13.59869,-3.49239 -26.25673,-2.85726 -55.15405,2.76744 -8.71688,1.69669 -22.41031,4.2185 -30.42983,5.604 -8.01953,1.38553 -24.85103,4.44827 -37.40333,6.8061 -12.5523,2.35785 -28.94228,5.28071 -36.42215,6.49525 -8.59365,1.3954 -13.30101,2.69174 -12.78809,3.52166 0.49332,0.7982 0.005,1.0036 -1.24629,0.52364 -2.86212,-1.0983 -27.38676,2.70133 -31.2911,4.84795 -1.76128,0.96836 -7.68545,3.30301 -13.16488,5.18807 -9.38046,3.22719 -10.09629,3.73942 -12.25126,8.76677 -1.25878,2.93662 -2.48121,6.97741 -2.71652,8.97955 -0.42723,3.63518 -0.40667,3.64611 14.78708,7.86049 35.14918,9.74952 128.56026,41.214 165.46218,55.73409 4.211,1.65693 5.20477,0.68858 10.69378,-10.42032 z m -98.17953,-71.91433 c -2.44073,-0.6771 -6.63487,-1.80426 -9.32032,-2.50479 -2.68546,-0.70054 -4.61255,-1.5438 -4.28244,-1.87391 0.60687,-0.60688 20.07137,4.27703 21.0848,5.29044 0.86036,0.86038 -2.62527,0.43563 -7.48204,-0.91174 z M 520.42891,360.47 c 0.91526,-0.36627 2.00885,-0.32123 2.43017,0.10001 0.42131,0.4213 -0.32756,0.72098 -1.66413,0.66593 -1.47706,-0.0608 -1.77749,-0.36129 -0.76604,-0.76602 z m 137.17195,-2.30366 c -2.44073,-0.93991 -3.58184,-1.70894 -2.53582,-1.70894 1.04603,0 3.89882,0.76903 6.33955,1.70894 2.44073,0.93991 3.58184,1.70894 2.53582,1.70894 -1.04603,0 -3.89882,-0.76903 -6.33955,-1.70894 z m -14.58095,-4.43768 c -1.67205,-0.71849 -1.888,-1.11341 -0.63396,-1.15938 1.04602,-0.0382 2.7577,0.48338 3.80373,1.15938 2.31769,1.4978 0.31581,1.4978 -3.16977,0 z m 78.15006,71.7638 c 9.31873,-2.37092 34.34519,-7.85127 55.61438,-12.17857 21.26918,-4.32729 38.95651,-8.23567 39.30519,-8.68531 0.34867,-0.44963 1.48979,-0.91827 2.53582,-1.04143 2.47893,-0.2919 21.32776,-4.18834 44.37683,-9.1736 32.06166,-6.93458 44.92267,-9.3436 68.46711,-12.82464 3.83542,-0.56708 11.82325,-1.90317 17.75072,-2.96909 5.92748,-1.06592 15.14169,-2.32624 20.47599,-2.8007 10.71325,-0.95289 14.32331,-2.29942 11.33057,-4.22623 -0.98618,-0.63493 -3.5537,-0.92427 -5.7056,-0.64297 -2.15189,0.28128 -13.61205,1.70817 -25.467,3.17086 -11.85495,1.46268 -24.12198,3.18002 -27.26005,3.81629 -3.13808,0.63629 -11.1259,2.01408 -17.75073,3.0618 -25.81406,4.08244 -73.55465,13.64908 -82.41411,16.51481 -3.13808,1.01505 -10.84063,2.65123 -17.11678,3.63594 -6.27615,0.98469 -13.12287,2.41575 -15.21491,3.18013 -4.75568,1.73756 -65.77656,15.15513 -76.07458,16.72763 -13.46248,2.05571 -13.27811,1.96742 -11.61131,5.56101 0.80742,1.74078 1.54619,3.16951 1.64169,3.17494 0.0954,0.005 7.79806,-1.92994 17.11677,-4.30087 z m 387.77453,0.32829 c 3.2407,-1.12972 3.7275,-1.68296 2.2223,-2.52532 -1.0601,-0.59327 -18.3902,-5.41887 -38.5112,-10.72355 -20.121,-5.30466 -39.4366,-10.4685 -42.9233,-11.47518 -7.8161,-2.25663 -13.0119,-2.53165 -14.7621,-0.78139 -0.9296,0.9296 1.0961,1.92479 6.7154,3.2991 4.4257,1.08237 11.47,3.15398 15.6541,4.6036 4.1841,1.44959 20.4421,6.08795 36.1287,10.30747 15.6867,4.2195 28.762,7.91259 29.0563,8.20687 0.8164,0.81642 1.907,0.66156 6.4198,-0.9116 z M 449.58186,390.53194 c 2.59477,-1.0748 3.89484,-2.50608 3.91343,-4.30844 0.0385,-3.73575 4.18893,-12.42902 7.08356,-14.83703 1.31886,-1.09712 6.67711,-3.368 11.90724,-5.04639 5.23013,-1.67837 9.70405,-3.16259 9.94206,-3.29827 0.238,-0.13568 0.0567,-1.43141 -0.40285,-2.87939 -1.38384,-4.36015 -5.05676,-5.52039 -12.47265,-3.94006 -11.68589,2.49029 -16.17566,3.94165 -15.51254,5.01458 0.35704,0.57772 -1.76534,0.78721 -4.71641,0.46551 -6.32533,-0.6895 -9.06366,1.3534 -14.37862,10.72699 -1.87848,3.31291 -4.99405,8.59097 -6.92351,11.72905 -5.68801,9.25096 -5.49238,9.90809 3.89141,13.071 l 8.24142,2.77786 2.77093,-3.93298 c 1.52402,-2.16312 4.51946,-4.65723 6.65653,-5.54243 z m 564.30154,6.99148 c 3.1381,-1.0244 7.2746,-2.17921 9.1924,-2.56625 2.7468,-0.5544 3.4867,-1.4149 3.4867,-4.05531 0,-4.63464 -6.7069,-14.64977 -12.4983,-18.66321 -7.4629,-5.17177 -26.93659,-8.60491 -33.73417,-5.94718 -2.26719,0.88642 -2.18976,1.04863 0.86642,1.81569 1.84582,0.46327 3.69855,1.9215 4.11719,3.24051 0.51518,1.62319 1.87415,2.35992 4.20521,2.27974 8.35951,-0.28751 15.03845,0.60702 17.29845,2.31689 1.3438,1.01665 2.0475,2.24421 1.5638,2.72795 -0.4837,0.48373 -1.5547,0.20434 -2.3799,-0.62086 -2.39,-2.39003 -3.1904,-1.80093 -4.0935,3.01297 -0.4687,2.49863 -2.85408,6.73528 -5.34363,9.49094 l -4.49695,4.97759 2.9837,1.10424 c 1.64104,0.60735 3.83955,1.42642 4.88559,1.82017 3.40449,1.28154 8.12959,0.96515 13.94699,-0.93388 z m -24.45941,-5.28222 c 0.90085,-2.70594 -40.16778,-11.52454 -45.08828,-9.68174 -2.38315,0.89252 1.43852,2.16183 19.01864,6.31678 22.9238,5.41788 25.28473,5.72262 26.06964,3.36496 z m -568.00218,-3.5913 c 1.5649,-5.09893 2.39009,-4.67102 -19.30469,-10.01072 -30.10697,-7.41019 -51.71919,-11.32148 -56.24376,-10.17878 -2.43283,0.61443 -4.62221,1.72648 -4.86532,2.47126 -0.35572,1.08978 72.16901,21.63392 77.69614,22.00907 0.75469,0.0512 1.97763,-1.87965 2.71763,-4.29083 z m 574.36277,-2.3659 c -0.93583,-2.80751 -32.26663,-8.34729 -35.59057,-6.29299 -0.69608,0.4302 6.07765,2.41805 15.05276,4.41744 8.9751,1.99937 16.546,3.86287 16.82423,4.14109 0.99888,0.99887 4.15907,-0.92906 3.71358,-2.26554 z m 3.23909,-5.88262 c 1.11473,-4.26289 -1.87028,-5.43547 -10.00769,-3.93118 -4.01282,0.7418 -7.61916,1.40463 -8.0141,1.47294 -0.56849,0.0984 13.20289,4.07023 16.56781,4.77843 0.44168,0.093 1.09598,-0.95113 1.45398,-2.32019 z M 893.78724,380.1379 c 9.55085,-1.45376 9.74485,-1.55183 6.10075,-3.08405 -2.07008,-0.87042 -23.6259,-6.20715 -47.90182,-11.85943 -66.02608,-15.37317 -69.86802,-16.24024 -81.54137,-18.40256 -5.92748,-1.09799 -19.90618,-4.19731 -31.06378,-6.8874 -51.69794,-12.46426 -52.69883,-12.65068 -56.15299,-10.45916 -1.00356,0.63674 9.25814,3.78292 26.62611,8.16347 30.53558,7.70165 54.23068,13.8888 73.26975,19.13185 62.57525,17.2322 91.44911,24.71174 95.72716,24.79734 2.7894,0.0558 9.51069,-0.57421 14.93619,-1.40006 z m 26.90482,-4.71603 c 3.47422,-0.7573 3.14471,-0.97506 -3.80373,-2.51375 -7.12636,-1.57809 -24.40054,-5.71859 -98.54529,-23.62065 -28.26426,-6.82433 -36.48706,-7.84311 -36.48706,-4.52063 0,0.62324 6.41879,2.622 14.26399,4.44169 7.84519,1.81968 16.54621,3.85764 19.33561,4.52881 2.7894,0.67116 22.18842,5.22359 43.10893,10.11652 20.9205,4.89292 40.60479,9.71326 43.74287,10.71188 6.05923,1.92819 12.16262,2.21241 18.38468,0.85613 z m 19.33136,-3.26115 c 0.17201,-0.1376 -15.23309,-3.81816 -34.23355,-8.17905 -69.62234,-15.97932 -107.734,-24.33971 -108.31343,-23.76028 -0.84601,0.846 8.75656,3.43673 42.70337,11.52108 16.38774,3.90271 43.4893,10.47478 60.2257,14.60463 21.20127,5.23157 31.77566,7.28968 34.86752,6.78629 2.44072,-0.39737 4.5784,-0.83507 4.75039,-0.97267 z M 494.04055,359.36698 c 3.83542,-1.06647 13.53493,-2.9975 21.55445,-4.2912 8.01953,-1.29369 21.14239,-3.54014 29.16192,-4.99214 8.01953,-1.45198 21.71295,-3.82709 30.42983,-5.278 27.18149,-4.52432 49.83321,-8.56138 56.16784,-10.01042 7.41197,-1.69547 37.72733,-6.19932 48.31795,-7.17844 0,0 22.59582,-3.26296 33.08238,-4.8179 6.9735,-1.04552 19.09789,-2.2978 26.94307,-2.78283 13.24459,-0.81884 17.11018,-2.04416 12.28728,-3.89487 -1.08719,-0.41721 -9.78822,0.2117 -19.33562,1.39756 -9.5474,1.18585 -25.79009,2.9348 -36.09487,3.88652 -18.36613,1.69628 -34.54302,3.82407 -48.46324,6.37453 -20.4443,3.7458 -41.75109,7.34131 -60.2257,10.16307 -12.20363,1.86395 -26.05311,4.1763 -30.77664,5.13855 -4.72351,0.96226 -10.99966,2.04746 -13.94699,2.41157 -2.94734,0.36411 -12.20551,2.04013 -20.5737,3.7245 -8.3682,1.68437 -20.63523,3.77541 -27.26005,4.64678 -6.62483,0.87136 -12.23988,1.72488 -12.47789,1.89671 -1.01352,0.73168 1.37007,5.57382 2.73703,5.5601 0.82468,-0.009 4.63752,-0.88762 8.47295,-1.95409 z M 779.84711,341.8511 c 2.16486,-1.65121 5.73704,-3.39776 7.9382,-3.88121 5.22644,-1.14792 5.85134,-3.20001 2.78691,-9.15192 -3.76319,-7.30912 -10.31029,-12.52819 -18.65231,-14.86884 -6.92002,-1.94166 -17.95793,-2.81909 -17.95793,-1.42753 0,1.98648 6.10427,6.22474 9.42463,6.54365 7.73183,0.74257 12.05792,1.82357 12.9273,3.23025 0.58202,0.94174 0.162,1.15629 -1.2231,0.62476 -1.57109,-0.60287 -2.59332,0.3484 -4.00499,3.727 -1.04251,2.49508 -4.30979,6.67903 -7.26063,9.29765 l -5.36514,4.76117 8.21121,1.92535 c 4.51618,1.05896 8.44264,1.99209 8.7255,2.07362 0.28284,0.0815 2.28551,-1.20273 4.45035,-2.85395 z m -22.9655,-3.9291 c -0.13757,-0.67412 -5.2726,-2.52628 -11.41118,-4.11589 -6.13859,-1.58963 -15.72552,-4.0704 -21.30433,-5.51284 -7.61557,-1.96907 -11.88106,-2.40011 -17.11677,-1.72964 -6.52111,0.83505 -6.72673,0.9629 -3.16977,1.97059 2.09204,0.5927 8.65347,1.98931 14.58095,3.1036 5.92748,1.1143 11.91835,2.54514 13.31305,3.17968 8.21884,3.7392 25.67813,5.89798 25.10805,3.1045 z m 6.18805,-4.91507 c 1.81749,-1.38167 -0.65792,-2.24429 -16.68165,-5.8131 -11.21892,-2.4987 -19.50345,-3.76192 -20.51887,-3.12873 -1.15872,0.72255 0.32319,1.5663 4.63651,2.63993 3.48675,0.86789 11.1893,2.98158 17.11678,4.69709 12.74154,3.68762 12.71156,3.6845 15.44723,1.60481 z m 4.79471,-5.82101 c 2.97693,-5.56245 1.95749,-6.25654 -8.51378,-5.79664 -5.40447,0.23736 -11.49043,0.47883 -13.52437,0.53661 -2.03393,0.0578 -3.30306,0.50003 -2.82027,0.98283 0.67461,0.67463 17.26291,5.47267 22.63958,6.54834 0.49848,0.0998 1.49696,-0.92229 2.21884,-2.27114 z m -86.80718,-6.47387 c 4.53544,-0.2191 4.13331,-0.43385 -3.80373,-2.03124 -8.79327,-1.7697 -16.02469,-1.35775 -13.81342,0.78692 1.20398,1.16772 7.46416,2.20015 10.64364,1.75536 1.04603,-0.14633 4.18411,-0.3763 6.97351,-0.51104 z M 420.5018,540.18692 c 0,-2.27865 6.62287,-19.53138 14.57205,-37.96052 11.94196,-27.68596 14.63949,-33.49098 15.26993,-32.86056 0.31496,0.31495 -4.6154,13.65138 -10.95634,29.63651 -6.34095,15.98512 -12.65467,32.05929 -14.0305,35.72038 -2.20358,5.86374 -4.85514,8.84791 -4.85514,5.46419 z"
       id="path9348"
       inkscape:connector-curvature="0"
       sodipodi:nodetypes="ssssssssssssssssssssssssssssssssssssscsssssssssscsssssssccssssssssssscsscscssssssscssssssssssccssssssscsssssssssssssssssssssssssscsscsssssscsssccscssscssssssccsssscssssssscsssssssssssssccssssssssssssssssssscssssssscsssssssssscsssssssssscscccccsssssscssssscsssssssssssssscssssscssscssssscsscsssscssscsssssscsscscssssssssssscssssssssccsssssscssssssssssssscssssscsssssccscssssssssccsssssssscsscscssssssssssssssssssscssssssssssss" />
  </g>
  <g
     inkscape:groupmode="layer"
     id="layer5"
     inkscape:label="cross bars 7">
    <path
       style="fill:#000000"
       d="m 884.57276,650.09984 c -10.96261,-9.2478 -48.37919,-34.03326 -66.07989,-43.77258 -18.77592,-10.33094 -35.57544,-18.23108 -66.07686,-31.07334 -13.60788,-5.72943 -36.1608,-15.3224 -50.1176,-21.31772 -13.9568,-5.99532 -26.14946,-11.08153 -27.09482,-11.30271 -1.28184,-0.29991 -3.12055,6.53298 -7.23256,26.87707 -8.72084,43.14621 -12.33598,55.89795 -15.07163,53.16232 -1.00756,-1.00756 4.36397,-25.71529 11.55762,-53.16232 3.20072,-12.2122 5.88743,-23.91358 5.97044,-26.00306 0.14863,-3.7406 -0.12244,-3.90425 -17.61225,-10.63429 -18.12603,-6.97485 -62.24266,-21.85578 -96.42879,-32.52628 -10.4676,-3.26726 -36.45725,-12.12365 -57.75479,-19.68089 -21.29753,-7.55724 -40.42469,-13.92543 -42.5048,-14.15155 -2.0801,-0.22612 -4.35296,-1.07028 -5.0508,-1.87592 -1.37227,-1.58425 -18.65831,-7.51195 -65.34319,-22.40742 -44.50083,-14.19861 -54.99041,-16.64062 -71.6872,-16.68897 -13.15291,-0.0381 -14.35767,0.17882 -20.9167,3.76599 -3.84529,2.10299 -12.03415,8.91659 -18.29878,15.2256 -11.18556,11.26478 -11.25444,11.30967 -5.0937,3.32019 7.67517,-9.95347 15.66028,-17.11518 24.00838,-21.53275 5.74647,-3.04085 7.59881,-3.34767 19.6664,-3.25745 7.72501,0.0577 17.58708,1.04574 23.4728,2.35154 20.93302,4.64419 87.61956,26.18689 150.35279,48.5706 44.01006,15.70313 72.10308,25.05526 98.33199,32.73455 29.71076,8.69872 67.17236,22.55762 109.75119,40.60239 14.30572,6.06271 38.28604,16.04628 53.2896,22.18571 15.00355,6.13942 32.98879,13.69803 39.96719,16.79689 38.6841,17.17832 107.21359,61.94344 107.21359,70.0345 0,2.06838 -4.01829,-0.16689 -11.21763,-6.2401 z m 44.2616,-2.22808 c -9.0189,-14.61712 -23.28752,-32.84388 -32.34249,-41.31437 -28.04774,-26.23728 -101.29798,-63.89684 -199.08311,-102.35301 -80.053,-31.4826 -192.0025,-69.01755 -295.18153,-98.9698 -13.60787,-3.95028 -43.01231,-12.64977 -65.34319,-19.33218 -54.6874,-16.36496 -49.9054,-15.43367 -57.2245,-11.14439 -7.9746,4.67342 -25.95042,22.98238 -34.96291,35.61086 -3.9478,5.53174 -10.43636,16.22541 -14.41904,23.76373 -3.98267,7.53831 -7.44595,13.50129 -7.69618,13.25105 -0.90883,-0.90882 2.39502,-10.67309 6.65143,-19.65775 5.92405,-12.50485 16.73991,-26.49046 31.70247,-40.99339 14.01168,-13.58125 19.4188,-16.64328 48.89703,-27.69025 36.14552,-13.54555 108.93128,-29.4034 204.68368,-44.5945 80.63598,-12.79288 137.01901,-14.49074 171.49116,-5.16408 2.90311,0.78545 11.41618,2.53495 18.91795,3.88777 12.81611,2.31117 14.5612,2.34557 28.90519,0.56975 8.39608,-1.03946 15.86988,-2.37405 16.60845,-2.96577 3.75503,-3.0084 17.38585,-2.17212 31.37974,1.92523 3.84562,1.12597 9.89299,8.50035 12.32467,15.02913 l 2.39056,6.41838 18.22552,4.09201 c 46.60336,10.46343 118.6665,27.29284 132.41753,30.92441 14.39078,3.80053 15.71258,3.94041 24.1072,2.55114 4.88488,-0.80843 11.89847,-2.71068 15.58577,-4.2272 6.34278,-2.6087 7.3612,-2.67435 18.89284,-1.21787 6.7037,0.8467 14.6383,2.62308 17.6324,3.94752 5.8711,2.59703 12.1375,10.0581 14.5259,17.29517 1.5978,4.84135 -0.1874,4.14208 28.5231,11.17264 78.1624,19.14026 172.9679,53.02838 231.8919,82.88946 35.1242,17.80007 51.6068,31.71874 65.8595,55.61507 16.952,28.42224 22.432,39.93283 19.0108,39.93283 -1.9642,0 -4.96,-4.32465 -12.1606,-17.55468 -6.9465,-12.76312 -18.6979,-31.12478 -20.7194,-32.37409 -1.0961,-0.6774 -21.2425,3.74616 -52.9607,11.62858 -11.1654,2.77476 -34.0038,8.31314 -50.752,12.3075 -28.1326,6.70951 -50.6773,12.11785 -116.0951,27.85056 -53.1194,12.77498 -117.9912,27.88794 -158.60001,36.94852 -48.83049,10.89497 -52.3288,11.77102 -51.78475,12.96821 0.2201,0.48433 4.25374,6.66782 8.96366,13.74109 4.70992,7.07327 8.56349,13.21109 8.56349,13.6396 0,0.42851 -0.7137,0.77422 -1.586,0.76825 -0.8723,-0.006 -4.13049,-4.13478 -7.24043,-9.17513 z m 22.85506,-31.32168 c 36.37904,-7.3313 72.34628,-15.75578 206.10818,-48.27601 32.1006,-7.80431 82.2221,-19.82559 111.3809,-26.71396 51.7621,-12.22804 71.9137,-17.62454 75.767,-20.29005 2.514,-1.73904 -2.127,-5.79178 -21.6571,-18.91198 -26.3968,-17.73311 -44.9742,-26.67586 -110.0419,-52.97194 -60.4091,-24.41336 -75.4714,-29.39299 -130.3081,-43.08007 -20.9352,-5.22535 -39.1239,-9.81049 -40.4193,-10.18918 -1.9509,-0.57033 -2.1376,-0.29962 -1.0874,1.57697 1.3515,2.41502 14.4656,6.37566 44.0443,13.30193 24.3588,5.70398 33.6232,8.64152 33.6232,10.66122 0,0.96656 -1.5702,2.99917 -3.4892,4.51689 -2.8188,2.22927 -4.5864,2.62786 -9.1988,2.07439 -6.108,-0.73292 -44.515,-10.90984 -68.4997,-18.15077 -8.0166,-2.42018 -15.5756,-4.13886 -16.7977,-3.81926 -3.3607,0.87884 -18.8628,-2.99989 -22.51031,-5.63223 -1.76677,-1.27506 -12.91862,-4.65506 -24.7819,-7.51113 l -21.5696,-5.19286 -12.3708,2.1621 c -6.80394,1.18916 -12.3708,2.51546 -12.3708,2.94735 0,0.4319 6.50742,2.62035 14.46093,4.86324 16.31959,4.60213 21.67056,6.46969 20.85988,7.28035 -0.30663,0.30663 -10.52035,-2.0469 -22.69716,-5.23008 l -22.13965,-5.78761 -37.7468,6.77943 c -20.76073,3.7287 -37.74679,7.13873 -37.74679,7.57786 0,0.93432 -1.38745,0.55209 47.57999,13.10818 20.9352,5.36814 38.63496,10.32848 39.3328,11.02297 0.84275,0.8387 0.20367,1.0354 -1.9032,0.58579 -13.40019,-2.85964 -40.72892,-9.68307 -64.80643,-16.18086 l -28.64563,-7.73059 -41.77276,7.26953 c -22.97502,3.99824 -42.01066,7.49186 -42.30144,7.7636 -0.29075,0.27174 -0.29075,0.72513 0,1.00754 0.46963,0.45612 41.22616,12.00504 59.52787,16.86802 6.87364,1.82641 11.1777,4.18811 7.63259,4.18811 -2.21338,0 -9.84038,-2.01778 -46.8527,-12.39515 l -29.70412,-8.32834 -17.24148,3.23955 c -19.5659,3.67628 -42.36788,12.19355 -44.79902,16.73386 -0.78139,1.4593 -1.77252,6.48867 -2.20251,11.17636 -0.75866,8.2709 -0.68659,8.559 2.43553,9.7369 10.008,3.77577 21.56367,8.39267 36.20612,14.46561 42.23512,17.51699 43.77359,18.31035 43.77359,22.57322 0,3.93388 -3.61843,6.23798 -9.79634,6.23798 -4.29874,0 -9.46979,-1.68212 -19.89296,-6.47113 -23.81757,-10.94316 -65.78644,-27.38995 -71.94362,-28.19332 -3.21118,-0.41898 -9.77722,-2.8154 -14.5912,-5.32537 -16.28256,-8.48962 -96.05849,-35.96864 -179.40625,-61.79694 -4.53596,-1.40562 -11.95844,-3.28911 -16.4944,-4.18551 -4.53596,-0.89641 -12.84629,-3.35141 -18.46741,-5.45555 -5.62111,-2.10415 -23.32087,-7.35987 -39.33279,-11.67937 -16.01193,-4.31951 -33.68027,-9.09293 -39.26299,-10.60762 -8.3123,-2.25527 -10.22092,-3.24217 -10.5398,-5.44987 -0.53831,-3.72694 4.21634,-6.74731 10.62162,-6.74731 5.71426,0 30.60107,5.08317 58.01735,11.85012 l 17.49756,4.31881 1.73035,-3.32647 c 0.95169,-1.82955 5.08052,-6.89496 9.17515,-11.25646 6.34507,-6.75859 8.09667,-7.93321 11.85769,-7.95174 2.42707,-0.0114 8.69507,-1.14409 13.92887,-2.51586 5.2338,-1.37176 12.94176,-2.52394 17.1288,-2.56042 4.18704,-0.0365 11.32404,-0.90589 15.86,-1.93203 4.53596,-1.02614 16.24064,-3.31438 26.01039,-5.08497 50.1862,-9.09535 69.1244,-12.22702 88.01304,-14.55409 25.22048,-3.10713 41.99834,-7.8086 37.28095,-10.4468 -0.52338,-0.2927 -0.0952,-0.29326 0.9516,-0.001 1.04676,0.29201 4.83555,0.84256 8.41953,1.2234 6.47158,0.6877 6.51198,0.66973 5.88331,-2.61895 -0.96742,-5.06073 4.04149,-6.50492 16.14836,-4.65598 5.2338,0.79931 11.22888,1.97399 13.3224,2.61042 2.20638,0.67074 6.4731,0.70088 10.1504,0.0717 4.96904,-0.85016 5.51903,-1.15034 2.5376,-1.38498 -2.09352,-0.16476 -4.45595,-0.22162 -5.24984,-0.12637 -0.79389,0.0953 -9.07281,-1.61387 -18.3976,-3.7981 -13.21626,-3.09575 -20.88217,-4.10947 -34.77067,-4.59794 -55.90476,-1.96622 -190.31304,16.24836 -273.37306,37.04672 -44.19645,11.06687 -77.401,21.57024 -77.39486,24.48181 0.001,0.50547 8.70821,3.05628 19.3492,5.66847 10.641,2.61219 29.33906,7.55601 41.55126,10.98623 12.2122,3.43024 33.33772,9.36836 46.94559,13.19584 51.41599,14.46173 156.02372,48.88501 232.19038,76.40691 115.98041,41.90811 206.71005,84.35657 250.24707,117.07972 11.4766,8.626 30.15771,26.86406 30.15771,29.44245 0,2.1316 4.7198,1.4934 36.86703,-4.98509 z M 755.00645,505.37248 c 1.33795,-1.61213 1.30875,-2.26799 -0.16183,-3.63636 -0.98683,-0.91821 -15.49725,-7.40719 -32.24541,-14.41993 -47.61082,-19.93546 -50.13319,-20.85792 -54.69478,-20.00215 -3.59011,0.6735 -8.02906,3.93999 -6.70562,4.93446 0.27389,0.20583 11.06076,4.56069 23.9708,9.6775 12.91004,5.1168 31.46624,12.91224 41.236,17.32319 18.39634,8.30576 25.52323,9.8316 28.60084,6.12329 z m -95.24742,-36.6947 c 1.61994,-1.72435 4.74486,-3.72906 6.94428,-4.45494 3.71852,-1.22722 4.10062,-1.91339 5.44906,-9.78558 1.95287,-11.40078 4.19472,-13.98048 16.236,-18.68274 14.43088,-5.63544 15.14014,-6.13451 13.38323,-9.41731 -2.72441,-5.09062 -7.77074,-5.10871 -24.30322,-0.0872 -7.7916,2.36663 -8.67834,2.94163 -7.24933,4.70083 1.41136,1.73747 1.29026,1.86251 -0.90944,0.93906 -4.43508,-1.86187 -10.41045,-2.23704 -13.05844,-0.81988 -2.24775,1.20301 -11.68316,18.07196 -11.68316,20.88763 0,0.58159 -1.14192,2.50915 -2.5376,4.28347 -3.87264,4.92326 -3.12714,6.98727 4.1236,11.41684 8.07151,4.93097 9.80835,5.06116 13.60502,1.01979 z m -21.80537,-11.13406 c 1.41177,-3.32286 1.26114,-3.5762 -3.24822,-5.46293 -10.36992,-4.33885 -77.76077,-28.43801 -88.46942,-31.63692 -6.28056,-1.87615 -22.55292,-7.0142 -36.16079,-11.41793 -31.94368,-10.33745 -54.67083,-17.15242 -57.19204,-17.1496 -2.50709,0.003 -8.03523,5.74965 -7.05559,7.33474 0.39988,0.647 3.74271,2.08459 7.42853,3.19462 49.04026,14.76921 118.64511,37.60306 162.76389,53.39463 10.4676,3.7467 19.35177,6.4557 19.74261,6.02001 0.39084,-0.43569 1.3768,-2.36017 2.19103,-4.27662 z m 9.70284,-17.99955 c 4.95031,-10.01865 6.56909,-11.22807 17.21231,-12.85975 3.14028,-0.48144 10.13084,-2.19791 15.53457,-3.8144 6.05051,-1.80997 13.11832,-2.94053 18.3976,-2.94288 4.71494,-0.003 10.19051,-0.47719 12.16793,-1.0558 3.02841,-0.88616 -4.07351,-3.42986 -45.0424,-16.13296 -50.95598,-15.79974 -55.33486,-17.13878 -87.68105,-26.81222 -11.00626,-3.29153 -19.75589,-6.24007 -19.44364,-6.55232 0.8213,-0.82129 30.48414,7.73547 93.37899,26.93679 30.35604,9.26748 58.61856,17.76426 62.8056,18.88176 l 7.6128,2.03182 43.13919,-8.018 43.1392,-8.01797 -6.9784,-1.62771 c -7.26407,-1.69434 -41.96651,-11.80151 -70.41839,-20.50955 -9.07192,-2.77657 -19.06372,-5.81244 -22.204,-6.74639 -30.54447,-9.0842 -41.78631,-12.65303 -41.32148,-13.11787 0.30185,-0.30186 16.43146,4.13477 35.84355,9.85916 19.4121,5.72439 45.57201,13.44079 58.13312,17.14757 30.5965,9.02898 48.81104,13.72383 52.6552,13.57202 3.64201,-0.14383 66.90817,-11.46349 69.78399,-12.48584 2.14048,-0.76094 -4.75424,-3.52533 -13.95679,-5.59588 -3.14028,-0.70656 -10.84824,-2.68925 -17.1288,-4.40597 -31.60577,-8.63909 -46.10052,-12.65527 -64.0744,-17.75361 -35.99923,-10.21127 -51.95451,-14.49314 -99.60079,-26.7296 -13.60825,-3.49485 -26.27517,-2.85927 -55.1928,2.76938 -8.72299,1.69788 -22.42603,4.22146 -30.45119,5.60795 -8.02516,1.38649 -24.86848,4.45138 -37.4296,6.81088 -12.56112,2.35949 -28.9626,5.28441 -36.44774,6.4998 -8.59967,1.39638 -13.31034,2.69363 -12.79706,3.52413 0.49366,0.79876 0.005,1.00431 -1.24717,0.52402 -2.86412,-1.09908 -27.40599,2.70321 -31.31308,4.85136 -1.7625,0.96903 -7.69084,3.30531 -13.17411,5.19171 -9.38705,3.22945 -10.10338,3.74203 -12.25987,8.77291 -1.25966,2.93868 -2.48295,6.98232 -2.71843,8.98586 -0.42753,3.63774 -0.40695,3.64867 14.79747,7.86601 35.17386,9.75638 128.65055,41.24295 165.57838,55.77324 4.21396,1.65809 5.20843,0.68906 10.70129,-10.42765 z m -98.24848,-71.96482 c -2.44244,-0.67758 -6.63953,-1.80554 -9.32687,-2.50656 -2.68734,-0.70103 -4.61579,-1.54488 -4.28545,-1.87523 0.6073,-0.60729 20.08547,4.28003 21.09961,5.29416 0.86097,0.86098 -2.62711,0.43593 -7.48729,-0.91237 z m -28.1515,-8.28751 c 0.91591,-0.36652 2.01027,-0.32145 2.43187,0.10011 0.42161,0.42161 -0.32778,0.72149 -1.66529,0.6664 -1.47809,-0.0609 -1.77874,-0.36153 -0.76658,-0.76656 z m 137.26829,-2.30527 c -2.44244,-0.94057 -3.58436,-1.71014 -2.5376,-1.71014 1.04676,0 3.90156,0.76957 6.344,1.71014 2.44244,0.94058 3.58436,1.71014 2.5376,1.71014 -1.04676,0 -3.90156,-0.76956 -6.344,-1.71014 z m -14.5912,-4.4408 c -1.67321,-0.719 -1.88932,-1.11419 -0.6344,-1.16019 1.04676,-0.0383 2.75964,0.48372 3.8064,1.16019 2.31933,1.49886 0.31605,1.49886 -3.172,0 z m 91.01918,71.05866 c 1.21175,-0.70106 4.44544,-1.27466 7.18599,-1.27466 2.74054,0 23.16011,-3.477 45.37681,-7.72665 22.21671,-4.24966 43.81977,-8.22104 48.00681,-8.8253 4.18704,-0.60427 23.3142,-4.03843 42.50479,-7.63148 19.1906,-3.59305 40.03064,-7.32847 46.3112,-8.30093 6.28056,-0.97246 15.41592,-2.59304 20.3008,-3.60128 4.88488,-1.00824 12.87832,-2.48197 17.7632,-3.27496 4.88488,-0.79297 12.02188,-2.24556 15.86,-3.22797 3.83812,-0.98239 8.36107,-1.9364 10.05101,-2.12 4.34473,-0.47204 4.74696,-3.24882 0.69386,-4.78982 -2.51849,-0.95752 -5.80177,-0.76326 -12.47394,0.73805 -4.98065,1.12071 -12.19601,2.522 -16.03413,3.11399 -3.83812,0.592 -10.11868,1.65074 -13.9568,2.35275 -9.29227,1.69961 -31.3673,5.66136 -50.1176,8.99447 -8.37408,1.48861 -29.21411,5.22978 -46.31119,8.31371 -23.92962,4.31638 -110.24917,19.75391 -143.05719,25.58459 -4.37263,0.77712 -4.87104,1.70866 -2.89232,5.40593 1.18793,2.21966 1.71291,2.21692 14.9084,-0.0775 7.52241,-1.30802 14.66854,-2.95182 15.8803,-3.65289 z m 375.23251,1.08406 c 3.243,-1.13051 3.7302,-1.68414 2.2239,-2.52709 -1.5115,-0.84589 -65.1374,-17.99809 -77.979,-21.02148 -1.5572,-0.36664 -4.412,-0.26678 -6.344,0.22191 l -3.5126,0.88853 5.0752,1.88224 c 8.9159,3.30665 15.8698,5.34873 45.0356,13.22504 15.6977,4.23922 28.7822,7.9486 29.0767,8.24309 0.817,0.817 1.9083,0.66203 6.4242,-0.91224 z m -88.5141,-23.82632 c 3.6898,-1.33959 8.5644,-2.81235 10.8324,-3.27282 3.3719,-0.68458 4.1236,-1.43465 4.1236,-4.11452 0,-4.57115 -6.7509,-14.61066 -12.5071,-18.59968 -7.0986,-4.91931 -28.40551,-8.91429 -32.70859,-6.13275 -2.18573,1.41287 4.86506,7.26096 8.86819,7.35547 10.5386,0.24883 14.3959,0.82679 16.5885,2.48554 1.3447,1.01736 2.0722,2.22248 1.6166,2.67806 -0.4556,0.45557 -1.7123,0.0947 -2.7928,-0.8021 -2.3004,-1.90915 -2.1465,-2.06767 -4.3124,4.4408 -0.929,2.79136 -3.3608,6.84056 -5.404,8.99821 -3.2041,3.38349 -3.4569,4.13723 -1.8384,5.48045 1.6266,1.35001 7.1671,3.47764 9.9212,3.80989 0.4972,0.06 3.9229,-0.98698 7.6128,-2.32655 z M 450.35972,389.3749 c 2.5966,-1.07555 3.89757,-2.50784 3.91617,-4.31146 0.0386,-3.73838 4.19188,-12.43775 7.08855,-14.84746 1.31978,-1.09789 6.68179,-3.37036 11.91559,-5.04992 5.2338,-1.67955 9.71087,-3.16482 9.94905,-3.3006 0.23817,-0.13577 0.0567,-1.43241 -0.40313,-2.88142 -1.38482,-4.3632 -5.06032,-5.52426 -12.48142,-3.94282 -11.69409,2.49204 -16.18702,3.94442 -15.52343,5.01811 0.35729,0.57813 -1.76658,0.78776 -4.71972,0.46584 -6.32978,-0.68999 -9.07003,1.35434 -14.38873,10.73451 -1.87979,3.31524 -4.99755,8.59701 -6.92837,11.73729 -5.692,9.25746 -5.49622,9.91505 3.89415,13.08019 l 8.2472,2.77981 2.77289,-3.93574 c 1.52508,-2.16465 4.52262,-4.66051 6.6612,-5.54633 z m 550.64638,4.521 c 1.2137,-1.46245 0.7208,-1.93832 -2.69948,-2.60662 -2.30132,-0.44967 -9.60835,-2.18612 -16.23783,-3.85882 -8.70216,-2.19563 -13.28835,-2.76141 -16.4944,-2.03486 l -4.4408,1.00637 5.0752,1.40163 c 2.79136,0.7709 8.78644,2.31794 13.3224,3.43787 4.53596,1.11992 9.96008,2.51942 12.0536,3.10998 5.72403,1.61472 7.78583,1.51503 9.42131,-0.45555 z m -578.82621,-6.40437 c 1.566,-5.10251 2.39177,-4.6743 -19.31826,-10.01775 -30.12811,-7.41538 -51.7555,-11.32943 -56.28325,-10.18592 -2.43453,0.61486 -4.62546,1.7277 -4.86874,2.473 -0.35597,1.09054 72.2197,21.6491 77.75071,22.02452 0.75522,0.0513 1.97901,-1.88097 2.71954,-4.29385 z m 583.99611,2.58762 c 0,-0.29185 0.3222,-1.3703 0.716,-2.39655 0.5313,-1.38462 -0.5324,-2.03268 -4.1236,-2.51243 -2.6618,-0.35557 -7.40893,-1.31134 -10.54921,-2.12394 -3.2031,-0.82885 -7.65912,-1.07916 -10.1504,-0.57017 -4.33625,0.88593 -4.23171,0.95979 4.4408,3.13749 4.88488,1.22662 10.59448,2.80348 12.68799,3.50415 4.17922,1.39875 6.97842,1.78439 6.97842,0.96145 z m -96.42881,-7.17913 c 5.2338,-0.85684 9.98725,-1.97084 10.56322,-2.47553 0.57597,-0.5047 -2.22515,-1.32649 -6.2247,-1.8262 -3.99955,-0.49971 -10.46588,-1.92317 -14.36961,-3.16324 -3.90374,-1.24007 -24.79746,-6.37082 -46.4305,-11.40166 -60.71578,-14.11967 -70.23999,-16.26348 -81.8376,-18.42085 -5.93164,-1.1034 -19.92015,-4.2087 -31.08559,-6.90067 -51.73425,-12.47303 -52.73584,-12.65958 -56.19242,-10.46651 -1.00407,0.63705 9.26816,3.78048 26.64479,8.15367 26.99348,6.79344 56.04876,14.39719 75.22442,19.68617 61.99327,17.09886 109.78586,29.35561 112.28879,28.79727 1.04676,-0.23351 6.1854,-1.1256 11.4192,-1.98245 z m 99.50801,-0.75321 c 1.088,-2.83539 -1.6181,-4.44548 -6.0926,-3.62506 -2.0063,0.36785 -4.8611,0.70072 -6.34401,0.73971 -1.77422,0.0467 -0.74376,0.89016 3.01339,2.46671 7.15452,3.00215 8.41042,3.05794 9.42322,0.41864 z m -74.3036,-3.79403 c 2.75101,-0.73637 2.58839,-0.94241 -1.95658,-2.47876 -2.72635,-0.9216 -17.20862,-4.60605 -32.18281,-8.18768 -14.97419,-3.58164 -40.07241,-9.6061 -55.77381,-13.38771 -15.7014,-3.78159 -34.71479,-8.34696 -42.25195,-10.14525 -12.78342,-3.04996 -19.91925,-3.25621 -19.91925,-0.57571 0,0.62366 6.4233,2.62382 14.274,4.44479 7.8507,1.82097 16.55784,3.86036 19.3492,4.532 2.79136,0.67163 22.204,5.25025 43.1392,10.1747 20.93519,4.92445 44.05907,10.59897 51.38639,12.61004 13.72928,3.76816 18.75345,4.40072 23.93561,3.01358 z m 18.30486,-2.96861 c 1.42475,0 2.27925,-0.31122 1.89886,-0.6916 -1.73912,-1.73913 -155.58849,-36.73177 -156.68308,-35.63716 -0.76461,0.7646 9.42695,3.6216 30.07176,8.43 37.74408,8.79099 109.90416,26.69184 112.28879,27.85562 1.39568,0.68114 4.17911,0.96949 6.1854,0.64078 2.00629,-0.32869 4.81351,-0.59764 6.23827,-0.59764 z M 494.84963,358.18805 c 3.83812,-1.06721 13.54444,-2.99961 21.56959,-4.29422 8.02516,-1.29459 21.15724,-3.54262 29.1824,-4.99563 8.02516,-1.453 21.7282,-3.82978 30.4512,-5.28171 27.20058,-4.52751 49.86821,-8.5674 56.20729,-10.01745 6.26489,-1.43309 35.86503,-5.95281 45.55645,-6.95613 11.7018,-1.21148 37.4576,-4.72344 42.87945,-5.84689 3.14028,-0.65069 12.1329,-1.56241 19.9836,-2.02604 13.24776,-0.78237 17.13305,-2.00193 12.29378,-3.85893 -1.08911,-0.41793 -8.08337,-0.10506 -15.5428,0.6954 -23.97198,2.5722 -47.41147,5.28022 -63.68018,7.35709 -15.76842,2.013 -17.46046,2.25974 -24.7416,3.60781 -18.36906,3.40095 -41.73986,7.3476 -60.26799,10.17753 -12.2122,1.86527 -26.07142,4.17924 -30.79825,5.14217 -4.72684,0.96293 -11.0074,2.0489 -13.9568,2.41326 -2.9494,0.36436 -12.21407,2.04156 -20.58815,3.72711 -8.37408,1.68555 -20.64971,3.77807 -27.27919,4.65005 -6.62948,0.87197 -12.24848,1.72609 -12.48666,1.89804 -1.01422,0.7322 1.37104,5.57773 2.73896,5.564 0.82527,-0.009 4.64078,-0.88823 8.4789,-1.95546 z m 286.00729,-17.52818 c 2.16637,-1.65237 5.74106,-3.40014 7.94377,-3.88393 5.23011,-1.14873 5.85545,-3.20227 2.78888,-9.15835 -3.76584,-7.31426 -10.31754,-12.53699 -18.66542,-14.87928 -6.92488,-1.94303 -17.97054,-2.82108 -17.97054,-1.42853 0,1.98786 6.10856,6.22911 9.43125,6.54823 7.73726,0.7431 12.06639,1.82486 12.93638,3.23253 0.58243,0.9424 0.16211,1.15709 -1.22396,0.6252 -1.5722,-0.6033 -2.59514,0.34864 -4.00781,3.72962 -1.04323,2.49682 -4.31281,6.68371 -7.26572,9.30417 l -5.36891,4.76451 8.21697,1.92671 c 4.51936,1.05969 8.44857,1.99348 8.73163,2.07508 0.28305,0.0816 2.28711,-1.20359 4.45348,-2.85596 z m -22.98162,-3.93186 c -0.13767,-0.67459 -5.27631,-2.52806 -11.4192,-4.11879 -6.1429,-1.59073 -15.73657,-4.07325 -21.31929,-5.5167 -7.62092,-1.97045 -11.88942,-2.40179 -17.1288,-1.73086 -6.52568,0.83564 -6.73145,0.96358 -3.172,1.97198 2.09352,0.59311 8.65956,1.99071 14.5912,3.10578 5.93164,1.11507 11.92672,2.54693 13.3224,3.18191 8.2246,3.74183 25.69616,5.90213 25.12569,3.10668 z m 6.19239,-4.91851 c 1.81876,-1.38265 -0.65838,-2.24588 -16.69338,-5.8172 -11.22679,-2.50045 -19.51713,-3.76455 -20.53328,-3.13091 -1.15953,0.72305 0.32342,1.5674 4.63978,2.64178 3.4892,0.86849 11.19716,2.98367 17.1288,4.70038 12.75048,3.69022 12.72049,3.6871 15.45808,1.60595 z m 4.79808,-5.82511 c 2.97901,-5.56636 1.95886,-6.26094 -8.51977,-5.80072 -5.40825,0.23754 -11.49849,0.47918 -13.53387,0.537 -2.03535,0.0579 -3.30537,0.50039 -2.82225,0.98351 0.67509,0.6751 17.27504,5.47652 22.65549,6.55294 0.49883,0.0999 1.49801,-0.92293 2.2204,-2.27273 z m -86.86816,-6.47842 c 4.53864,-0.21925 4.13623,-0.43415 -3.8064,-2.03266 -8.79944,-1.77095 -16.03594,-1.3587 -13.82312,0.78747 1.20483,1.16854 7.4694,2.2017 10.65112,1.75659 1.04676,-0.14643 4.18704,-0.37656 6.9784,-0.5114 z M 421.25923,539.13498 c 0,-2.28024 6.62753,-19.54509 14.58228,-37.98717 11.95036,-27.70542 14.64978,-33.51451 15.28067,-32.88364 0.31517,0.31517 -4.61865,13.66096 -10.96405,29.65732 -6.34539,15.99634 -12.66355,32.08181 -14.04035,35.74547 -2.20513,5.86786 -4.85855,8.85412 -4.85855,5.46802 z"
       id="path9416"
       inkscape:connector-curvature="0" />
  </g>
</svg>
