<?xml version="1.0" encoding="UTF-8" standalone="no"?>
<!-- Created with Inkscape (http://www.inkscape.org/) -->

<svg
   xmlns:dc="http://purl.org/dc/elements/1.1/"
   xmlns:cc="http://creativecommons.org/ns#"
   xmlns:rdf="http://www.w3.org/1999/02/22-rdf-syntax-ns#"
   xmlns:svg="http://www.w3.org/2000/svg"
   xmlns="http://www.w3.org/2000/svg"
   xmlns:sodipodi="http://sodipodi.sourceforge.net/DTD/sodipodi-0.dtd"
   xmlns:inkscape="http://www.inkscape.org/namespaces/inkscape"
   width="451.55554mm"
   height="264.9361mm"
   viewBox="0 0 1600 938.74994"
   id="svg2"
   version="1.1"
   inkscape:version="0.91 r13725"
   inkscape:export-filename="/Users/mariachapa/Google Drive/AnimationistGirl/Freelance 2017/Upwork/36 Emilio Sole/Revs/Sketch1.png"
   inkscape:export-xdpi="90"
   inkscape:export-ydpi="90"
   sodipodi:docname="sketch1.svg">
  <defs
     id="defs4" />
  <sodipodi:namedview
     id="base"
     pagecolor="#ffffff"
     bordercolor="#666666"
     borderopacity="1.0"
     inkscape:pageopacity="0.0"
     inkscape:pageshadow="2"
     inkscape:zoom="0.48625001"
     inkscape:cx="131.61954"
     inkscape:cy="469.37497"
     inkscape:document-units="px"
     inkscape:current-layer="layer1"
     showgrid="false"
     fit-margin-top="0"
     fit-margin-left="0"
     fit-margin-right="0"
     fit-margin-bottom="0"
     inkscape:window-width="1280"
     inkscape:window-height="684"
     inkscape:window-x="1210"
     inkscape:window-y="82"
     inkscape:window-maximized="0" />
  <metadata
     id="metadata7">
    <rdf:RDF>
      <cc:Work
         rdf:about="">
        <dc:format>image/svg+xml</dc:format>
        <dc:type
           rdf:resource="http://purl.org/dc/dcmitype/StillImage" />
        <dc:title />
      </cc:Work>
    </rdf:RDF>
  </metadata>
  <g
     inkscape:label="side rails"
     inkscape:groupmode="layer"
     id="layer1"
     transform="translate(860,599.86993)"
     style="display:inline">
    <path
       style="fill:#000000"
       d="M 31.25,49.36172 C 26.78125,45.562295 16.9375,38.324595 9.375,33.277933 1.8125,28.231283 -6.34375,22.723558 -8.75,21.038545 -25.620588,9.2247325 -61.606638,-9.60058 -88.125,-20.48473 c -23.53776,-9.6608 -53.8536,-22.596638 -74.34891,-31.724862 -9.2669,-4.1273 -17.0023,-7.350801 -17.18976,-7.163338 -0.18747,0.187475 -1.47455,6.761713 -2.86019,14.609425 -1.38564,7.847713 -5.13894,25.94045 -8.34065,40.206075 -5.48176,24.424563 -7.20766,28.818063 -9.7223,24.7493 -0.83388,-1.34925 11.41319,-53.820825 16.30611,-69.862212 3.7091,-12.160263 4.36779,-11.047313 -9.4693,-15.999913 -5.15625,-1.845537 -18.9375,-7.000862 -30.625,-11.456275 -11.6875,-4.455425 -31.375,-11.032962 -43.75,-14.616762 -30.2861,-8.770848 -54.06249,-16.600258 -82.37211,-27.124608 -23.49315,-8.73379 -46.9882,-16.52817 -47.54464,-15.77272 -0.35262,0.47875 -27.57187,69.47979 -28.63231,72.58319 -0.92216,2.698725 -3.32594,2.890513 -3.32594,0.265375 0,-3.654637 20.72021,-53.579975 28.86781,-69.556975 l 2.3479,-4.6041 -6.54535,-2.4037 c -6.58441,-2.41802 -13.26197,-4.60409 -67.17036,-21.98975 -35.68577,-11.50881 -56.74099,-15.97421 -69.375,-14.7131 -14.4383,1.44121 -22.33599,7.21698 -44.75534,32.73058 -5.58755,6.35871 -5.49013,6.13847 1.40005,-3.16583 10.57324,-14.27777 19.70258,-23.18401 28.53027,-27.83304 7.07048,-3.72361 8.59646,-4.04145 19.375,-4.0355 7.49323,0.004 16.66692,1.06083 25.51408,2.93889 20.85744,4.4276 101.66782,30.81534 161.18594,52.63351 32.48215,11.90731 65.44691,22.566765 94.99126,30.716253 5.4952,1.5158 20.6827,6.823712 33.75,11.795362 13.06732,4.971662 26.00874,9.765925 28.75874,10.653925 2.75,0.887987 21.1204,8.52285 40.82311,16.966362 19.70272,8.4435 46.67975,19.666663 59.948978,24.94035 13.269237,5.273688 29.773837,12.41 36.6769,15.858475 13.555162,6.7715755 42.33355,23.171475 49.426012,28.166338 2.40625,1.6946 9.755125,6.6225 16.330837,10.950887 17.897,11.780475 31.043776,22.725175 30.8227,25.659925 -0.102,1.354788 -0.487725,2.43845 -0.857037,2.408113 -0.369325,-0.03037 -4.32775,-3.163763 -8.7965,-6.9632 z M -98.265775,-100.75183 c -6.608675,-6.7337 -12.845485,-13.48525 -13.859575,-15.00342 -6.21732,-9.30787 -30.99901,-23.76263 -56.48949,-32.94943 -9.74476,-5.43283 -14.16536,1.40608 -13.17611,9.90743 1.22961,8.68287 4.23599,21.37607 6.14511,25.94525 1.43102,3.42491 1.42367,4.1458 -0.0481,4.71055 -1.73716,0.66662 -5.55608,-3.56593 -5.55608,-6.15788 0,-0.75522 -6.32812,-3.39832 -14.0625,-5.87355 -7.73437,-2.47522 -27.5625,-8.79875 -44.0625,-14.05227 -16.49996,-5.25353 -77.13142,-25.31257 -134.73655,-44.57565 l -104.73657,-35.02378 -18.38843,-1.12287 c -19.96448,-1.21912 -36.66422,-4.18024 -51.79695,-9.18442 -14.28197,-4.72285 -15.82498,-4.6156 -23.96688,1.66583 -10.5579,8.14536 -27.87045,26.92751 -35.21693,38.20637 -3.5877,5.5081 -8.75916,14.85872 -11.49212,20.77913 -2.73298,5.92041 -5.60388,11.15674 -6.37979,11.63627 -1.83185,1.13214 -1.8459,1.22801 1.19186,-8.13171 3.01625,-9.2935 9.2611,-21.09595 16.8094,-31.76895 7.91288,-11.18851 31.19902,-33.21975 38.95405,-36.85479 3.57009,-1.67341 7.13109,-4.19066 7.91334,-5.59389 2.39807,-4.30175 14.40466,-13.49245 25.78645,-19.73882 9.66922,-5.30651 11.65415,-5.9375 18.6778,-5.9375 14.51677,2.37895 35.2795,5.04884 47.40737,11.84015 1.38932,0.87564 9.26432,3.69017 17.5,6.25452 8.2357,2.56437 36.63024,11.87684 63.09899,20.6944 26.46875,8.81757 66.125,21.72524 88.125,28.68374 22,6.95849 56.875,18.26954 77.5,25.13566 27.56254,9.17565 40.14999,12.76523 47.5,13.54564 14.42025,1.53111 45.84311,14.75349 58.69332,24.69749 10.52173,8.14211 37.374355,41.040062 36.687043,44.946387 -0.294588,1.674313 2.4589,3.33665 12.210262,7.3716 15.444075,6.390488 60.65335,32.232975 76.768775,43.882488 19.379362,14.00895 49.256475,45.392137 52.714913,55.372225 0.252637,0.72905 5.252987,8.25e-4 12.300687,-1.791388 6.53125,-1.660887 32.6875,-7.847275 58.125,-13.7475245 25.4375,-5.9002375 64.53125,-15.209425 86.875,-20.6870755 22.34375,-5.47765 55.8125,-13.625662 74.375,-18.106712 18.5625,-4.481038 48.90473,-11.81425 67.42718,-16.296013 18.52244,-4.481762 47.20994,-11.244612 63.74995,-15.028537 38.83462,-8.884325 61.94787,-15.398838 61.94787,-17.46005 0,-4.188025 -36.48163,-28.15385 -60.69275,-39.87076 -19.45212,-9.41383 -56.12953,-24.82125 -76.18225,-32.00259 -5.5,-1.96968 -12.22831,-4.72928 -14.9518,-6.13244 -2.72349,-1.40316 -5.69531,-2.55121 -6.60406,-2.55121 -0.90874,0 -4.37469,-1.37956 -7.70212,-3.0657 -16.78843,-8.50735 -98.06071,-32.80279 -150.39568,-44.9591 -10.738,-2.49421 -45.86499,-9.88255 -78.05999,-16.41854 -70.037188,-14.2184 -103.021988,-21.6635 -187.28635,-42.27299 -93.39939,-22.84373 -94.2287,-23.03486 -103.75,-23.91066 -11.3302,-1.04217 -58.29154,1.31311 -89.375,4.48251 -41.69671,4.25155 -131.10409,18.81125 -176.23841,28.69983 -17.79293,3.8983 -22.12551,4.48267 -18.76159,2.53054 5.85971,-3.40047 119.3746,-24.91197 168.125,-31.86033 42.4341,-6.04809 91.91083,-9.16239 112.55466,-7.08471 7.44989,0.74979 13.86028,0.90244 14.2453,0.33921 1.52462,-2.23025 15.99844,-10.14519 20.8559,-11.40492 7.66305,-1.98737 33.87704,1.11538 52.34414,6.19556 5.5,1.51301 13.9375,3.56767 18.75,4.56592 4.8125,0.99824 28.4375,6.54123 52.5,12.31774 24.0625,5.77651 59.78125,13.93958 79.375,18.14015 67.05926,14.37639 130.29585,29.45125 159.375,37.99314 5.5,1.61561 12.8125,3.54497 16.25,4.28747 31.10258,6.71822 41.01269,9.76954 56.12156,17.27979 15.54994,7.7295 26.54895,15.49035 41.37844,29.19641 3.38846,3.13177 8.5195,5.87295 15.91966,8.50485 6.00581,2.136 13.88081,5.38678 17.5,7.22395 3.61919,1.83718 10.23659,4.58513 14.70534,6.10655 18.74915,6.38332 46.83163,17.61209 67.9995,27.18959 35.80818,18.21578 63.26078,32.632729 75.58334,53.80649 9.97237,15.103675 26.01628,46.704937 24.97891,47.707525 -0.24025,0.232125 -1.50413,0.61615 -2.80863,0.853387 -1.94225,0.353225 -4.39925,-3.530312 -13.56662,-21.443662 -18.39075,-35.9364 -16.43588,-32.714963 -18.56288,-30.58795 -2.37387,2.3739 -21.82412,7.950937 -49.87362,14.300487 -33.72,7.633163 -67.98879,15.77 -97.5,23.150563 -14.78125,3.6967 -43.75,10.670825 -64.375,15.498075 -20.625,4.827237 -50.15625,11.839287 -65.625,15.5823125 -29.67179,7.1798 -70.01551,16.4130875 -118.75,27.1777995 -16.15625,3.568663 -29.583438,6.66285 -29.838188,6.87595 -0.254762,0.213113 1.187613,2.522788 3.20525,5.132625 C 72.054012,37.39587 81.25,52.257033 81.25,53.849433 c 0,0.70435 -1.440525,1.280637 -3.201163,1.280637 -2.845974,0 -3.920849,-1.521012 -9.6875,-13.708362 C 63.355513,30.842283 59.877813,25.508308 53.125,18.052745 28.397238,-9.2483675 6.7289125,-28.67818 -8.7986,-37.473667 c -4.147262,-2.349188 -15.8173,-9.5053 -25.933437,-15.902463 -23.830688,-15.06985 -47.633075,-26.7777 -55.520113,-27.309075 -6.173525,-0.415925 -12.12113,-2.258812 -53.05167,-16.43825 -34.19791,-11.847085 -39.30403,-14.621345 -12.8943,-7.005765 8.56522,2.4699 19.34901,5.559815 23.96398,6.866465 4.61498,1.306663 10.68519,3.29375 13.48936,4.415763 28.49263,12.161787 42.476323,15.211083 20.479005,-7.904838 z M -185.705,-125.0278 c -4.47849,-8.83787 -7.25604,-11.26002 -18.07894,-15.7656 -12.98732,-5.40663 -57.12622,-18.87968 -93.71606,-28.60608 -47.71846,-12.68464 -70.16424,-19.37092 -110.625,-32.95366 -20.625,-6.92385 -43.3247,-14.29383 -50.44378,-16.37774 -12.27731,-3.59384 -13.06572,-3.67855 -15.3125,-1.64525 -1.30279,1.17901 -2.36872,2.79533 -2.36872,3.5918 0,0.79648 4.64063,2.77475 10.3125,4.39618 5.67188,1.62141 26.625,8.53483 46.5625,15.36316 90.03036,30.83417 231.36365,77.72672 235.95856,78.28797 0.5272,0.0644 -0.50265,-2.76646 -2.28856,-6.29078 z m 1.00651,-17.02963 c 0.28764,-4.65244 -0.018,-7.8125 -0.75568,-7.8125 -0.68129,0 -17.59218,-5.30006 -37.57977,-11.77791 -19.98758,-6.47785 -59.12231,-18.91111 -86.96606,-27.62949 -27.84375,-8.71836 -63.28125,-20.34286 -78.75,-25.83221 -75.16114,-26.67223 -81.2377,-28.58095 -84.92288,-26.67528 -3.35577,1.73534 -26.32712,20.26628 -26.32712,21.23803 0,0.59557 5.36194,-0.94886 10.625,-3.06039 2.0625,-0.82746 6.79869,-1.93141 10.52487,-2.45321 7.73249,-1.08284 19.71452,2.00227 64.55443,16.62134 33.44506,10.90402 65.36408,20.41282 99.2957,29.5806 47.89464,12.94036 107.54662,31.77298 118.7595,37.49337 2.62897,1.3412 6.06034,4.23666 7.62523,6.43436 3.23063,4.537 3.26038,4.49048 3.91678,-6.12671 z m 487.76099,-33.83852 c -22.38883,-19.34453 -40.25091,-29.39829 -64.86844,-36.51157 -16.69325,-4.82353 -17.89912,-4.6153 -3.51712,0.60736 18.98554,6.89438 50.82626,24.83412 53.93417,30.38767 0.64235,1.1478 3.8895,3.04584 7.2159,4.21786 6.92474,2.43985 8.98405,2.80948 7.23549,1.29868 z m -23.75,-7.55572 c -2.67242,-2.43441 -21.66037,-15.03932 -28.11736,-18.66535 -3.81144,-2.14037 -12.4318,-6.10567 -19.15638,-8.81178 -6.72457,-2.70613 -11.76237,-5.17023 -11.19512,-5.4758 0.56725,-0.30558 0.34564,-0.39087 -0.49248,-0.18953 -0.8381,0.20134 -3.0881,-0.44989 -5,-1.44716 -1.91188,-0.99729 -4.63576,-1.8167 -6.05303,-1.82094 -1.41729,-0.004 -11.54229,-2.56011 -22.5,-5.67974 -45.42667,-12.93278 -88.546468,-23.44431 -151.17313,-36.85223 -19.9375,-4.26848 -55.65625,-12.49657 -79.375,-18.28463 -79.00529,-19.2796 -102.6294,-23.80201 -118.8644,-22.75447 -6.98285,0.45055 -9.41175,1.28705 -15.92657,5.485 -4.22794,2.72436 -7.69208,5.23646 -7.69809,5.58245 -0.006,0.346 14.75469,4.03346 32.80156,8.19437 24.8739,5.73496 33.04165,7.19316 33.75964,6.02718 1.55367,-2.52308 9.1481,-4.41365 14.91254,-3.71235 2.96467,0.36068 29.85907,6.58762 59.76532,13.83763 29.90625,7.25003 78.5625,18.54189 108.125,25.09304 88.59738,19.63349 122.04716,27.83976 124.9375,30.65104 0.65313,0.63525 2.2,1.15501 3.4375,1.15501 1.2375,0 3.44046,1.19046 4.89548,2.64548 1.79757,1.79757 10.31116,4.77508 26.5625,9.28988 13.15436,3.65443 31.22952,8.89342 40.16702,11.64219 18.64268,5.73365 17.7409,5.50576 16.1875,4.09071 z m -90.90104,-25.92347 c -0.41536,-0.41537 -1.4935,-0.45977 -2.39583,-0.0986 -0.99717,0.39903 -0.70098,0.69523 0.75521,0.7552 1.3177,0.0542 2.05599,-0.24116 1.64062,-0.65652 z m -5,-1.25 c -0.41536,-0.41537 -1.4935,-0.45977 -2.39583,-0.0986 -0.99717,0.39903 -0.70098,0.69523 0.75521,0.7552 1.3177,0.0542 2.05599,-0.24116 1.64062,-0.65652 z m -4.83673,-1.08673 C 177.4248,-212.8618 133.88381,-223.6175 95,-232.3569 c -69.655913,-15.65564 -175.49775,-40.88823 -196.98321,-46.96062 -1.89078,-0.53437 -3.16875,0.11838 -4.64597,2.37285 l -2.03774,3.10999 18.395958,4.43716 c 85.581312,20.64248 108.458399,25.7081 190.270962,42.13123 34.03125,6.83147 64.96875,13.21125 68.75,14.1773 7.28041,1.86002 10.80112,2.35352 9.82473,1.37712 z m -682.82037,-7.94876 c -0.84748,-1.37125 13.66992,-19.169 17.15837,-21.03549 1.49175,-0.79815 5.37801,-2.52261 8.63613,-3.83215 l 5.92388,-2.38096 -12.17388,-2.66044 c -15.0802,-3.29557 -28.49467,-5.30026 -35.46694,-5.30026 -6.71178,0 -18.33928,6.73881 -29.83192,17.28933 -7.74445,7.10958 -7.97864,7.49052 -5,8.13327 1.71875,0.37089 10.4375,2.12286 19.375,3.89329 8.9375,1.77042 19.0625,4.00457 22.5,4.96476 7.47536,2.08809 9.74246,2.32519 8.87936,0.92865 z m 462.37064,65.15899 c -29.893075,-7.07518 -84.25189,-22.9603 -163.75,-47.85223 -64.29911,-20.13291 -84.8798,-26.24124 -116.25,-34.50287 -25.28886,-6.66005 -31.15501,-8.90392 -10.98591,-4.20223 22.78392,5.31124 67.66821,17.81988 101.22059,28.2088 70.24058,21.74882 134.285332,40.75217 163.958495,48.64974 30.061163,8.00085 37.984425,10.62182 31.431825,10.39749 -1.71875,-0.0589 -4.25,-0.37327 -5.625,-0.6987 z m 85.867963,-18.53718 c -48.776013,-12.33385 -110.005475,-29.89942 -204.543473,-58.67962 -32.95903,-10.03371 -63.59824,-19.16569 -68.08714,-20.29326 -4.48889,-1.12758 -7.53477,-2.25909 -6.76862,-2.51447 1.60452,-0.53485 13.78942,2.93525 110.14186,31.36687 86.552848,25.53995 137.449723,39.7104 173.38941,48.27418 15.125,3.60403 28.034375,7.05056 28.6875,7.65898 2.56965,2.39375 -7.2294,0.65824 -32.819537,-5.81268 z M 108.125,-196.96748 c -1.375,-0.30665 -17.125,-4.42544 -35,-9.15286 -17.875,-4.72743 -46.5625,-12.26123 -63.75,-16.74178 -17.1875,-4.48056 -51.21875,-13.8257 -75.625,-20.76697 -49.79635,-14.16238 -98.65851,-26.82138 -123.4295,-31.97759 -9.10498,-1.89525 -16.31343,-3.687 -16.01876,-3.98165 0.885,-0.885 49.63885,9.47868 75.07326,15.95844 13.0625,3.32785 45.204925,11.97967 71.427625,19.22629 26.222688,7.2466 66.4414375,18.01813 89.375,23.93673 57.608238,14.86732 82.322375,21.97963 82.322375,23.691 0,0.7005 -0.46645,0.68007 -4.375,-0.19161 z M -355,-244.86993 c -2.47447,-0.79246 -2.60459,-1.0008 -0.625,-1.0008 1.375,0 3.90625,0.45036 5.625,1.0008 2.47447,0.79246 2.60459,1.0008 0.625,1.0008 -1.375,0 -3.90625,-0.45036 -5.625,-1.0008 z m -7.8125,-2.07785 c 0.85938,-0.34676 2.26563,-0.34676 3.125,0 0.85938,0.34676 0.15625,0.63049 -1.5625,0.63049 -1.71875,0 -2.42187,-0.28373 -1.5625,-0.63049 z m -6.17187,-1.27604 c 0.90233,-0.36108 1.98047,-0.31668 2.39583,0.0986 0.41536,0.41536 -0.32292,0.7108 -1.64062,0.65652 -1.45619,-0.06 -1.75238,-0.35617 -0.75521,-0.7552 z m 128.75,-7.5 c 0.90233,-0.36108 1.98047,-0.31668 2.39583,0.0986 0.41536,0.41536 -0.32292,0.7108 -1.64062,0.65652 -1.45619,-0.06 -1.75238,-0.35617 -0.75521,-0.7552 z m -5,-1.25 c 0.90233,-0.36108 1.98047,-0.31668 2.39583,0.0986 0.41536,0.41536 -0.32292,0.7108 -1.64062,0.65652 -1.45619,-0.06 -1.75238,-0.35617 -0.75521,-0.7552 z m -5,-1.25 c 0.90233,-0.36108 1.98047,-0.31668 2.39583,0.0986 0.41536,0.41536 -0.32292,0.7108 -1.64062,0.65652 -1.45619,-0.06 -1.75238,-0.35617 -0.75521,-0.7552 z M -260,-259.86993 c -2.47447,-0.79246 -2.60459,-1.0008 -0.625,-1.0008 1.375,0 3.90625,0.45036 5.625,1.0008 2.47447,0.79246 2.60459,1.0008 0.625,1.0008 -1.375,0 -3.90625,-0.45036 -5.625,-1.0008 z m -11.25,-2.5 c -2.47447,-0.79246 -2.60459,-1.0008 -0.625,-1.0008 1.375,0 3.90625,0.45036 5.625,1.0008 2.47447,0.79246 2.60459,1.0008 0.625,1.0008 -1.375,0 -3.90625,-0.45036 -5.625,-1.0008 z m -7.8125,-2.07785 c 0.85938,-0.34676 2.26563,-0.34676 3.125,0 0.85938,0.34676 0.15625,0.63049 -1.5625,0.63049 -1.71875,0 -2.42187,-0.28373 -1.5625,-0.63049 z m -6.25,-1.25 c 0.85938,-0.34676 2.26563,-0.34676 3.125,0 0.85938,0.34676 0.15625,0.63049 -1.5625,0.63049 -1.71875,0 -2.42187,-0.28373 -1.5625,-0.63049 z m -6.17187,-1.27604 c 0.90233,-0.36108 1.98047,-0.31668 2.39583,0.0986 0.41536,0.41536 -0.32292,0.7108 -1.64062,0.65652 -1.45619,-0.06 -1.75238,-0.35617 -0.75521,-0.7552 z m -7.5,-1.25 c 0.90233,-0.36108 1.98047,-0.31668 2.39583,0.0986 0.41536,0.41536 -0.32292,0.7108 -1.64062,0.65652 -1.45619,-0.06 -1.75238,-0.35617 -0.75521,-0.7552 z"
       id="path3401"
       inkscape:connector-curvature="0"
       sodipodi:nodetypes="sssssssssssssscssscsssssscssssssssssccscsccscsssscsssssssssssccsssssssssssssssssssssssssssssssssssssssssssscccssssssssssssssssssssccsssssssssssssssssssssssssssssssssscsccssssscsssssssssssccccccccccsssscssssssscssssssssssssscsssssssssssssscssssssssssssssccccccccccccccccccccsssssssssssssssssscccccccccc" />
    <path
       style="color:#000000;display:inline;overflow:visible;visibility:visible;fill:#000000;fill-rule:evenodd;stroke:#000000;stroke-width:1;stroke-linecap:round;stroke-linejoin:round;stroke-miterlimit:4;stroke-dasharray:none;stroke-dashoffset:0;stroke-opacity:1;marker:none;marker-start:none;marker-mid:none;marker-end:none;enable-background:accumulate"
       d="m 468.3777,-69.96593 26.7608,-8.17692 -3.7168,-2.97343 z"
       id="path3430"
       inkscape:connector-curvature="0" />
  </g>
</svg>
